<svg width="979" height="979" viewBox="0 0 979 979" fill="none" xmlns="http://www.w3.org/2000/svg">
<g filter="url(#filter0_d_388_1234)">
<mask id="path-1-inside-1_388_1234" fill="white">
<path d="M784.352 318.574C792.483 313.88 802.919 316.649 807.222 324.993C833.348 375.657 847.037 431.907 847.037 489.074C847.037 546.241 833.348 602.492 807.222 653.155C802.919 661.5 792.483 664.269 784.352 659.574L498.485 494.529C496.691 493.493 496.197 491.145 496.197 489.074C496.197 487.004 496.691 484.655 498.485 483.62L784.352 318.574Z"/>
</mask>
<g filter="url(#filter1_ii_388_1234)">
<path d="M784.352 318.574C792.483 313.88 802.919 316.649 807.222 324.993C833.348 375.657 847.037 431.907 847.037 489.074C847.037 546.241 833.348 602.492 807.222 653.155C802.919 661.5 792.483 664.269 784.352 659.574L498.485 494.529C496.691 493.493 496.197 491.145 496.197 489.074C496.197 487.004 496.691 484.655 498.485 483.62L784.352 318.574Z" fill="#E64A19"/>
</g>
<path d="M784.352 318.574C792.483 313.88 802.919 316.649 807.222 324.993C833.348 375.657 847.037 431.907 847.037 489.074C847.037 546.241 833.348 602.492 807.222 653.155C802.919 661.5 792.483 664.269 784.352 659.574L498.485 494.529C496.691 493.493 496.197 491.145 496.197 489.074C496.197 487.004 496.691 484.655 498.485 483.62L784.352 318.574Z" stroke="white" stroke-width="12" mask="url(#path-1-inside-1_388_1234)"/>
<path d="M656.714 485.005C655.434 485.005 654.25 484.797 653.162 484.381C652.09 483.949 651.154 483.349 650.354 482.581C649.57 481.797 648.954 480.885 648.506 479.845C648.058 478.805 647.834 477.661 647.834 476.413C647.834 475.165 648.058 474.021 648.506 472.981C648.954 471.941 649.578 471.037 650.378 470.269C651.178 469.485 652.114 468.885 653.186 468.469C654.274 468.037 655.458 467.821 656.738 467.821C658.034 467.821 659.226 468.045 660.314 468.493C661.418 468.925 662.354 469.573 663.122 470.437L661.562 471.949C660.922 471.277 660.202 470.781 659.402 470.461C658.602 470.125 657.746 469.957 656.834 469.957C655.89 469.957 655.01 470.117 654.194 470.437C653.394 470.757 652.698 471.205 652.106 471.781C651.514 472.357 651.05 473.045 650.714 473.845C650.394 474.629 650.234 475.485 650.234 476.413C650.234 477.341 650.394 478.205 650.714 479.005C651.05 479.789 651.514 480.469 652.106 481.045C652.698 481.621 653.394 482.069 654.194 482.389C655.01 482.709 655.89 482.869 656.834 482.869C657.746 482.869 658.602 482.709 659.402 482.389C660.202 482.053 660.922 481.541 661.562 480.853L663.122 482.365C662.354 483.229 661.418 483.885 660.314 484.333C659.226 484.781 658.026 485.005 656.714 485.005ZM671.118 484.957C669.838 484.957 668.702 484.677 667.71 484.117C666.718 483.557 665.934 482.789 665.358 481.813C664.782 480.821 664.494 479.701 664.494 478.453C664.494 477.189 664.782 476.069 665.358 475.093C665.934 474.117 666.718 473.357 667.71 472.813C668.702 472.253 669.838 471.973 671.118 471.973C672.382 471.973 673.51 472.253 674.502 472.813C675.51 473.357 676.294 474.117 676.854 475.093C677.43 476.053 677.718 477.173 677.718 478.453C677.718 479.717 677.43 480.837 676.854 481.813C676.294 482.789 675.51 483.557 674.502 484.117C673.51 484.677 672.382 484.957 671.118 484.957ZM671.118 482.941C671.934 482.941 672.662 482.757 673.302 482.389C673.958 482.021 674.47 481.501 674.838 480.829C675.206 480.141 675.39 479.349 675.39 478.453C675.39 477.541 675.206 476.757 674.838 476.101C674.47 475.429 673.958 474.909 673.302 474.541C672.662 474.173 671.934 473.989 671.118 473.989C670.302 473.989 669.574 474.173 668.934 474.541C668.294 474.909 667.782 475.429 667.398 476.101C667.014 476.757 666.822 477.541 666.822 478.453C666.822 479.349 667.014 480.141 667.398 480.829C667.782 481.501 668.294 482.021 668.934 482.389C669.574 482.757 670.302 482.941 671.118 482.941ZM687.697 471.973C688.737 471.973 689.649 472.173 690.433 472.573C691.233 472.973 691.857 473.581 692.305 474.397C692.753 475.213 692.977 476.245 692.977 477.493L692.977 484.813L690.673 484.813L690.673 477.757C690.673 476.525 690.369 475.597 689.761 474.973C689.169 474.349 688.329 474.037 687.241 474.037C686.425 474.037 685.713 474.197 685.105 474.517C684.497 474.837 684.025 475.309 683.689 475.933C683.369 476.557 683.209 477.333 683.209 478.261L683.209 484.813L680.905 484.813L680.905 472.093L683.113 472.093L683.113 475.525L682.753 474.613C683.169 473.781 683.809 473.133 684.673 472.669C685.537 472.205 686.545 471.973 687.697 471.973ZM700.889 484.957C699.833 484.957 698.825 484.813 697.865 484.525C696.921 484.237 696.177 483.885 695.633 483.469L696.593 481.645C697.137 482.013 697.809 482.325 698.609 482.581C699.409 482.837 700.225 482.965 701.057 482.965C702.129 482.965 702.897 482.813 703.361 482.509C703.841 482.205 704.081 481.781 704.081 481.237C704.081 480.837 703.937 480.525 703.649 480.301C703.361 480.077 702.977 479.909 702.497 479.797C702.033 479.685 701.513 479.589 700.937 479.509C700.361 479.413 699.785 479.301 699.209 479.173C698.633 479.029 698.105 478.837 697.625 478.597C697.145 478.341 696.761 477.997 696.473 477.565C696.185 477.117 696.041 476.525 696.041 475.789C696.041 475.021 696.257 474.349 696.689 473.773C697.121 473.197 697.729 472.757 698.513 472.453C699.313 472.133 700.257 471.973 701.345 471.973C702.177 471.973 703.017 472.077 703.865 472.285C704.729 472.477 705.433 472.757 705.977 473.125L704.993 474.949C704.417 474.565 703.817 474.301 703.193 474.157C702.569 474.013 701.945 473.941 701.321 473.941C700.313 473.941 699.561 474.109 699.065 474.445C698.569 474.765 698.321 475.181 698.321 475.693C698.321 476.125 698.465 476.461 698.753 476.701C699.057 476.925 699.441 477.101 699.905 477.229C700.385 477.357 700.913 477.469 701.489 477.565C702.065 477.645 702.641 477.757 703.217 477.901C703.793 478.029 704.313 478.213 704.777 478.453C705.257 478.693 705.641 479.029 705.929 479.461C706.233 479.893 706.385 480.469 706.385 481.189C706.385 481.957 706.161 482.621 705.713 483.181C705.265 483.741 704.633 484.181 703.817 484.501C703.001 484.805 702.025 484.957 700.889 484.957ZM714.616 484.957C713.528 484.957 712.568 484.757 711.736 484.357C710.92 483.957 710.28 483.349 709.816 482.533C709.368 481.701 709.144 480.661 709.144 479.413L709.144 472.093L711.448 472.093L711.448 479.149C711.448 480.397 711.744 481.333 712.336 481.957C712.944 482.581 713.792 482.893 714.88 482.893C715.68 482.893 716.376 482.733 716.968 482.413C717.56 482.077 718.016 481.597 718.336 480.973C718.656 480.333 718.816 479.565 718.816 478.669L718.816 472.093L721.12 472.093L721.12 484.813L718.936 484.813L718.936 481.381L719.296 482.293C718.88 483.141 718.256 483.797 717.424 484.261C716.592 484.725 715.656 484.957 714.616 484.957ZM725.506 484.813L725.506 467.005L727.81 467.005L727.81 484.813L725.506 484.813ZM736.906 484.957C735.626 484.957 734.634 484.613 733.93 483.925C733.226 483.237 732.874 482.253 732.874 480.973L732.874 469.309L735.178 469.309L735.178 480.877C735.178 481.565 735.346 482.093 735.682 482.461C736.034 482.829 736.53 483.013 737.17 483.013C737.89 483.013 738.49 482.813 738.97 482.413L739.69 484.069C739.338 484.373 738.914 484.597 738.418 484.741C737.938 484.885 737.434 484.957 736.906 484.957ZM730.714 473.989L730.714 472.093L738.826 472.093L738.826 473.989L730.714 473.989ZM742.475 484.813L742.475 472.093L744.779 472.093L744.779 484.813L742.475 484.813ZM743.627 469.645C743.179 469.645 742.803 469.501 742.499 469.213C742.211 468.925 742.067 468.573 742.067 468.157C742.067 467.725 742.211 467.365 742.499 467.077C742.803 466.789 743.179 466.645 743.627 466.645C744.075 466.645 744.443 466.789 744.731 467.077C745.035 467.349 745.187 467.693 745.187 468.109C745.187 468.541 745.043 468.909 744.755 469.213C744.467 469.501 744.091 469.645 743.627 469.645ZM755.97 471.973C757.01 471.973 757.922 472.173 758.706 472.573C759.506 472.973 760.13 473.581 760.578 474.397C761.026 475.213 761.25 476.245 761.25 477.493L761.25 484.813L758.946 484.813L758.946 477.757C758.946 476.525 758.642 475.597 758.034 474.973C757.442 474.349 756.602 474.037 755.514 474.037C754.698 474.037 753.986 474.197 753.378 474.517C752.77 474.837 752.298 475.309 751.962 475.933C751.642 476.557 751.482 477.333 751.482 478.261L751.482 484.813L749.178 484.813L749.178 472.093L751.386 472.093L751.386 475.525L751.026 474.613C751.442 473.781 752.082 473.133 752.946 472.669C753.81 472.205 754.818 471.973 755.97 471.973ZM771.082 489.613C769.914 489.613 768.778 489.445 767.674 489.109C766.586 488.789 765.698 488.325 765.01 487.717L766.114 485.941C766.706 486.453 767.434 486.853 768.298 487.141C769.162 487.445 770.066 487.597 771.01 487.597C772.514 487.597 773.618 487.245 774.322 486.541C775.026 485.837 775.378 484.765 775.378 483.325L775.378 480.637L775.618 478.117L775.498 475.573L775.498 472.093L777.682 472.093L777.682 483.085C777.682 485.325 777.122 486.973 776.002 488.029C774.882 489.085 773.242 489.613 771.082 489.613ZM770.794 484.285C769.562 484.285 768.458 484.029 767.482 483.517C766.522 482.989 765.754 482.261 765.178 481.333C764.618 480.405 764.338 479.333 764.338 478.117C764.338 476.885 764.618 475.813 765.178 474.901C765.754 473.973 766.522 473.253 767.482 472.741C768.458 472.229 769.562 471.973 770.794 471.973C771.882 471.973 772.874 472.197 773.77 472.645C774.666 473.077 775.378 473.749 775.906 474.661C776.45 475.573 776.722 476.725 776.722 478.117C776.722 479.493 776.45 480.637 775.906 481.549C775.378 482.461 774.666 483.149 773.77 483.613C772.874 484.061 771.882 484.285 770.794 484.285ZM771.058 482.269C771.906 482.269 772.658 482.093 773.314 481.741C773.97 481.389 774.482 480.901 774.85 480.277C775.234 479.653 775.426 478.933 775.426 478.117C775.426 477.301 775.234 476.581 774.85 475.957C774.482 475.333 773.97 474.853 773.314 474.517C772.658 474.165 771.906 473.989 771.058 473.989C770.21 473.989 769.45 474.165 768.778 474.517C768.122 474.853 767.602 475.333 767.218 475.957C766.85 476.581 766.666 477.301 766.666 478.117C766.666 478.933 766.85 479.653 767.218 480.277C767.602 480.901 768.122 481.389 768.778 481.741C769.45 482.093 770.21 482.269 771.058 482.269ZM670.633 509.005C669.353 509.005 668.129 508.813 666.961 508.429C665.793 508.029 664.873 507.517 664.201 506.893L665.089 505.021C665.729 505.581 666.545 506.045 667.537 506.413C668.529 506.781 669.561 506.965 670.633 506.965C671.609 506.965 672.401 506.853 673.009 506.629C673.617 506.405 674.065 506.101 674.353 505.717C674.641 505.317 674.785 504.869 674.785 504.373C674.785 503.797 674.593 503.333 674.209 502.981C673.841 502.629 673.353 502.349 672.745 502.141C672.153 501.917 671.497 501.725 670.777 501.565C670.057 501.405 669.329 501.221 668.593 501.013C667.873 500.789 667.209 500.509 666.601 500.173C666.009 499.837 665.529 499.389 665.161 498.829C664.793 498.253 664.609 497.517 664.609 496.621C664.609 495.757 664.833 494.965 665.281 494.245C665.745 493.509 666.449 492.925 667.393 492.493C668.353 492.045 669.569 491.821 671.041 491.821C672.017 491.821 672.985 491.949 673.945 492.205C674.905 492.461 675.737 492.829 676.441 493.309L675.649 495.229C674.929 494.749 674.169 494.405 673.369 494.197C672.569 493.973 671.793 493.861 671.041 493.861C670.097 493.861 669.321 493.981 668.713 494.221C668.105 494.461 667.657 494.781 667.369 495.181C667.097 495.581 666.961 496.029 666.961 496.525C666.961 497.117 667.145 497.589 667.513 497.941C667.897 498.293 668.385 498.573 668.977 498.781C669.585 498.989 670.249 499.181 670.969 499.357C671.689 499.517 672.409 499.701 673.129 499.909C673.865 500.117 674.529 500.389 675.121 500.725C675.729 501.061 676.217 501.509 676.585 502.069C676.953 502.629 677.137 503.349 677.137 504.229C677.137 505.077 676.905 505.869 676.441 506.605C675.977 507.325 675.257 507.909 674.281 508.357C673.321 508.789 672.105 509.005 670.633 509.005ZM685.971 508.957C684.611 508.957 683.411 508.677 682.371 508.117C681.347 507.557 680.547 506.789 679.971 505.813C679.411 504.837 679.131 503.717 679.131 502.453C679.131 501.189 679.403 500.069 679.947 499.093C680.507 498.117 681.267 497.357 682.227 496.813C683.203 496.253 684.299 495.973 685.515 495.973C686.747 495.973 687.835 496.245 688.779 496.789C689.723 497.333 690.459 498.101 690.987 499.093C691.531 500.069 691.803 501.213 691.803 502.525C691.803 502.621 691.795 502.733 691.779 502.861C691.779 502.989 691.771 503.109 691.755 503.221L680.931 503.221L680.931 501.565L690.555 501.565L689.619 502.141C689.635 501.325 689.467 500.597 689.115 499.957C688.763 499.317 688.275 498.821 687.651 498.469C687.043 498.101 686.331 497.917 685.515 497.917C684.715 497.917 684.003 498.101 683.379 498.469C682.755 498.821 682.267 499.325 681.915 499.981C681.563 500.621 681.387 501.357 681.387 502.189L681.387 502.573C681.387 503.421 681.579 504.181 681.963 504.853C682.363 505.509 682.915 506.021 683.619 506.389C684.323 506.757 685.131 506.941 686.043 506.941C686.795 506.941 687.475 506.813 688.083 506.557C688.707 506.301 689.251 505.917 689.715 505.405L690.987 506.893C690.411 507.565 689.691 508.077 688.827 508.429C687.979 508.781 687.027 508.957 685.971 508.957ZM695.002 508.813L695.002 496.093L697.21 496.093L697.21 499.549L696.994 498.685C697.346 497.805 697.938 497.133 698.77 496.669C699.602 496.205 700.626 495.973 701.842 495.973L701.842 498.205C701.746 498.189 701.65 498.181 701.554 498.181C701.474 498.181 701.394 498.181 701.314 498.181C700.082 498.181 699.106 498.549 698.386 499.285C697.666 500.021 697.306 501.085 697.306 502.477L697.306 508.813L695.002 508.813ZM708.534 508.813L702.966 496.093L705.366 496.093L710.31 507.613L709.158 507.613L714.198 496.093L716.454 496.093L710.886 508.813L708.534 508.813ZM718.604 508.813L718.604 496.093L720.908 496.093L720.908 508.813L718.604 508.813ZM719.756 493.645C719.308 493.645 718.932 493.501 718.628 493.213C718.34 492.925 718.196 492.573 718.196 492.157C718.196 491.725 718.34 491.365 718.628 491.077C718.932 490.789 719.308 490.645 719.756 490.645C720.204 490.645 720.572 490.789 720.86 491.077C721.164 491.349 721.316 491.693 721.316 492.109C721.316 492.541 721.172 492.909 720.884 493.213C720.596 493.501 720.22 493.645 719.756 493.645ZM730.851 508.957C729.555 508.957 728.395 508.677 727.371 508.117C726.363 507.557 725.571 506.789 724.995 505.813C724.419 504.837 724.131 503.717 724.131 502.453C724.131 501.189 724.419 500.069 724.995 499.093C725.571 498.117 726.363 497.357 727.371 496.813C728.395 496.253 729.555 495.973 730.851 495.973C732.003 495.973 733.027 496.205 733.923 496.669C734.835 497.117 735.539 497.789 736.035 498.685L734.283 499.813C733.867 499.189 733.355 498.733 732.747 498.445C732.155 498.141 731.515 497.989 730.827 497.989C729.995 497.989 729.251 498.173 728.595 498.541C727.939 498.909 727.419 499.429 727.035 500.101C726.651 500.757 726.459 501.541 726.459 502.453C726.459 503.365 726.651 504.157 727.035 504.829C727.419 505.501 727.939 506.021 728.595 506.389C729.251 506.757 729.995 506.941 730.827 506.941C731.515 506.941 732.155 506.797 732.747 506.509C733.355 506.205 733.867 505.741 734.283 505.117L736.035 506.221C735.539 507.101 734.835 507.781 733.923 508.261C733.027 508.725 732.003 508.957 730.851 508.957ZM744.494 508.957C743.134 508.957 741.934 508.677 740.894 508.117C739.87 507.557 739.07 506.789 738.494 505.813C737.934 504.837 737.654 503.717 737.654 502.453C737.654 501.189 737.926 500.069 738.47 499.093C739.03 498.117 739.79 497.357 740.75 496.813C741.726 496.253 742.822 495.973 744.038 495.973C745.27 495.973 746.358 496.245 747.302 496.789C748.246 497.333 748.982 498.101 749.51 499.093C750.054 500.069 750.326 501.213 750.326 502.525C750.326 502.621 750.318 502.733 750.302 502.861C750.302 502.989 750.294 503.109 750.278 503.221L739.454 503.221L739.454 501.565L749.078 501.565L748.142 502.141C748.158 501.325 747.99 500.597 747.638 499.957C747.286 499.317 746.798 498.821 746.174 498.469C745.566 498.101 744.854 497.917 744.038 497.917C743.238 497.917 742.526 498.101 741.902 498.469C741.278 498.821 740.79 499.325 740.438 499.981C740.086 500.621 739.91 501.357 739.91 502.189L739.91 502.573C739.91 503.421 740.102 504.181 740.486 504.853C740.886 505.509 741.438 506.021 742.142 506.389C742.846 506.757 743.654 506.941 744.566 506.941C745.318 506.941 745.998 506.813 746.606 506.557C747.23 506.301 747.774 505.917 748.238 505.405L749.51 506.893C748.934 507.565 748.214 508.077 747.35 508.429C746.502 508.781 745.55 508.957 744.494 508.957ZM757.174 508.957C756.118 508.957 755.11 508.813 754.15 508.525C753.206 508.237 752.462 507.885 751.918 507.469L752.878 505.645C753.422 506.013 754.094 506.325 754.894 506.581C755.694 506.837 756.51 506.965 757.342 506.965C758.414 506.965 759.182 506.813 759.646 506.509C760.126 506.205 760.366 505.781 760.366 505.237C760.366 504.837 760.222 504.525 759.934 504.301C759.646 504.077 759.262 503.909 758.782 503.797C758.318 503.685 757.798 503.589 757.222 503.509C756.646 503.413 756.07 503.301 755.494 503.173C754.918 503.029 754.39 502.837 753.91 502.597C753.43 502.341 753.046 501.997 752.758 501.565C752.47 501.117 752.326 500.525 752.326 499.789C752.326 499.021 752.542 498.349 752.974 497.773C753.406 497.197 754.014 496.757 754.798 496.453C755.598 496.133 756.542 495.973 757.63 495.973C758.462 495.973 759.302 496.077 760.15 496.285C761.014 496.477 761.718 496.757 762.262 497.125L761.278 498.949C760.702 498.565 760.102 498.301 759.478 498.157C758.854 498.013 758.23 497.941 757.606 497.941C756.598 497.941 755.846 498.109 755.35 498.445C754.854 498.765 754.606 499.181 754.606 499.693C754.606 500.125 754.75 500.461 755.038 500.701C755.342 500.925 755.726 501.101 756.19 501.229C756.67 501.357 757.198 501.469 757.774 501.565C758.35 501.645 758.926 501.757 759.502 501.901C760.078 502.029 760.598 502.213 761.062 502.453C761.542 502.693 761.926 503.029 762.214 503.461C762.518 503.893 762.67 504.469 762.67 505.189C762.67 505.957 762.446 506.621 761.998 507.181C761.55 507.741 760.918 508.181 760.102 508.501C759.286 508.805 758.31 508.957 757.174 508.957Z" fill="#FEFBF5"/>
</g>
<defs>
<filter id="filter0_d_388_1234" x="-24" y="-23.9629" width="1026.07" height="1026.07" filterUnits="userSpaceOnUse" color-interpolation-filters="sRGB">
<feFlood flood-opacity="0" result="BackgroundImageFix"/>
<feColorMatrix in="SourceAlpha" type="matrix" values="0 0 0 0 0 0 0 0 0 0 0 0 0 0 0 0 0 0 127 0" result="hardAlpha"/>
<feOffset/>
<feGaussianBlur stdDeviation="12"/>
<feComposite in2="hardAlpha" operator="out"/>
<feColorMatrix type="matrix" values="0 0 0 0 0.94902 0 0 0 0 0.639216 0 0 0 0 0.156863 0 0 0 0.2 0"/>
<feBlend mode="normal" in2="BackgroundImageFix" result="effect1_dropShadow_388_1234"/>
<feBlend mode="normal" in="SourceGraphic" in2="effect1_dropShadow_388_1234" result="shape"/>
</filter>
<filter id="filter1_ii_388_1234" x="496.197" y="316.297" width="359.431" height="354.145" filterUnits="userSpaceOnUse" color-interpolation-filters="sRGB">
<feFlood flood-opacity="0" result="BackgroundImageFix"/>
<feBlend mode="normal" in="SourceGraphic" in2="BackgroundImageFix" result="shape"/>
<feColorMatrix in="SourceAlpha" type="matrix" values="0 0 0 0 0 0 0 0 0 0 0 0 0 0 0 0 0 0 127 0" result="hardAlpha"/>
<feMorphology radius="8.59104" operator="erode" in="SourceAlpha" result="effect1_innerShadow_388_1234"/>
<feOffset/>
<feGaussianBlur stdDeviation="28.6368"/>
<feComposite in2="hardAlpha" operator="arithmetic" k2="-1" k3="1"/>
<feColorMatrix type="matrix" values="0 0 0 0 0 0 0 0 0 0 0 0 0 0 0 0 0 0 0.25 0"/>
<feBlend mode="normal" in2="shape" result="effect1_innerShadow_388_1234"/>
<feColorMatrix in="SourceAlpha" type="matrix" values="0 0 0 0 0 0 0 0 0 0 0 0 0 0 0 0 0 0 127 0" result="hardAlpha"/>
<feOffset dx="8.59104" dy="8.59104"/>
<feGaussianBlur stdDeviation="21.4776"/>
<feComposite in2="hardAlpha" operator="arithmetic" k2="-1" k3="1"/>
<feColorMatrix type="matrix" values="0 0 0 0 0 0 0 0 0 0 0 0 0 0 0 0 0 0 0.25 0"/>
<feBlend mode="normal" in2="effect1_innerShadow_388_1234" result="effect2_innerShadow_388_1234"/>
</filter>
</defs>
</svg>
