<svg width="979" height="980" viewBox="0 0 979 980" fill="none" xmlns="http://www.w3.org/2000/svg">
<g filter="url(#filter0_d_388_1228)">
<mask id="path-1-inside-1_388_1228" fill="white">
<path d="M193.722 319.5C185.591 314.806 182.771 304.383 187.846 296.484C218.659 248.527 260.529 208.546 310.037 179.963C359.545 151.379 415.104 135.109 472.043 132.404C481.421 131.958 489.037 139.611 489.037 149L489.037 479.091C489.037 481.162 487.25 482.764 485.457 483.799C483.664 484.834 481.383 485.581 479.59 484.546L193.722 319.5Z"/>
</mask>
<g filter="url(#filter1_ii_388_1228)">
<path d="M193.722 319.5C185.591 314.806 182.771 304.383 187.846 296.484C218.659 248.527 260.529 208.546 310.037 179.963C359.545 151.379 415.104 135.109 472.043 132.404C481.421 131.958 489.037 139.611 489.037 149L489.037 479.091C489.037 481.162 487.25 482.764 485.457 483.799C483.664 484.834 481.383 485.581 479.59 484.546L193.722 319.5Z" fill="#91C23F"/>
</g>
<path d="M193.722 319.5C185.591 314.806 182.771 304.383 187.846 296.484C218.659 248.527 260.529 208.546 310.037 179.963C359.545 151.379 415.104 135.109 472.043 132.404C481.421 131.958 489.037 139.611 489.037 149L489.037 479.091C489.037 481.162 487.25 482.764 485.457 483.799C483.664 484.834 481.383 485.581 479.59 484.546L193.722 319.5Z" stroke="white" stroke-width="12" mask="url(#path-1-inside-1_388_1228)"/>
<path d="M317.819 285.058V268.258H324.899C326.691 268.258 328.267 268.61 329.627 269.314C331.003 270.018 332.067 271.002 332.819 272.266C333.587 273.53 333.971 274.994 333.971 276.658C333.971 278.322 333.587 279.786 332.819 281.05C332.067 282.314 331.003 283.298 329.627 284.002C328.267 284.706 326.691 285.058 324.899 285.058H317.819ZM320.219 282.97H324.755C326.147 282.97 327.347 282.706 328.355 282.178C329.379 281.65 330.171 280.914 330.731 279.97C331.291 279.01 331.571 277.906 331.571 276.658C331.571 275.394 331.291 274.29 330.731 273.346C330.171 272.402 329.379 271.666 328.355 271.138C327.347 270.61 326.147 270.346 324.755 270.346H320.219V282.97ZM337.311 285.058V272.338H339.615V285.058H337.311ZM338.463 269.89C338.015 269.89 337.639 269.746 337.335 269.458C337.047 269.17 336.903 268.818 336.903 268.402C336.903 267.97 337.047 267.61 337.335 267.322C337.639 267.034 338.015 266.89 338.463 266.89C338.911 266.89 339.279 267.034 339.567 267.322C339.871 267.594 340.023 267.938 340.023 268.354C340.023 268.786 339.879 269.154 339.591 269.458C339.303 269.746 338.927 269.89 338.463 269.89ZM349.582 289.858C348.414 289.858 347.278 289.69 346.174 289.354C345.086 289.034 344.198 288.57 343.51 287.962L344.614 286.186C345.206 286.698 345.934 287.098 346.798 287.386C347.662 287.69 348.566 287.842 349.51 287.842C351.014 287.842 352.118 287.49 352.822 286.786C353.526 286.082 353.878 285.01 353.878 283.57V280.882L354.118 278.362L353.998 275.818V272.338H356.182V283.33C356.182 285.57 355.622 287.218 354.502 288.274C353.382 289.33 351.742 289.858 349.582 289.858ZM349.294 284.53C348.062 284.53 346.958 284.274 345.982 283.762C345.022 283.234 344.254 282.506 343.678 281.578C343.118 280.65 342.838 279.578 342.838 278.362C342.838 277.13 343.118 276.058 343.678 275.146C344.254 274.218 345.022 273.498 345.982 272.986C346.958 272.474 348.062 272.218 349.294 272.218C350.382 272.218 351.374 272.442 352.27 272.89C353.166 273.322 353.878 273.994 354.406 274.906C354.95 275.818 355.222 276.97 355.222 278.362C355.222 279.738 354.95 280.882 354.406 281.794C353.878 282.706 353.166 283.394 352.27 283.858C351.374 284.306 350.382 284.53 349.294 284.53ZM349.558 282.514C350.406 282.514 351.158 282.338 351.814 281.986C352.47 281.634 352.982 281.146 353.35 280.522C353.734 279.898 353.926 279.178 353.926 278.362C353.926 277.546 353.734 276.826 353.35 276.202C352.982 275.578 352.47 275.098 351.814 274.762C351.158 274.41 350.406 274.234 349.558 274.234C348.71 274.234 347.95 274.41 347.278 274.762C346.622 275.098 346.102 275.578 345.718 276.202C345.35 276.826 345.166 277.546 345.166 278.362C345.166 279.178 345.35 279.898 345.718 280.522C346.102 281.146 346.622 281.634 347.278 281.986C347.95 282.338 348.71 282.514 349.558 282.514ZM360.584 285.058V272.338H362.888V285.058H360.584ZM361.736 269.89C361.288 269.89 360.912 269.746 360.608 269.458C360.32 269.17 360.176 268.818 360.176 268.402C360.176 267.97 360.32 267.61 360.608 267.322C360.912 267.034 361.288 266.89 361.736 266.89C362.184 266.89 362.552 267.034 362.84 267.322C363.144 267.594 363.296 267.938 363.296 268.354C363.296 268.786 363.152 269.154 362.864 269.458C362.576 269.746 362.2 269.89 361.736 269.89ZM371.656 285.202C370.376 285.202 369.384 284.858 368.68 284.17C367.976 283.482 367.624 282.498 367.624 281.218V269.554H369.928V281.122C369.928 281.81 370.096 282.338 370.432 282.706C370.784 283.074 371.28 283.258 371.92 283.258C372.64 283.258 373.24 283.058 373.72 282.658L374.44 284.314C374.088 284.618 373.664 284.842 373.168 284.986C372.688 285.13 372.184 285.202 371.656 285.202ZM365.464 274.234V272.338H373.576V274.234H365.464ZM385.121 285.058V282.37L385.001 281.866V277.282C385.001 276.306 384.713 275.554 384.137 275.026C383.577 274.482 382.729 274.21 381.593 274.21C380.841 274.21 380.105 274.338 379.385 274.594C378.665 274.834 378.057 275.162 377.561 275.578L376.601 273.85C377.257 273.322 378.041 272.922 378.953 272.65C379.881 272.362 380.849 272.218 381.857 272.218C383.601 272.218 384.945 272.642 385.889 273.49C386.833 274.338 387.305 275.634 387.305 277.378V285.058H385.121ZM380.945 285.202C380.001 285.202 379.169 285.042 378.449 284.722C377.745 284.402 377.201 283.962 376.817 283.402C376.433 282.826 376.241 282.178 376.241 281.458C376.241 280.77 376.401 280.146 376.721 279.586C377.057 279.026 377.593 278.578 378.329 278.242C379.081 277.906 380.089 277.738 381.353 277.738H385.385V279.394H381.449C380.297 279.394 379.521 279.586 379.121 279.97C378.721 280.354 378.521 280.818 378.521 281.362C378.521 281.986 378.769 282.49 379.265 282.874C379.761 283.242 380.449 283.426 381.329 283.426C382.193 283.426 382.945 283.234 383.585 282.85C384.241 282.466 384.713 281.906 385.001 281.17L385.457 282.754C385.153 283.506 384.617 284.106 383.849 284.554C383.081 284.986 382.113 285.202 380.945 285.202ZM391.569 285.058V267.25H393.873V285.058H391.569ZM313.035 309.25C311.755 309.25 310.531 309.058 309.363 308.674C308.195 308.274 307.275 307.762 306.603 307.138L307.491 305.266C308.131 305.826 308.947 306.29 309.939 306.658C310.931 307.026 311.963 307.21 313.035 307.21C314.011 307.21 314.803 307.098 315.411 306.874C316.019 306.65 316.467 306.346 316.755 305.962C317.043 305.562 317.187 305.114 317.187 304.618C317.187 304.042 316.995 303.578 316.611 303.226C316.243 302.874 315.755 302.594 315.147 302.386C314.555 302.162 313.899 301.97 313.179 301.81C312.459 301.65 311.731 301.466 310.995 301.258C310.275 301.034 309.611 300.754 309.003 300.418C308.411 300.082 307.931 299.634 307.563 299.074C307.195 298.498 307.011 297.762 307.011 296.866C307.011 296.002 307.235 295.21 307.683 294.49C308.147 293.754 308.851 293.17 309.795 292.738C310.755 292.29 311.971 292.066 313.443 292.066C314.419 292.066 315.387 292.194 316.347 292.45C317.307 292.706 318.139 293.074 318.843 293.554L318.051 295.474C317.331 294.994 316.571 294.65 315.771 294.442C314.971 294.218 314.195 294.106 313.443 294.106C312.499 294.106 311.723 294.226 311.115 294.466C310.507 294.706 310.059 295.026 309.771 295.426C309.499 295.826 309.363 296.274 309.363 296.77C309.363 297.362 309.547 297.834 309.915 298.186C310.299 298.538 310.787 298.818 311.379 299.026C311.987 299.234 312.651 299.426 313.371 299.602C314.091 299.762 314.811 299.946 315.531 300.154C316.267 300.362 316.931 300.634 317.523 300.97C318.131 301.306 318.619 301.754 318.987 302.314C319.355 302.874 319.539 303.594 319.539 304.474C319.539 305.322 319.307 306.114 318.843 306.85C318.379 307.57 317.659 308.154 316.683 308.602C315.723 309.034 314.507 309.25 313.035 309.25ZM328.373 309.202C327.013 309.202 325.813 308.922 324.773 308.362C323.749 307.802 322.949 307.034 322.373 306.058C321.813 305.082 321.533 303.962 321.533 302.698C321.533 301.434 321.805 300.314 322.349 299.338C322.909 298.362 323.669 297.602 324.629 297.058C325.605 296.498 326.701 296.218 327.917 296.218C329.149 296.218 330.237 296.49 331.181 297.034C332.125 297.578 332.861 298.346 333.389 299.338C333.933 300.314 334.205 301.458 334.205 302.77C334.205 302.866 334.197 302.978 334.181 303.106C334.181 303.234 334.173 303.354 334.157 303.466H323.333V301.81H332.957L332.021 302.386C332.037 301.57 331.869 300.842 331.517 300.202C331.165 299.562 330.677 299.066 330.053 298.714C329.445 298.346 328.733 298.162 327.917 298.162C327.117 298.162 326.405 298.346 325.781 298.714C325.157 299.066 324.669 299.57 324.317 300.226C323.965 300.866 323.789 301.602 323.789 302.434V302.818C323.789 303.666 323.981 304.426 324.365 305.098C324.765 305.754 325.317 306.266 326.021 306.634C326.725 307.002 327.533 307.186 328.445 307.186C329.197 307.186 329.877 307.058 330.485 306.802C331.109 306.546 331.653 306.162 332.117 305.65L333.389 307.138C332.813 307.81 332.093 308.322 331.229 308.674C330.381 309.026 329.429 309.202 328.373 309.202ZM337.405 309.058V296.338H339.613V299.794L339.397 298.93C339.749 298.05 340.341 297.378 341.173 296.914C342.005 296.45 343.029 296.218 344.245 296.218V298.45C344.149 298.434 344.053 298.426 343.957 298.426C343.877 298.426 343.797 298.426 343.717 298.426C342.485 298.426 341.509 298.794 340.789 299.53C340.069 300.266 339.709 301.33 339.709 302.722V309.058H337.405ZM350.936 309.058L345.368 296.338H347.768L352.712 307.858H351.56L356.6 296.338H358.856L353.288 309.058H350.936ZM361.006 309.058V296.338H363.31V309.058H361.006ZM362.158 293.89C361.71 293.89 361.334 293.746 361.03 293.458C360.742 293.17 360.598 292.818 360.598 292.402C360.598 291.97 360.742 291.61 361.03 291.322C361.334 291.034 361.71 290.89 362.158 290.89C362.606 290.89 362.974 291.034 363.262 291.322C363.566 291.594 363.718 291.938 363.718 292.354C363.718 292.786 363.574 293.154 363.286 293.458C362.998 293.746 362.622 293.89 362.158 293.89ZM373.253 309.202C371.957 309.202 370.797 308.922 369.773 308.362C368.765 307.802 367.973 307.034 367.397 306.058C366.821 305.082 366.533 303.962 366.533 302.698C366.533 301.434 366.821 300.314 367.397 299.338C367.973 298.362 368.765 297.602 369.773 297.058C370.797 296.498 371.957 296.218 373.253 296.218C374.405 296.218 375.429 296.45 376.325 296.914C377.237 297.362 377.941 298.034 378.437 298.93L376.685 300.058C376.269 299.434 375.757 298.978 375.149 298.69C374.557 298.386 373.917 298.234 373.229 298.234C372.397 298.234 371.653 298.418 370.997 298.786C370.341 299.154 369.821 299.674 369.437 300.346C369.053 301.002 368.861 301.786 368.861 302.698C368.861 303.61 369.053 304.402 369.437 305.074C369.821 305.746 370.341 306.266 370.997 306.634C371.653 307.002 372.397 307.186 373.229 307.186C373.917 307.186 374.557 307.042 375.149 306.754C375.757 306.45 376.269 305.986 376.685 305.362L378.437 306.466C377.941 307.346 377.237 308.026 376.325 308.506C375.429 308.97 374.405 309.202 373.253 309.202ZM386.897 309.202C385.537 309.202 384.337 308.922 383.297 308.362C382.273 307.802 381.473 307.034 380.897 306.058C380.337 305.082 380.057 303.962 380.057 302.698C380.057 301.434 380.329 300.314 380.873 299.338C381.433 298.362 382.193 297.602 383.153 297.058C384.129 296.498 385.225 296.218 386.441 296.218C387.673 296.218 388.761 296.49 389.705 297.034C390.649 297.578 391.385 298.346 391.913 299.338C392.457 300.314 392.729 301.458 392.729 302.77C392.729 302.866 392.721 302.978 392.705 303.106C392.705 303.234 392.697 303.354 392.681 303.466H381.857V301.81H391.481L390.545 302.386C390.561 301.57 390.393 300.842 390.041 300.202C389.689 299.562 389.201 299.066 388.577 298.714C387.969 298.346 387.257 298.162 386.441 298.162C385.641 298.162 384.929 298.346 384.305 298.714C383.681 299.066 383.193 299.57 382.841 300.226C382.489 300.866 382.313 301.602 382.313 302.434V302.818C382.313 303.666 382.505 304.426 382.889 305.098C383.289 305.754 383.841 306.266 384.545 306.634C385.249 307.002 386.057 307.186 386.969 307.186C387.721 307.186 388.401 307.058 389.009 306.802C389.633 306.546 390.177 306.162 390.641 305.65L391.913 307.138C391.337 307.81 390.617 308.322 389.753 308.674C388.905 309.026 387.953 309.202 386.897 309.202ZM399.576 309.202C398.52 309.202 397.512 309.058 396.552 308.77C395.608 308.482 394.864 308.13 394.32 307.714L395.28 305.89C395.824 306.258 396.496 306.57 397.296 306.826C398.096 307.082 398.912 307.21 399.744 307.21C400.816 307.21 401.584 307.058 402.048 306.754C402.528 306.45 402.768 306.026 402.768 305.482C402.768 305.082 402.624 304.77 402.336 304.546C402.048 304.322 401.664 304.154 401.184 304.042C400.72 303.93 400.2 303.834 399.624 303.754C399.048 303.658 398.472 303.546 397.896 303.418C397.32 303.274 396.792 303.082 396.312 302.842C395.832 302.586 395.448 302.242 395.16 301.81C394.872 301.362 394.728 300.77 394.728 300.034C394.728 299.266 394.944 298.594 395.376 298.018C395.808 297.442 396.416 297.002 397.2 296.698C398 296.378 398.944 296.218 400.032 296.218C400.864 296.218 401.704 296.322 402.552 296.53C403.416 296.722 404.12 297.002 404.664 297.37L403.68 299.194C403.104 298.81 402.504 298.546 401.88 298.402C401.256 298.258 400.632 298.186 400.008 298.186C399 298.186 398.248 298.354 397.752 298.69C397.256 299.01 397.008 299.426 397.008 299.938C397.008 300.37 397.152 300.706 397.44 300.946C397.744 301.17 398.128 301.346 398.592 301.474C399.072 301.602 399.6 301.714 400.176 301.81C400.752 301.89 401.328 302.002 401.904 302.146C402.48 302.274 403 302.458 403.464 302.698C403.944 302.938 404.328 303.274 404.616 303.706C404.92 304.138 405.072 304.714 405.072 305.434C405.072 306.202 404.848 306.866 404.4 307.426C403.952 307.986 403.32 308.426 402.504 308.746C401.688 309.05 400.712 309.202 399.576 309.202Z" fill="#FEFBF5"/>
</g>
<defs>
<filter id="filter0_d_388_1228" x="-24" y="-23.0371" width="1026.07" height="1026.07" filterUnits="userSpaceOnUse" color-interpolation-filters="sRGB">
<feFlood flood-opacity="0" result="BackgroundImageFix"/>
<feColorMatrix in="SourceAlpha" type="matrix" values="0 0 0 0 0 0 0 0 0 0 0 0 0 0 0 0 0 0 127 0" result="hardAlpha"/>
<feOffset/>
<feGaussianBlur stdDeviation="12"/>
<feComposite in2="hardAlpha" operator="out"/>
<feColorMatrix type="matrix" values="0 0 0 0 0.94902 0 0 0 0 0.639216 0 0 0 0 0.156863 0 0 0 0.2 0"/>
<feBlend mode="normal" in2="BackgroundImageFix" result="effect1_dropShadow_388_1228"/>
<feBlend mode="normal" in="SourceGraphic" in2="effect1_dropShadow_388_1228" result="shape"/>
</filter>
<filter id="filter1_ii_388_1228" x="185.307" y="132.385" width="312.322" height="361.248" filterUnits="userSpaceOnUse" color-interpolation-filters="sRGB">
<feFlood flood-opacity="0" result="BackgroundImageFix"/>
<feBlend mode="normal" in="SourceGraphic" in2="BackgroundImageFix" result="shape"/>
<feColorMatrix in="SourceAlpha" type="matrix" values="0 0 0 0 0 0 0 0 0 0 0 0 0 0 0 0 0 0 127 0" result="hardAlpha"/>
<feMorphology radius="8.59104" operator="erode" in="SourceAlpha" result="effect1_innerShadow_388_1228"/>
<feOffset/>
<feGaussianBlur stdDeviation="28.6368"/>
<feComposite in2="hardAlpha" operator="arithmetic" k2="-1" k3="1"/>
<feColorMatrix type="matrix" values="0 0 0 0 0 0 0 0 0 0 0 0 0 0 0 0 0 0 0.25 0"/>
<feBlend mode="normal" in2="shape" result="effect1_innerShadow_388_1228"/>
<feColorMatrix in="SourceAlpha" type="matrix" values="0 0 0 0 0 0 0 0 0 0 0 0 0 0 0 0 0 0 127 0" result="hardAlpha"/>
<feOffset dx="8.59104" dy="8.59104"/>
<feGaussianBlur stdDeviation="21.4776"/>
<feComposite in2="hardAlpha" operator="arithmetic" k2="-1" k3="1"/>
<feColorMatrix type="matrix" values="0 0 0 0 0 0 0 0 0 0 0 0 0 0 0 0 0 0 0.25 0"/>
<feBlend mode="normal" in2="effect1_innerShadow_388_1228" result="effect2_innerShadow_388_1228"/>
</filter>
</defs>
</svg>
