<svg width="979" height="979" viewBox="0 0 979 979" fill="none" xmlns="http://www.w3.org/2000/svg">
<g filter="url(#filter0_d_388_1231)">
<mask id="path-1-inside-1_388_1231" fill="white">
<path d="M784.352 659.574C792.483 664.269 795.303 674.691 790.228 682.59C759.415 730.548 717.545 770.528 668.037 799.111C618.529 827.695 562.97 843.965 506.031 846.671C496.653 847.116 489.037 839.463 489.037 830.074L489.037 499.983C489.037 497.913 490.824 496.31 492.617 495.275C494.41 494.24 496.691 493.493 498.484 494.529L784.352 659.574Z"/>
</mask>
<g filter="url(#filter1_ii_388_1231)">
<path d="M784.352 659.574C792.483 664.269 795.303 674.691 790.228 682.59C759.415 730.548 717.545 770.528 668.037 799.111C618.529 827.695 562.97 843.965 506.031 846.671C496.653 847.116 489.037 839.463 489.037 830.074L489.037 499.983C489.037 497.913 490.824 496.31 492.617 495.275C494.41 494.24 496.691 493.493 498.484 494.529L784.352 659.574Z" fill="#0389AC"/>
</g>
<path d="M784.352 659.574C792.483 664.269 795.303 674.691 790.228 682.59C759.415 730.548 717.545 770.528 668.037 799.111C618.529 827.695 562.97 843.965 506.031 846.671C496.653 847.116 489.037 839.463 489.037 830.074L489.037 499.983C489.037 497.913 490.824 496.31 492.617 495.275C494.41 494.24 496.691 493.493 498.484 494.529L784.352 659.574Z" stroke="white" stroke-width="12" mask="url(#path-1-inside-1_388_1231)"/>
<path d="M549.327 661.007L557.967 661.007L557.967 663.047L549.327 663.047L549.327 661.007ZM549.543 668.471L559.335 668.471L559.335 670.559L547.143 670.559L547.143 653.759L558.999 653.759L558.999 655.847L549.543 655.847L549.543 668.471ZM569.677 657.719C570.717 657.719 571.629 657.919 572.413 658.319C573.213 658.719 573.837 659.327 574.285 660.143C574.733 660.959 574.957 661.991 574.957 663.239L574.957 670.559L572.653 670.559L572.653 663.503C572.653 662.271 572.349 661.343 571.741 660.719C571.149 660.095 570.309 659.783 569.221 659.783C568.405 659.783 567.693 659.943 567.085 660.263C566.477 660.583 566.005 661.055 565.669 661.679C565.349 662.303 565.189 663.079 565.189 664.007L565.189 670.559L562.885 670.559L562.885 657.839L565.093 657.839L565.093 661.271L564.733 660.359C565.149 659.527 565.789 658.879 566.653 658.415C567.517 657.951 568.525 657.719 569.677 657.719ZM583.589 670.703C582.309 670.703 581.317 670.359 580.613 669.671C579.909 668.983 579.557 667.999 579.557 666.719L579.557 655.055L581.861 655.055L581.861 666.623C581.861 667.311 582.029 667.839 582.365 668.207C582.717 668.575 583.213 668.759 583.853 668.759C584.573 668.759 585.173 668.559 585.653 668.159L586.373 669.815C586.021 670.119 585.597 670.343 585.101 670.487C584.621 670.631 584.117 670.703 583.589 670.703ZM577.397 659.735L577.397 657.839L585.509 657.839L585.509 659.735L577.397 659.735ZM594.401 670.703C593.041 670.703 591.841 670.423 590.801 669.863C589.777 669.303 588.977 668.535 588.401 667.559C587.841 666.583 587.561 665.463 587.561 664.199C587.561 662.935 587.833 661.815 588.377 660.839C588.937 659.863 589.697 659.103 590.657 658.559C591.633 657.999 592.729 657.719 593.945 657.719C595.177 657.719 596.265 657.991 597.209 658.535C598.153 659.079 598.889 659.847 599.417 660.839C599.961 661.815 600.233 662.959 600.233 664.271C600.233 664.367 600.225 664.479 600.209 664.607C600.209 664.735 600.201 664.855 600.185 664.967L589.361 664.967L589.361 663.311L598.985 663.311L598.049 663.887C598.065 663.071 597.897 662.343 597.545 661.703C597.193 661.063 596.705 660.567 596.081 660.215C595.473 659.847 594.761 659.663 593.945 659.663C593.145 659.663 592.433 659.847 591.809 660.215C591.185 660.567 590.697 661.071 590.345 661.727C589.993 662.367 589.817 663.103 589.817 663.935L589.817 664.319C589.817 665.167 590.009 665.927 590.393 666.599C590.793 667.255 591.345 667.767 592.049 668.135C592.753 668.503 593.561 668.687 594.473 668.687C595.225 668.687 595.905 668.559 596.513 668.303C597.137 668.047 597.681 667.663 598.145 667.151L599.417 668.639C598.841 669.311 598.121 669.823 597.257 670.175C596.409 670.527 595.457 670.703 594.401 670.703ZM603.432 670.559L603.432 657.839L605.64 657.839L605.64 661.295L605.424 660.431C605.776 659.551 606.368 658.879 607.2 658.415C608.032 657.951 609.056 657.719 610.272 657.719L610.272 659.951C610.176 659.935 610.08 659.927 609.984 659.927C609.904 659.927 609.824 659.927 609.744 659.927C608.512 659.927 607.536 660.295 606.816 661.031C606.096 661.767 605.736 662.831 605.736 664.223L605.736 670.559L603.432 670.559ZM619.856 670.703C618.8 670.703 617.832 670.463 616.952 669.983C616.088 669.487 615.392 668.759 614.864 667.799C614.352 666.839 614.096 665.639 614.096 664.199C614.096 662.759 614.344 661.559 614.84 660.599C615.352 659.639 616.04 658.919 616.904 658.439C617.784 657.959 618.768 657.719 619.856 657.719C621.104 657.719 622.208 657.991 623.168 658.535C624.128 659.079 624.888 659.839 625.448 660.815C626.008 661.775 626.288 662.903 626.288 664.199C626.288 665.495 626.008 666.631 625.448 667.607C624.888 668.583 624.128 669.343 623.168 669.887C622.208 670.431 621.104 670.703 619.856 670.703ZM613.112 675.215L613.112 657.839L615.32 657.839L615.32 661.271L615.176 664.223L615.416 667.175L615.416 675.215L613.112 675.215ZM619.664 668.687C620.48 668.687 621.208 668.503 621.848 668.135C622.504 667.767 623.016 667.247 623.384 666.575C623.768 665.887 623.96 665.095 623.96 664.199C623.96 663.287 623.768 662.503 623.384 661.847C623.016 661.175 622.504 660.655 621.848 660.287C621.208 659.919 620.48 659.735 619.664 659.735C618.864 659.735 618.136 659.919 617.48 660.287C616.84 660.655 616.328 661.175 615.944 661.847C615.576 662.503 615.392 663.287 615.392 664.199C615.392 665.095 615.576 665.887 615.944 666.575C616.328 667.247 616.84 667.767 617.48 668.135C618.136 668.503 618.864 668.687 619.664 668.687ZM629.471 670.559L629.471 657.839L631.679 657.839L631.679 661.295L631.463 660.431C631.815 659.551 632.407 658.879 633.239 658.415C634.071 657.951 635.095 657.719 636.311 657.719L636.311 659.951C636.215 659.935 636.119 659.927 636.023 659.927C635.943 659.927 635.863 659.927 635.783 659.927C634.551 659.927 633.575 660.295 632.855 661.031C632.135 661.767 631.775 662.831 631.775 664.223L631.775 670.559L629.471 670.559ZM639.151 670.559L639.151 657.839L641.455 657.839L641.455 670.559L639.151 670.559ZM640.303 655.391C639.855 655.391 639.479 655.247 639.175 654.959C638.887 654.671 638.743 654.319 638.743 653.903C638.743 653.471 638.887 653.111 639.175 652.823C639.479 652.535 639.855 652.391 640.303 652.391C640.751 652.391 641.119 652.535 641.407 652.823C641.711 653.095 641.863 653.439 641.863 653.855C641.863 654.287 641.719 654.655 641.431 654.959C641.143 655.247 640.767 655.391 640.303 655.391ZM649.502 670.703C648.446 670.703 647.438 670.559 646.478 670.271C645.534 669.983 644.79 669.631 644.246 669.215L645.206 667.391C645.75 667.759 646.422 668.071 647.222 668.327C648.022 668.583 648.838 668.711 649.67 668.711C650.742 668.711 651.51 668.559 651.974 668.255C652.454 667.951 652.694 667.527 652.694 666.983C652.694 666.583 652.55 666.271 652.262 666.047C651.974 665.823 651.59 665.655 651.11 665.543C650.646 665.431 650.126 665.335 649.55 665.255C648.974 665.159 648.398 665.047 647.822 664.919C647.246 664.775 646.718 664.583 646.238 664.343C645.758 664.087 645.374 663.743 645.086 663.311C644.798 662.863 644.654 662.271 644.654 661.535C644.654 660.767 644.87 660.095 645.302 659.519C645.734 658.943 646.342 658.503 647.126 658.199C647.926 657.879 648.87 657.719 649.958 657.719C650.79 657.719 651.63 657.823 652.478 658.031C653.342 658.223 654.046 658.503 654.59 658.871L653.606 660.695C653.03 660.311 652.43 660.047 651.806 659.903C651.182 659.759 650.558 659.687 649.934 659.687C648.926 659.687 648.174 659.855 647.678 660.191C647.182 660.511 646.934 660.927 646.934 661.439C646.934 661.871 647.078 662.207 647.366 662.447C647.67 662.671 648.054 662.847 648.518 662.975C648.998 663.103 649.526 663.215 650.102 663.311C650.678 663.391 651.254 663.503 651.83 663.647C652.406 663.775 652.926 663.959 653.39 664.199C653.87 664.439 654.254 664.775 654.542 665.207C654.846 665.639 654.998 666.215 654.998 666.935C654.998 667.703 654.774 668.367 654.326 668.927C653.878 669.487 653.246 669.927 652.43 670.247C651.614 670.551 650.638 670.703 649.502 670.703ZM663.541 670.703C662.181 670.703 660.981 670.423 659.941 669.863C658.917 669.303 658.117 668.535 657.541 667.559C656.981 666.583 656.701 665.463 656.701 664.199C656.701 662.935 656.973 661.815 657.517 660.839C658.077 659.863 658.837 659.103 659.797 658.559C660.773 657.999 661.869 657.719 663.085 657.719C664.317 657.719 665.405 657.991 666.349 658.535C667.293 659.079 668.029 659.847 668.557 660.839C669.101 661.815 669.373 662.959 669.373 664.271C669.373 664.367 669.365 664.479 669.349 664.607C669.349 664.735 669.341 664.855 669.325 664.967L658.501 664.967L658.501 663.311L668.125 663.311L667.189 663.887C667.205 663.071 667.037 662.343 666.685 661.703C666.333 661.063 665.845 660.567 665.221 660.215C664.613 659.847 663.901 659.663 663.085 659.663C662.285 659.663 661.573 659.847 660.949 660.215C660.325 660.567 659.837 661.071 659.485 661.727C659.133 662.367 658.957 663.103 658.957 663.935L658.957 664.319C658.957 665.167 659.149 665.927 659.533 666.599C659.933 667.255 660.485 667.767 661.189 668.135C661.893 668.503 662.701 668.687 663.613 668.687C664.365 668.687 665.045 668.559 665.653 668.303C666.277 668.047 666.821 667.663 667.285 667.151L668.557 668.639C667.981 669.311 667.261 669.823 666.397 670.175C665.549 670.527 664.597 670.703 663.541 670.703ZM537.497 694.559L545.105 677.759L547.481 677.759L555.113 694.559L552.593 694.559L545.801 679.103L546.761 679.103L539.969 694.559L537.497 694.559ZM540.737 690.359L541.385 688.439L550.841 688.439L551.537 690.359L540.737 690.359ZM564.028 694.703C562.972 694.703 562.004 694.463 561.124 693.983C560.26 693.487 559.564 692.759 559.036 691.799C558.524 690.839 558.268 689.639 558.268 688.199C558.268 686.759 558.516 685.559 559.012 684.599C559.524 683.639 560.212 682.919 561.076 682.439C561.956 681.959 562.94 681.719 564.028 681.719C565.276 681.719 566.38 681.991 567.34 682.535C568.3 683.079 569.06 683.839 569.62 684.815C570.18 685.775 570.46 686.903 570.46 688.199C570.46 689.495 570.18 690.631 569.62 691.607C569.06 692.583 568.3 693.343 567.34 693.887C566.38 694.431 565.276 694.703 564.028 694.703ZM557.284 699.215L557.284 681.839L559.492 681.839L559.492 685.271L559.348 688.223L559.588 691.175L559.588 699.215L557.284 699.215ZM563.836 692.687C564.652 692.687 565.38 692.503 566.02 692.135C566.676 691.767 567.188 691.247 567.556 690.575C567.94 689.887 568.132 689.095 568.132 688.199C568.132 687.287 567.94 686.503 567.556 685.847C567.188 685.175 566.676 684.655 566.02 684.287C565.38 683.919 564.652 683.735 563.836 683.735C563.036 683.735 562.308 683.919 561.652 684.287C561.012 684.655 560.5 685.175 560.116 685.847C559.748 686.503 559.564 687.287 559.564 688.199C559.564 689.095 559.748 689.887 560.116 690.575C560.5 691.247 561.012 691.767 561.652 692.135C562.308 692.503 563.036 692.687 563.836 692.687ZM580.387 694.703C579.331 694.703 578.363 694.463 577.483 693.983C576.619 693.487 575.923 692.759 575.395 691.799C574.883 690.839 574.627 689.639 574.627 688.199C574.627 686.759 574.875 685.559 575.371 684.599C575.883 683.639 576.571 682.919 577.435 682.439C578.315 681.959 579.299 681.719 580.387 681.719C581.635 681.719 582.739 681.991 583.699 682.535C584.659 683.079 585.419 683.839 585.979 684.815C586.539 685.775 586.819 686.903 586.819 688.199C586.819 689.495 586.539 690.631 585.979 691.607C585.419 692.583 584.659 693.343 583.699 693.887C582.739 694.431 581.635 694.703 580.387 694.703ZM573.643 699.215L573.643 681.839L575.851 681.839L575.851 685.271L575.707 688.223L575.947 691.175L575.947 699.215L573.643 699.215ZM580.195 692.687C581.011 692.687 581.739 692.503 582.379 692.135C583.035 691.767 583.547 691.247 583.915 690.575C584.299 689.887 584.491 689.095 584.491 688.199C584.491 687.287 584.299 686.503 583.915 685.847C583.547 685.175 583.035 684.655 582.379 684.287C581.739 683.919 581.011 683.735 580.195 683.735C579.395 683.735 578.667 683.919 578.011 684.287C577.371 684.655 576.859 685.175 576.475 685.847C576.107 686.503 575.923 687.287 575.923 688.199C575.923 689.095 576.107 689.887 576.475 690.575C576.859 691.247 577.371 691.767 578.011 692.135C578.667 692.503 579.395 692.687 580.195 692.687ZM590.002 694.559L590.002 676.751L592.306 676.751L592.306 694.559L590.002 694.559ZM596.705 694.559L596.705 681.839L599.009 681.839L599.009 694.559L596.705 694.559ZM597.857 679.391C597.409 679.391 597.033 679.247 596.729 678.959C596.441 678.671 596.297 678.319 596.297 677.903C596.297 677.471 596.441 677.111 596.729 676.823C597.033 676.535 597.409 676.391 597.857 676.391C598.305 676.391 598.673 676.535 598.961 676.823C599.265 677.095 599.417 677.439 599.417 677.855C599.417 678.287 599.273 678.655 598.985 678.959C598.697 679.247 598.321 679.391 597.857 679.391ZM608.953 694.703C607.657 694.703 606.497 694.423 605.473 693.863C604.465 693.303 603.673 692.535 603.097 691.559C602.521 690.583 602.233 689.463 602.233 688.199C602.233 686.935 602.521 685.815 603.097 684.839C603.673 683.863 604.465 683.103 605.473 682.559C606.497 681.999 607.657 681.719 608.953 681.719C610.105 681.719 611.129 681.951 612.025 682.415C612.937 682.863 613.641 683.535 614.137 684.431L612.385 685.559C611.969 684.935 611.457 684.479 610.849 684.191C610.257 683.887 609.617 683.735 608.929 683.735C608.097 683.735 607.353 683.919 606.697 684.287C606.041 684.655 605.521 685.175 605.137 685.847C604.753 686.503 604.561 687.287 604.561 688.199C604.561 689.111 604.753 689.903 605.137 690.575C605.521 691.247 606.041 691.767 606.697 692.135C607.353 692.503 608.097 692.687 608.929 692.687C609.617 692.687 610.257 692.543 610.849 692.255C611.457 691.951 611.969 691.487 612.385 690.863L614.137 691.967C613.641 692.847 612.937 693.527 612.025 694.007C611.129 694.471 610.105 694.703 608.953 694.703ZM625.016 694.559L625.016 691.871L624.896 691.367L624.896 686.783C624.896 685.807 624.608 685.055 624.032 684.527C623.472 683.983 622.624 683.711 621.488 683.711C620.736 683.711 620 683.839 619.28 684.095C618.56 684.335 617.952 684.663 617.456 685.079L616.496 683.351C617.152 682.823 617.936 682.423 618.848 682.151C619.776 681.863 620.744 681.719 621.752 681.719C623.496 681.719 624.84 682.143 625.784 682.991C626.728 683.839 627.2 685.135 627.2 686.879L627.2 694.559L625.016 694.559ZM620.84 694.703C619.896 694.703 619.064 694.543 618.344 694.223C617.64 693.903 617.096 693.463 616.712 692.903C616.328 692.327 616.136 691.679 616.136 690.959C616.136 690.271 616.296 689.647 616.616 689.087C616.952 688.527 617.488 688.079 618.224 687.743C618.976 687.407 619.984 687.239 621.248 687.239L625.28 687.239L625.28 688.895L621.344 688.895C620.192 688.895 619.416 689.087 619.016 689.471C618.616 689.855 618.416 690.319 618.416 690.863C618.416 691.487 618.664 691.991 619.16 692.375C619.656 692.743 620.344 692.927 621.224 692.927C622.088 692.927 622.84 692.735 623.48 692.351C624.136 691.967 624.608 691.407 624.896 690.671L625.352 692.255C625.048 693.007 624.512 693.607 623.744 694.055C622.976 694.487 622.008 694.703 620.84 694.703ZM635.831 694.703C634.551 694.703 633.559 694.359 632.855 693.671C632.151 692.983 631.799 691.999 631.799 690.719L631.799 679.055L634.103 679.055L634.103 690.623C634.103 691.311 634.271 691.839 634.607 692.207C634.959 692.575 635.455 692.759 636.095 692.759C636.815 692.759 637.415 692.559 637.895 692.159L638.615 693.815C638.263 694.119 637.839 694.343 637.343 694.487C636.863 694.631 636.359 694.703 635.831 694.703ZM629.639 683.735L629.639 681.839L637.751 681.839L637.751 683.735L629.639 683.735ZM641.401 694.559L641.401 681.839L643.705 681.839L643.705 694.559L641.401 694.559ZM642.553 679.391C642.105 679.391 641.729 679.247 641.425 678.959C641.137 678.671 640.993 678.319 640.993 677.903C640.993 677.471 641.137 677.111 641.425 676.823C641.729 676.535 642.105 676.391 642.553 676.391C643.001 676.391 643.369 676.535 643.657 676.823C643.961 677.095 644.113 677.439 644.113 677.855C644.113 678.287 643.969 678.655 643.681 678.959C643.393 679.247 643.017 679.391 642.553 679.391ZM653.552 694.703C652.272 694.703 651.136 694.423 650.144 693.863C649.152 693.303 648.368 692.535 647.792 691.559C647.216 690.567 646.928 689.447 646.928 688.199C646.928 686.935 647.216 685.815 647.792 684.839C648.368 683.863 649.152 683.103 650.144 682.559C651.136 681.999 652.272 681.719 653.552 681.719C654.816 681.719 655.944 681.999 656.936 682.559C657.944 683.103 658.728 683.863 659.288 684.839C659.864 685.799 660.152 686.919 660.152 688.199C660.152 689.463 659.864 690.583 659.288 691.559C658.728 692.535 657.944 693.303 656.936 693.863C655.944 694.423 654.816 694.703 653.552 694.703ZM653.552 692.687C654.368 692.687 655.096 692.503 655.736 692.135C656.392 691.767 656.904 691.247 657.272 690.575C657.64 689.887 657.824 689.095 657.824 688.199C657.824 687.287 657.64 686.503 657.272 685.847C656.904 685.175 656.392 684.655 655.736 684.287C655.096 683.919 654.368 683.735 653.552 683.735C652.736 683.735 652.008 683.919 651.368 684.287C650.728 684.655 650.216 685.175 649.832 685.847C649.448 686.503 649.256 687.287 649.256 688.199C649.256 689.095 649.448 689.887 649.832 690.575C650.216 691.247 650.728 691.767 651.368 692.135C652.008 692.503 652.736 692.687 653.552 692.687ZM670.13 681.719C671.17 681.719 672.082 681.919 672.866 682.319C673.666 682.719 674.29 683.327 674.738 684.143C675.186 684.959 675.41 685.991 675.41 687.239L675.41 694.559L673.106 694.559L673.106 687.503C673.106 686.271 672.802 685.343 672.194 684.719C671.602 684.095 670.762 683.783 669.674 683.783C668.858 683.783 668.146 683.943 667.538 684.263C666.93 684.583 666.458 685.055 666.122 685.679C665.802 686.303 665.642 687.079 665.642 688.007L665.642 694.559L663.338 694.559L663.338 681.839L665.546 681.839L665.546 685.271L665.186 684.359C665.602 683.527 666.242 682.879 667.106 682.415C667.97 681.951 668.978 681.719 670.13 681.719ZM564.848 718.751C563.568 718.751 562.344 718.559 561.176 718.175C560.008 717.775 559.088 717.263 558.416 716.639L559.304 714.767C559.944 715.327 560.76 715.791 561.752 716.159C562.744 716.527 563.776 716.711 564.848 716.711C565.824 716.711 566.616 716.599 567.224 716.375C567.832 716.151 568.28 715.847 568.568 715.463C568.856 715.063 569 714.615 569 714.119C569 713.543 568.808 713.079 568.424 712.727C568.056 712.375 567.568 712.095 566.96 711.887C566.368 711.663 565.712 711.471 564.992 711.311C564.272 711.151 563.544 710.967 562.808 710.759C562.088 710.535 561.424 710.255 560.816 709.919C560.224 709.583 559.744 709.135 559.376 708.575C559.008 707.999 558.824 707.263 558.824 706.367C558.824 705.503 559.048 704.711 559.496 703.991C559.96 703.255 560.664 702.671 561.608 702.239C562.568 701.791 563.784 701.567 565.256 701.567C566.232 701.567 567.2 701.695 568.16 701.951C569.12 702.207 569.952 702.575 570.656 703.055L569.864 704.975C569.144 704.495 568.384 704.151 567.584 703.943C566.784 703.719 566.008 703.607 565.256 703.607C564.312 703.607 563.536 703.727 562.928 703.967C562.32 704.207 561.872 704.527 561.584 704.927C561.312 705.327 561.176 705.775 561.176 706.271C561.176 706.863 561.36 707.335 561.728 707.687C562.112 708.039 562.6 708.319 563.192 708.527C563.8 708.735 564.464 708.927 565.184 709.103C565.904 709.263 566.624 709.447 567.344 709.655C568.08 709.863 568.744 710.135 569.336 710.471C569.944 710.807 570.432 711.255 570.8 711.815C571.168 712.375 571.352 713.095 571.352 713.975C571.352 714.823 571.12 715.615 570.656 716.351C570.192 717.071 569.472 717.655 568.496 718.103C567.536 718.535 566.32 718.751 564.848 718.751ZM580.186 718.703C578.826 718.703 577.626 718.423 576.586 717.863C575.562 717.303 574.762 716.535 574.186 715.559C573.626 714.583 573.346 713.463 573.346 712.199C573.346 710.935 573.618 709.815 574.162 708.839C574.722 707.863 575.482 707.103 576.442 706.559C577.418 705.999 578.514 705.719 579.73 705.719C580.962 705.719 582.05 705.991 582.994 706.535C583.938 707.079 584.674 707.847 585.202 708.839C585.746 709.815 586.018 710.959 586.018 712.271C586.018 712.367 586.01 712.479 585.994 712.607C585.994 712.735 585.986 712.855 585.97 712.967L575.146 712.967L575.146 711.311L584.77 711.311L583.834 711.887C583.85 711.071 583.682 710.343 583.33 709.703C582.978 709.063 582.49 708.567 581.866 708.215C581.258 707.847 580.546 707.663 579.73 707.663C578.93 707.663 578.218 707.847 577.594 708.215C576.97 708.567 576.482 709.071 576.13 709.727C575.778 710.367 575.602 711.103 575.602 711.935L575.602 712.319C575.602 713.167 575.794 713.927 576.178 714.599C576.578 715.255 577.13 715.767 577.834 716.135C578.538 716.503 579.346 716.687 580.258 716.687C581.01 716.687 581.69 716.559 582.298 716.303C582.922 716.047 583.466 715.663 583.93 715.151L585.202 716.639C584.626 717.311 583.906 717.823 583.042 718.175C582.194 718.527 581.242 718.703 580.186 718.703ZM589.217 718.559L589.217 705.839L591.425 705.839L591.425 709.295L591.209 708.431C591.561 707.551 592.153 706.879 592.985 706.415C593.817 705.951 594.841 705.719 596.057 705.719L596.057 707.951C595.961 707.935 595.865 707.927 595.769 707.927C595.689 707.927 595.609 707.927 595.529 707.927C594.297 707.927 593.321 708.295 592.601 709.031C591.881 709.767 591.521 710.831 591.521 712.223L591.521 718.559L589.217 718.559ZM602.749 718.559L597.181 705.839L599.581 705.839L604.525 717.359L603.373 717.359L608.413 705.839L610.669 705.839L605.101 718.559L602.749 718.559ZM612.819 718.559L612.819 705.839L615.123 705.839L615.123 718.559L612.819 718.559ZM613.971 703.391C613.523 703.391 613.147 703.247 612.843 702.959C612.555 702.671 612.411 702.319 612.411 701.903C612.411 701.471 612.555 701.111 612.843 700.823C613.147 700.535 613.523 700.391 613.971 700.391C614.419 700.391 614.787 700.535 615.075 700.823C615.379 701.095 615.531 701.439 615.531 701.855C615.531 702.287 615.387 702.655 615.099 702.959C614.811 703.247 614.435 703.391 613.971 703.391ZM625.066 718.703C623.77 718.703 622.61 718.423 621.586 717.863C620.578 717.303 619.786 716.535 619.21 715.559C618.634 714.583 618.346 713.463 618.346 712.199C618.346 710.935 618.634 709.815 619.21 708.839C619.786 707.863 620.578 707.103 621.586 706.559C622.61 705.999 623.77 705.719 625.066 705.719C626.218 705.719 627.242 705.951 628.138 706.415C629.05 706.863 629.754 707.535 630.25 708.431L628.498 709.559C628.082 708.935 627.57 708.479 626.962 708.191C626.37 707.887 625.73 707.735 625.042 707.735C624.21 707.735 623.466 707.919 622.81 708.287C622.154 708.655 621.634 709.175 621.25 709.847C620.866 710.503 620.674 711.287 620.674 712.199C620.674 713.111 620.866 713.903 621.25 714.575C621.634 715.247 622.154 715.767 622.81 716.135C623.466 716.503 624.21 716.687 625.042 716.687C625.73 716.687 626.37 716.543 626.962 716.255C627.57 715.951 628.082 715.487 628.498 714.863L630.25 715.967C629.754 716.847 629.05 717.527 628.138 718.007C627.242 718.471 626.218 718.703 625.066 718.703ZM638.709 718.703C637.349 718.703 636.149 718.423 635.109 717.863C634.085 717.303 633.285 716.535 632.709 715.559C632.149 714.583 631.869 713.463 631.869 712.199C631.869 710.935 632.141 709.815 632.685 708.839C633.245 707.863 634.005 707.103 634.965 706.559C635.941 705.999 637.037 705.719 638.253 705.719C639.485 705.719 640.573 705.991 641.517 706.535C642.461 707.079 643.197 707.847 643.725 708.839C644.269 709.815 644.541 710.959 644.541 712.271C644.541 712.367 644.533 712.479 644.517 712.607C644.517 712.735 644.509 712.855 644.493 712.967L633.669 712.967L633.669 711.311L643.293 711.311L642.357 711.887C642.373 711.071 642.205 710.343 641.853 709.703C641.501 709.063 641.013 708.567 640.389 708.215C639.781 707.847 639.069 707.663 638.253 707.663C637.453 707.663 636.741 707.847 636.117 708.215C635.493 708.567 635.005 709.071 634.653 709.727C634.301 710.367 634.125 711.103 634.125 711.935L634.125 712.319C634.125 713.167 634.317 713.927 634.701 714.599C635.101 715.255 635.653 715.767 636.357 716.135C637.061 716.503 637.869 716.687 638.781 716.687C639.533 716.687 640.213 716.559 640.821 716.303C641.445 716.047 641.989 715.663 642.453 715.151L643.725 716.639C643.149 717.311 642.429 717.823 641.565 718.175C640.717 718.527 639.765 718.703 638.709 718.703ZM651.389 718.703C650.333 718.703 649.325 718.559 648.365 718.271C647.421 717.983 646.677 717.631 646.133 717.215L647.093 715.391C647.637 715.759 648.309 716.071 649.109 716.327C649.909 716.583 650.725 716.711 651.557 716.711C652.629 716.711 653.397 716.559 653.861 716.255C654.341 715.951 654.581 715.527 654.581 714.983C654.581 714.583 654.437 714.271 654.149 714.047C653.861 713.823 653.477 713.655 652.997 713.543C652.533 713.431 652.013 713.335 651.437 713.255C650.861 713.159 650.285 713.047 649.709 712.919C649.133 712.775 648.605 712.583 648.125 712.343C647.645 712.087 647.261 711.743 646.973 711.311C646.685 710.863 646.541 710.271 646.541 709.535C646.541 708.767 646.757 708.095 647.189 707.519C647.621 706.943 648.229 706.503 649.013 706.199C649.813 705.879 650.757 705.719 651.845 705.719C652.677 705.719 653.517 705.823 654.365 706.031C655.229 706.223 655.933 706.503 656.477 706.871L655.493 708.695C654.917 708.311 654.317 708.047 653.693 707.903C653.069 707.759 652.445 707.687 651.821 707.687C650.813 707.687 650.061 707.855 649.565 708.191C649.069 708.511 648.821 708.927 648.821 709.439C648.821 709.871 648.965 710.207 649.253 710.447C649.557 710.671 649.941 710.847 650.405 710.975C650.885 711.103 651.413 711.215 651.989 711.311C652.565 711.391 653.141 711.503 653.717 711.647C654.293 711.775 654.813 711.959 655.277 712.199C655.757 712.439 656.141 712.775 656.429 713.207C656.733 713.639 656.885 714.215 656.885 714.935C656.885 715.703 656.661 716.367 656.213 716.927C655.765 717.487 655.133 717.927 654.317 718.247C653.501 718.551 652.525 718.703 651.389 718.703Z" fill="#FEFBF5"/>
</g>
<defs>
<filter id="filter0_d_388_1231" x="-24" y="-23.9629" width="1026.07" height="1026.07" filterUnits="userSpaceOnUse" color-interpolation-filters="sRGB">
<feFlood flood-opacity="0" result="BackgroundImageFix"/>
<feColorMatrix in="SourceAlpha" type="matrix" values="0 0 0 0 0 0 0 0 0 0 0 0 0 0 0 0 0 0 127 0" result="hardAlpha"/>
<feOffset/>
<feGaussianBlur stdDeviation="12"/>
<feComposite in2="hardAlpha" operator="out"/>
<feColorMatrix type="matrix" values="0 0 0 0 0.94902 0 0 0 0 0.639216 0 0 0 0 0.156863 0 0 0 0.2 0"/>
<feBlend mode="normal" in2="BackgroundImageFix" result="effect1_dropShadow_388_1231"/>
<feBlend mode="normal" in="SourceGraphic" in2="effect1_dropShadow_388_1231" result="shape"/>
</filter>
<filter id="filter1_ii_388_1231" x="489.037" y="494.032" width="312.322" height="361.248" filterUnits="userSpaceOnUse" color-interpolation-filters="sRGB">
<feFlood flood-opacity="0" result="BackgroundImageFix"/>
<feBlend mode="normal" in="SourceGraphic" in2="BackgroundImageFix" result="shape"/>
<feColorMatrix in="SourceAlpha" type="matrix" values="0 0 0 0 0 0 0 0 0 0 0 0 0 0 0 0 0 0 127 0" result="hardAlpha"/>
<feMorphology radius="8.59104" operator="erode" in="SourceAlpha" result="effect1_innerShadow_388_1231"/>
<feOffset/>
<feGaussianBlur stdDeviation="28.6368"/>
<feComposite in2="hardAlpha" operator="arithmetic" k2="-1" k3="1"/>
<feColorMatrix type="matrix" values="0 0 0 0 0 0 0 0 0 0 0 0 0 0 0 0 0 0 0.25 0"/>
<feBlend mode="normal" in2="shape" result="effect1_innerShadow_388_1231"/>
<feColorMatrix in="SourceAlpha" type="matrix" values="0 0 0 0 0 0 0 0 0 0 0 0 0 0 0 0 0 0 127 0" result="hardAlpha"/>
<feOffset dx="8.59104" dy="8.59104"/>
<feGaussianBlur stdDeviation="21.4776"/>
<feComposite in2="hardAlpha" operator="arithmetic" k2="-1" k3="1"/>
<feColorMatrix type="matrix" values="0 0 0 0 0 0 0 0 0 0 0 0 0 0 0 0 0 0 0.25 0"/>
<feBlend mode="normal" in2="effect1_innerShadow_388_1231" result="effect2_innerShadow_388_1231"/>
</filter>
</defs>
</svg>
