<svg width="148" height="148" viewBox="0 0 148 148" fill="none" xmlns="http://www.w3.org/2000/svg">
<g filter="url(#filter0_d_5_2834)">
<rect x="24" y="24" width="100" height="100" rx="50" fill="#FEFBF5" shape-rendering="crispEdges"/>
<rect x="25" y="25" width="98" height="98" rx="49" stroke="#F19F1F" stroke-width="2" shape-rendering="crispEdges"/>
<path d="M74 47.5C88.628 47.5 100.5 59.372 100.5 74C100.5 88.628 88.628 100.5 74 100.5C59.372 100.5 47.5 88.628 47.5 74C47.5 59.372 59.372 47.5 74 47.5ZM74 95.2C85.7316 95.2 95.2 85.7316 95.2 74C95.2 62.2685 85.7316 52.8 74 52.8C71.215 52.7965 68.4567 53.3425 65.883 54.4067C63.3093 55.4708 60.9709 57.0323 59.0016 59.0016C57.0323 60.9709 55.4708 63.3093 54.4067 65.883C53.3425 68.4567 52.7965 71.215 52.8 74C52.8 85.7316 62.2685 95.2 74 95.2ZM74 89.9C65.202 89.9 58.1 82.798 58.1 74C58.1 65.202 65.202 58.1 74 58.1C82.798 58.1 89.9 65.202 89.9 74C89.9 82.798 82.798 89.9 74 89.9ZM74 68.7C71.085 68.7 68.7 71.085 68.7 74C68.7 76.915 71.085 79.3 74 79.3C76.915 79.3 79.3 76.915 79.3 74C79.3 71.085 76.915 68.7 74 68.7Z" fill="#F19F1F"/>
</g>
<defs>
<filter id="filter0_d_5_2834" x="0" y="0" width="148" height="148" filterUnits="userSpaceOnUse" color-interpolation-filters="sRGB">
<feFlood flood-opacity="0" result="BackgroundImageFix"/>
<feColorMatrix in="SourceAlpha" type="matrix" values="0 0 0 0 0 0 0 0 0 0 0 0 0 0 0 0 0 0 127 0" result="hardAlpha"/>
<feOffset/>
<feGaussianBlur stdDeviation="12"/>
<feComposite in2="hardAlpha" operator="out"/>
<feColorMatrix type="matrix" values="0 0 0 0 0.94902 0 0 0 0 0.639216 0 0 0 0 0.156863 0 0 0 0.2 0"/>
<feBlend mode="normal" in2="BackgroundImageFix" result="effect1_dropShadow_5_2834"/>
<feBlend mode="normal" in="SourceGraphic" in2="effect1_dropShadow_5_2834" result="shape"/>
</filter>
</defs>
</svg>
