<svg width="148" height="148" viewBox="0 0 148 148" fill="none" xmlns="http://www.w3.org/2000/svg">
<g filter="url(#filter0_d_5_2846)">
<rect x="24" y="24" width="100" height="100" rx="50" fill="#FEFBF5" shape-rendering="crispEdges"/>
<rect x="25" y="25" width="98" height="98" rx="49" stroke="#F19F1F" stroke-width="2" shape-rendering="crispEdges"/>
<path d="M56.4004 86.3999V84.3999H52.4004V86.3999C52.4004 90.1129 53.8754 93.6739 56.5009 96.2994C59.1264 98.9249 62.6874 100.4 66.4004 100.4H72.4004V96.3999H66.4004C63.7482 96.3999 61.2047 95.3463 59.3293 93.471C57.454 91.5956 56.4004 89.0521 56.4004 86.3999ZM92.4004 66.3999V68.3999H96.4004V66.3999C96.4004 62.6869 94.9254 59.1259 92.2999 56.5004C89.6744 53.8749 86.1134 52.3999 82.4004 52.3999H76.4004V56.3999H82.4004C83.7136 56.3999 85.014 56.6586 86.2272 57.1611C87.4405 57.6637 88.5429 58.4003 89.4715 59.3288C90.4 60.2574 91.1366 61.3598 91.6392 62.5731C92.1417 63.7863 92.4004 65.0867 92.4004 66.3999ZM66.4004 66.3999H54.4004C52.8091 66.3999 51.283 67.032 50.1578 68.1573C49.0325 69.2825 48.4004 70.8086 48.4004 72.3999V76.3999H52.4004V72.3999C52.4004 71.8695 52.6111 71.3608 52.9862 70.9857C53.3613 70.6106 53.87 70.3999 54.4004 70.3999H66.4004C66.9308 70.3999 67.4395 70.6106 67.8146 70.9857C68.1897 71.3608 68.4004 71.8695 68.4004 72.3999V76.3999H72.4004V72.3999C72.4004 70.8086 71.7682 69.2825 70.643 68.1573C69.5178 67.032 67.9917 66.3999 66.4004 66.3999ZM60.4004 64.3999C61.9826 64.3999 63.5294 63.9307 64.845 63.0517C66.1605 62.1726 67.1859 60.9232 67.7914 59.4614C68.3969 57.9996 68.5554 56.391 68.2467 54.8392C67.938 53.2873 67.1761 51.8619 66.0572 50.7431C64.9384 49.6242 63.513 48.8623 61.9611 48.5536C60.4093 48.2449 58.8007 48.4034 57.3389 49.0089C55.8771 49.6144 54.6277 50.6398 53.7486 51.9553C52.8696 53.2709 52.4004 54.8177 52.4004 56.3999C52.4004 58.5216 53.2432 60.5565 54.7435 62.0568C56.2438 63.5571 58.2787 64.3999 60.4004 64.3999ZM60.4004 52.3999C61.1915 52.3999 61.9649 52.6345 62.6227 53.074C63.2805 53.5136 63.7932 54.1383 64.0959 54.8692C64.3987 55.6001 64.4779 56.4043 64.3235 57.1803C64.1692 57.9562 63.7882 58.6689 63.2288 59.2283C62.6694 59.7877 61.9567 60.1687 61.1808 60.323C60.4048 60.4774 59.6006 60.3982 58.8697 60.0954C58.1388 59.7927 57.514 59.28 57.0745 58.6222C56.635 57.9644 56.4004 57.191 56.4004 56.3999C56.4004 55.339 56.8218 54.3216 57.572 53.5715C58.3221 52.8213 59.3395 52.3999 60.4004 52.3999ZM98.4004 94.3999H86.4004C84.8091 94.3999 83.283 95.0321 82.1577 96.1573C81.0325 97.2825 80.4004 98.8086 80.4004 100.4V104.4H84.4004V100.4C84.4004 99.8695 84.6111 99.3608 84.9862 98.9857C85.3612 98.6106 85.87 98.3999 86.4004 98.3999H98.4004C98.9308 98.3999 99.4395 98.6106 99.8146 98.9857C100.19 99.3608 100.4 99.8695 100.4 100.4V104.4H104.4V100.4C104.4 98.8086 103.768 97.2825 102.643 96.1573C101.518 95.0321 99.9917 94.3999 98.4004 94.3999ZM84.4004 84.3999C84.4004 85.9822 84.8696 87.5289 85.7486 88.8445C86.6277 90.1601 87.8771 91.1854 89.3389 91.7909C90.8007 92.3965 92.4093 92.5549 93.9611 92.2462C95.513 91.9375 96.9384 91.1756 98.0572 90.0568C99.1761 88.9379 99.938 87.5125 100.247 85.9606C100.555 84.4088 100.397 82.8003 99.7914 81.3384C99.1859 79.8766 98.1605 78.6272 96.845 77.7482C95.5294 76.8691 93.9826 76.3999 92.4004 76.3999C90.2787 76.3999 88.2438 77.2428 86.7435 78.7431C85.2432 80.2433 84.4004 82.2782 84.4004 84.3999ZM96.4004 84.3999C96.4004 85.191 96.1658 85.9644 95.7263 86.6222C95.2867 87.28 94.662 87.7927 93.9311 88.0954C93.2002 88.3982 92.396 88.4774 91.62 88.3231C90.8441 88.1687 90.1314 87.7877 89.572 87.2283C89.0126 86.6689 88.6316 85.9562 88.4772 85.1803C88.3229 84.4043 88.4021 83.6001 88.7049 82.8692C89.0076 82.1383 89.5203 81.5136 90.1781 81.074C90.8359 80.6345 91.6093 80.3999 92.4004 80.3999C93.4613 80.3999 94.4787 80.8213 95.2288 81.5715C95.979 82.3216 96.4004 83.339 96.4004 84.3999Z" fill="#F19F1F"/>
</g>
<defs>
<filter id="filter0_d_5_2846" x="0" y="0" width="148" height="148" filterUnits="userSpaceOnUse" color-interpolation-filters="sRGB">
<feFlood flood-opacity="0" result="BackgroundImageFix"/>
<feColorMatrix in="SourceAlpha" type="matrix" values="0 0 0 0 0 0 0 0 0 0 0 0 0 0 0 0 0 0 127 0" result="hardAlpha"/>
<feOffset/>
<feGaussianBlur stdDeviation="12"/>
<feComposite in2="hardAlpha" operator="out"/>
<feColorMatrix type="matrix" values="0 0 0 0 0.94902 0 0 0 0 0.639216 0 0 0 0 0.156863 0 0 0 0.2 0"/>
<feBlend mode="normal" in2="BackgroundImageFix" result="effect1_dropShadow_5_2846"/>
<feBlend mode="normal" in="SourceGraphic" in2="effect1_dropShadow_5_2846" result="shape"/>
</filter>
</defs>
</svg>
