<svg width="148" height="148" viewBox="0 0 148 148" fill="none" xmlns="http://www.w3.org/2000/svg">
<g filter="url(#filter0_d_5_2840)">
<rect x="24" y="24" width="100" height="100" rx="50" fill="#FEFBF5" shape-rendering="crispEdges"/>
<rect x="25" y="25" width="98" height="98" rx="49" stroke="#F19F1F" stroke-width="2" shape-rendering="crispEdges"/>
<path d="M85.925 56.1047C87.3307 56.1047 88.6787 55.546 89.6727 54.5516C90.6666 53.5573 91.225 52.2086 91.225 50.8023C91.225 49.3961 90.6666 48.0474 89.6727 47.053C88.6787 46.0586 87.3307 45.5 85.925 45.5C84.5194 45.5 83.1713 46.0586 82.1773 47.053C81.1834 48.0474 80.625 49.3961 80.625 50.8023C80.625 52.2086 81.1834 53.5573 82.1773 54.5516C83.1713 55.546 84.5194 56.1047 85.925 56.1047ZM76.385 92.9558L79.035 81.2907L84.6 86.593V102.5H89.9V82.6163L84.335 77.314L85.925 69.3605C87.7406 71.4422 89.9807 73.1109 92.4948 74.2541C95.0088 75.3974 97.7384 75.9887 100.5 75.9884V70.686C95.836 70.7656 91.49 68.3265 89.105 64.3233L86.455 60.0814C85.501 58.4907 83.805 57.4302 81.95 57.4302C81.155 57.4302 80.625 57.6953 79.83 57.6953L66.05 63.5279V75.9884H71.35V66.9744L76.12 65.1186L71.88 86.593L58.895 83.9419L57.835 89.2442L76.385 92.9558ZM52.8 65.3837C52.0972 65.3837 51.4231 65.1044 50.9262 64.6072C50.4292 64.11 50.15 63.4357 50.15 62.7326C50.15 62.0294 50.4292 61.3551 50.9262 60.8579C51.4231 60.3607 52.0972 60.0814 52.8 60.0814H60.75V65.3837H52.8ZM55.45 54.7791C54.7472 54.7791 54.0731 54.4998 53.5762 54.0026C53.0792 53.5054 52.8 52.831 52.8 52.1279C52.8 51.4248 53.0792 50.7504 53.5762 50.2533C54.0731 49.7561 54.7472 49.4767 55.45 49.4767H68.7V54.7791H55.45ZM50.15 75.9884C49.4472 75.9884 48.7731 75.7091 48.2762 75.2119C47.7792 74.7147 47.5 74.0403 47.5 73.3372C47.5 72.6341 47.7792 71.9597 48.2762 71.4626C48.7731 70.9654 49.4472 70.686 50.15 70.686H60.75V75.9884H50.15Z" fill="#F19F1F"/>
</g>
<defs>
<filter id="filter0_d_5_2840" x="0" y="0" width="148" height="148" filterUnits="userSpaceOnUse" color-interpolation-filters="sRGB">
<feFlood flood-opacity="0" result="BackgroundImageFix"/>
<feColorMatrix in="SourceAlpha" type="matrix" values="0 0 0 0 0 0 0 0 0 0 0 0 0 0 0 0 0 0 127 0" result="hardAlpha"/>
<feOffset/>
<feGaussianBlur stdDeviation="12"/>
<feComposite in2="hardAlpha" operator="out"/>
<feColorMatrix type="matrix" values="0 0 0 0 0.94902 0 0 0 0 0.639216 0 0 0 0 0.156863 0 0 0 0.2 0"/>
<feBlend mode="normal" in2="BackgroundImageFix" result="effect1_dropShadow_5_2840"/>
<feBlend mode="normal" in="SourceGraphic" in2="effect1_dropShadow_5_2840" result="shape"/>
</filter>
</defs>
</svg>
