<svg width="100" height="100" viewBox="0 0 100 100" fill="none" xmlns="http://www.w3.org/2000/svg">
<rect x="1" y="1" width="98" height="98" rx="49" fill="#FEFBF5"/>
<rect x="1" y="1" width="98" height="98" rx="49" stroke="#F19F1F" stroke-width="2"/>
<path fill-rule="evenodd" clip-rule="evenodd" d="M65.0789 19.0809C65.317 18.6961 65.6631 18.3909 66.0734 18.204C66.4837 18.0171 66.9398 17.9568 67.3841 18.0307L79.0969 19.9981C79.6924 20.0981 80.2242 20.432 80.5753 20.9264C80.9264 21.4209 81.0681 22.0354 80.9693 22.635L79.0194 34.43C78.945 34.8772 78.7406 35.292 78.4321 35.6222C78.1235 35.9525 77.7246 36.1832 77.2858 36.2853C76.847 36.3874 76.388 36.3562 75.9668 36.1958C75.5456 36.0353 75.1811 35.7528 74.9193 35.3839L71.7576 30.9356L55.4755 41.4098C54.7812 41.8571 53.9496 42.0366 53.1341 41.9152C52.3187 41.7939 51.5743 41.3798 51.0382 40.7495L41.9587 30.0642L24.9795 38.8463C24.1736 39.2635 23.2361 39.3413 22.3732 39.0627C21.5103 38.784 20.7927 38.1717 20.3782 37.3605C19.9638 36.5492 19.8865 35.6055 20.1633 34.7368C20.4401 33.8682 21.0484 33.1458 21.8543 32.7287L41.2389 22.6992C41.9232 22.3453 42.7062 22.2342 43.4611 22.3841C44.216 22.5339 44.8985 22.9358 45.3982 23.5247L54.3001 34.0035L67.785 25.3269L65.1564 21.6261C64.8951 21.257 64.7482 20.8183 64.7344 20.3653C64.7206 19.9123 64.8405 19.4654 65.0789 19.0809ZM35.2572 41.5979L22.0365 49.2105C21.5142 49.5108 21.08 49.9446 20.7776 50.468C20.4752 50.9914 20.3155 51.5859 20.3145 52.1914V78.5605C20.3145 80.4591 21.8452 82 23.7313 82H35.2572V41.5979ZM40.9519 82H57.6622V50.7606L50.1499 54.5394L42.642 41.3135C42.2629 40.6409 41.6688 40.1172 40.9564 39.8277L40.9519 82ZM76.122 82H63.3569V47.8944L74.5958 42.2353C75.1168 41.9735 75.6955 41.8501 76.2771 41.8767C76.8587 41.9033 77.424 42.0791 77.9192 42.3873C78.4143 42.6956 78.8231 43.1261 79.1065 43.6381C79.39 44.15 79.5388 44.7264 79.5388 45.3125V78.5605C79.5388 79.4727 79.1788 80.3476 78.538 80.9926C77.8973 81.6376 77.0282 82 76.122 82Z" fill="#F19F1F"/>
</svg>
