<svg width="979" height="980" viewBox="0 0 979 980" fill="none" xmlns="http://www.w3.org/2000/svg">
<g filter="url(#filter0_d_388_1240)">
<mask id="path-1-inside-1_388_1240" fill="white">
<path d="M194.648 660.5C186.517 665.194 176.081 662.426 171.778 654.081C145.652 603.418 131.963 547.167 131.963 490C131.963 432.833 145.652 376.582 171.778 325.919C176.081 317.574 186.517 314.806 194.648 319.5L480.516 484.546C482.309 485.581 482.803 487.93 482.803 490C482.803 492.07 482.309 494.419 480.516 495.454L194.648 660.5Z"/>
</mask>
<g filter="url(#filter1_ii_388_1240)">
<path d="M194.648 660.5C186.517 665.194 176.081 662.426 171.778 654.081C145.652 603.418 131.963 547.167 131.963 490C131.963 432.833 145.652 376.582 171.778 325.919C176.081 317.574 186.517 314.806 194.648 319.5L480.516 484.546C482.309 485.581 482.803 487.93 482.803 490C482.803 492.07 482.309 494.419 480.516 495.454L194.648 660.5Z" fill="#FAB228"/>
</g>
<path d="M194.648 660.5C186.517 665.194 176.081 662.426 171.778 654.081C145.652 603.418 131.963 547.167 131.963 490C131.963 432.833 145.652 376.582 171.778 325.919C176.081 317.574 186.517 314.806 194.648 319.5L480.516 484.546C482.309 485.581 482.803 487.93 482.803 490C482.803 492.07 482.309 494.419 480.516 495.454L194.648 660.5Z" stroke="white" stroke-width="12" mask="url(#path-1-inside-1_388_1240)"/>
<path d="M175.932 466.697L175.932 449.897L182.484 449.897C183.956 449.897 185.212 450.129 186.252 450.593C187.292 451.057 188.092 451.729 188.652 452.609C189.212 453.489 189.492 454.537 189.492 455.753C189.492 456.969 189.212 458.017 188.652 458.897C188.092 459.761 187.292 460.433 186.252 460.913C185.212 461.377 183.956 461.609 182.484 461.609L177.252 461.609L178.332 460.481L178.332 466.697L175.932 466.697ZM178.332 460.721L177.252 459.521L182.412 459.521C183.948 459.521 185.108 459.193 185.892 458.537C186.692 457.881 187.092 456.953 187.092 455.753C187.092 454.553 186.692 453.625 185.892 452.969C185.108 452.313 183.948 451.985 182.412 451.985L177.252 451.985L178.332 450.785L178.332 460.721ZM192.916 466.697L192.916 448.889L195.22 448.889L195.22 466.697L192.916 466.697ZM207.516 466.697L207.516 464.009L207.396 463.505L207.396 458.921C207.396 457.945 207.108 457.193 206.532 456.665C205.972 456.121 205.124 455.849 203.988 455.849C203.236 455.849 202.5 455.977 201.78 456.233C201.06 456.473 200.452 456.801 199.956 457.217L198.996 455.489C199.652 454.961 200.436 454.561 201.348 454.289C202.276 454.001 203.244 453.857 204.252 453.857C205.996 453.857 207.34 454.281 208.284 455.129C209.228 455.977 209.7 457.273 209.7 459.017L209.7 466.697L207.516 466.697ZM203.34 466.841C202.396 466.841 201.564 466.681 200.844 466.361C200.14 466.041 199.596 465.601 199.212 465.041C198.828 464.465 198.636 463.817 198.636 463.097C198.636 462.409 198.796 461.785 199.116 461.225C199.452 460.665 199.988 460.217 200.724 459.881C201.476 459.545 202.484 459.377 203.748 459.377L207.78 459.377L207.78 461.033L203.844 461.033C202.692 461.033 201.916 461.225 201.516 461.609C201.116 461.993 200.916 462.457 200.916 463.001C200.916 463.625 201.164 464.129 201.66 464.513C202.156 464.881 202.844 465.065 203.724 465.065C204.588 465.065 205.34 464.873 205.98 464.489C206.636 464.105 207.108 463.545 207.396 462.809L207.852 464.393C207.548 465.145 207.012 465.745 206.244 466.193C205.476 466.625 204.508 466.841 203.34 466.841ZM218.331 466.841C217.051 466.841 216.059 466.497 215.355 465.809C214.651 465.121 214.299 464.137 214.299 462.857L214.299 451.193L216.603 451.193L216.603 462.761C216.603 463.449 216.771 463.977 217.107 464.345C217.459 464.713 217.955 464.897 218.595 464.897C219.315 464.897 219.915 464.697 220.395 464.297L221.115 465.953C220.763 466.257 220.339 466.481 219.843 466.625C219.363 466.769 218.859 466.841 218.331 466.841ZM212.139 455.873L212.139 453.977L220.251 453.977L220.251 455.873L212.139 455.873ZM224.237 466.697L224.237 452.849C224.237 451.601 224.597 450.609 225.317 449.873C226.053 449.121 227.093 448.745 228.437 448.745C228.933 448.745 229.405 448.809 229.853 448.937C230.317 449.049 230.709 449.233 231.029 449.489L230.333 451.241C230.093 451.049 229.821 450.905 229.517 450.809C229.213 450.697 228.893 450.641 228.557 450.641C227.885 450.641 227.373 450.833 227.021 451.217C226.669 451.585 226.493 452.137 226.493 452.873L226.493 454.577L226.541 455.633L226.541 466.697L224.237 466.697ZM222.077 455.873L222.077 453.977L230.189 453.977L230.189 455.873L222.077 455.873ZM237.622 466.841C236.342 466.841 235.206 466.561 234.214 466.001C233.222 465.441 232.438 464.673 231.862 463.697C231.286 462.705 230.998 461.585 230.998 460.337C230.998 459.073 231.286 457.953 231.862 456.977C232.438 456.001 233.222 455.241 234.214 454.697C235.206 454.137 236.342 453.857 237.622 453.857C238.886 453.857 240.014 454.137 241.006 454.697C242.014 455.241 242.798 456.001 243.358 456.977C243.934 457.937 244.222 459.057 244.222 460.337C244.222 461.601 243.934 462.721 243.358 463.697C242.798 464.673 242.014 465.441 241.006 466.001C240.014 466.561 238.886 466.841 237.622 466.841ZM237.622 464.825C238.438 464.825 239.166 464.641 239.806 464.273C240.462 463.905 240.974 463.385 241.342 462.713C241.71 462.025 241.894 461.233 241.894 460.337C241.894 459.425 241.71 458.641 241.342 457.985C240.974 457.313 240.462 456.793 239.806 456.425C239.166 456.057 238.438 455.873 237.622 455.873C236.806 455.873 236.078 456.057 235.438 456.425C234.798 456.793 234.286 457.313 233.902 457.985C233.518 458.641 233.326 459.425 233.326 460.337C233.326 461.233 233.518 462.025 233.902 462.713C234.286 463.385 234.798 463.905 235.438 464.273C236.078 464.641 236.806 464.825 237.622 464.825ZM247.409 466.697L247.409 453.977L249.617 453.977L249.617 457.433L249.401 456.569C249.753 455.689 250.345 455.017 251.177 454.553C252.009 454.089 253.033 453.857 254.249 453.857L254.249 456.089C254.153 456.073 254.057 456.065 253.961 456.065C253.881 456.065 253.801 456.065 253.721 456.065C252.489 456.065 251.513 456.433 250.793 457.169C250.073 457.905 249.713 458.969 249.713 460.361L249.713 466.697L247.409 466.697ZM273 453.857C274.024 453.857 274.928 454.057 275.712 454.457C276.496 454.857 277.104 455.465 277.536 456.281C277.984 457.097 278.208 458.129 278.208 459.377L278.208 466.697L275.904 466.697L275.904 459.641C275.904 458.409 275.616 457.481 275.04 456.857C274.464 456.233 273.656 455.921 272.616 455.921C271.848 455.921 271.176 456.081 270.6 456.401C270.024 456.721 269.576 457.193 269.256 457.817C268.952 458.441 268.8 459.217 268.8 460.145L268.8 466.697L266.496 466.697L266.496 459.641C266.496 458.409 266.208 457.481 265.632 456.857C265.072 456.233 264.264 455.921 263.208 455.921C262.456 455.921 261.792 456.081 261.216 456.401C260.64 456.721 260.192 457.193 259.872 457.817C259.552 458.441 259.392 459.217 259.392 460.145L259.392 466.697L257.088 466.697L257.088 453.977L259.296 453.977L259.296 457.361L258.936 456.497C259.336 455.665 259.952 455.017 260.784 454.553C261.616 454.089 262.584 453.857 263.688 453.857C264.904 453.857 265.952 454.161 266.832 454.769C267.712 455.361 268.288 456.265 268.56 457.481L267.624 457.097C268.008 456.121 268.68 455.337 269.64 454.745C270.6 454.153 271.72 453.857 273 453.857ZM286.685 466.697L294.293 449.897L296.669 449.897L304.301 466.697L301.781 466.697L294.989 451.241L295.949 451.241L289.157 466.697L286.685 466.697ZM289.925 462.497L290.573 460.577L300.029 460.577L300.725 462.497L289.925 462.497ZM313.263 453.857C314.303 453.857 315.215 454.057 315.999 454.457C316.799 454.857 317.423 455.465 317.871 456.281C318.319 457.097 318.543 458.129 318.543 459.377L318.543 466.697L316.239 466.697L316.239 459.641C316.239 458.409 315.935 457.481 315.327 456.857C314.735 456.233 313.895 455.921 312.807 455.921C311.991 455.921 311.279 456.081 310.671 456.401C310.063 456.721 309.591 457.193 309.255 457.817C308.935 458.441 308.775 459.217 308.775 460.145L308.775 466.697L306.471 466.697L306.471 453.977L308.679 453.977L308.679 457.409L308.319 456.497C308.735 455.665 309.375 455.017 310.239 454.553C311.103 454.089 312.111 453.857 313.263 453.857ZM328.063 466.841C326.831 466.841 325.727 466.569 324.751 466.025C323.791 465.481 323.031 464.721 322.471 463.745C321.911 462.769 321.631 461.633 321.631 460.337C321.631 459.041 321.911 457.913 322.471 456.953C323.031 455.977 323.791 455.217 324.751 454.673C325.727 454.129 326.831 453.857 328.063 453.857C329.135 453.857 330.103 454.097 330.967 454.577C331.831 455.057 332.519 455.777 333.031 456.737C333.559 457.697 333.823 458.897 333.823 460.337C333.823 461.777 333.567 462.977 333.055 463.937C332.559 464.897 331.879 465.625 331.015 466.121C330.151 466.601 329.167 466.841 328.063 466.841ZM328.255 464.825C329.055 464.825 329.775 464.641 330.415 464.273C331.071 463.905 331.583 463.385 331.951 462.713C332.335 462.025 332.527 461.233 332.527 460.337C332.527 459.425 332.335 458.641 331.951 457.985C331.583 457.313 331.071 456.793 330.415 456.425C329.775 456.057 329.055 455.873 328.255 455.873C327.439 455.873 326.711 456.057 326.071 456.425C325.431 456.793 324.919 457.313 324.535 457.985C324.151 458.641 323.959 459.425 323.959 460.337C323.959 461.233 324.151 462.025 324.535 462.713C324.919 463.385 325.431 463.905 326.071 464.273C326.711 464.641 327.439 464.825 328.255 464.825ZM332.599 466.697L332.599 463.265L332.743 460.313L332.503 457.361L332.503 448.889L334.807 448.889L334.807 466.697L332.599 466.697ZM204.047 490.889C202.767 490.889 201.575 490.673 200.471 490.241C199.383 489.809 198.439 489.209 197.639 488.441C196.839 487.657 196.215 486.745 195.767 485.705C195.319 484.665 195.095 483.529 195.095 482.297C195.095 481.065 195.319 479.929 195.767 478.889C196.215 477.849 196.839 476.945 197.639 476.177C198.439 475.393 199.383 474.785 200.471 474.353C201.559 473.921 202.751 473.705 204.047 473.705C205.327 473.705 206.503 473.921 207.575 474.353C208.663 474.769 209.607 475.369 210.407 476.153C211.223 476.921 211.847 477.825 212.279 478.865C212.727 479.905 212.951 481.049 212.951 482.297C212.951 483.545 212.727 484.689 212.279 485.729C211.847 486.769 211.223 487.681 210.407 488.465C209.607 489.233 208.663 489.833 207.575 490.265C206.503 490.681 205.327 490.889 204.047 490.889ZM204.047 488.753C204.975 488.753 205.831 488.593 206.615 488.273C207.415 487.953 208.103 487.505 208.679 486.929C209.271 486.337 209.727 485.649 210.047 484.865C210.383 484.081 210.551 483.225 210.551 482.297C210.551 481.369 210.383 480.513 210.047 479.729C209.727 478.945 209.271 478.265 208.679 477.689C208.103 477.097 207.415 476.641 206.615 476.321C205.831 476.001 204.975 475.841 204.047 475.841C203.103 475.841 202.231 476.001 201.431 476.321C200.647 476.641 199.959 477.097 199.367 477.689C198.775 478.265 198.311 478.945 197.975 479.729C197.655 480.513 197.495 481.369 197.495 482.297C197.495 483.225 197.655 484.081 197.975 484.865C198.311 485.649 198.775 486.337 199.367 486.929C199.959 487.505 200.647 487.953 201.431 488.273C202.231 488.593 203.103 488.753 204.047 488.753ZM223.028 490.841C221.972 490.841 221.004 490.601 220.124 490.121C219.26 489.625 218.564 488.897 218.036 487.937C217.524 486.977 217.268 485.777 217.268 484.337C217.268 482.897 217.516 481.697 218.012 480.737C218.524 479.777 219.212 479.057 220.076 478.577C220.956 478.097 221.94 477.857 223.028 477.857C224.276 477.857 225.38 478.129 226.34 478.673C227.3 479.217 228.06 479.977 228.62 480.953C229.18 481.913 229.46 483.041 229.46 484.337C229.46 485.633 229.18 486.769 228.62 487.745C228.06 488.721 227.3 489.481 226.34 490.025C225.38 490.569 224.276 490.841 223.028 490.841ZM216.284 495.353L216.284 477.977L218.492 477.977L218.492 481.409L218.348 484.361L218.588 487.313L218.588 495.353L216.284 495.353ZM222.836 488.825C223.652 488.825 224.38 488.641 225.02 488.273C225.676 487.905 226.188 487.385 226.556 486.713C226.94 486.025 227.132 485.233 227.132 484.337C227.132 483.425 226.94 482.641 226.556 481.985C226.188 481.313 225.676 480.793 225.02 480.425C224.38 480.057 223.652 479.873 222.836 479.873C222.036 479.873 221.308 480.057 220.652 480.425C220.012 480.793 219.5 481.313 219.116 481.985C218.748 482.641 218.564 483.425 218.564 484.337C218.564 485.233 218.748 486.025 219.116 486.713C219.5 487.385 220.012 487.905 220.652 488.273C221.308 488.641 222.036 488.825 222.836 488.825ZM238.307 490.841C236.947 490.841 235.747 490.561 234.707 490.001C233.683 489.441 232.883 488.673 232.307 487.697C231.747 486.721 231.467 485.601 231.467 484.337C231.467 483.073 231.739 481.953 232.283 480.977C232.843 480.001 233.603 479.241 234.563 478.697C235.539 478.137 236.635 477.857 237.851 477.857C239.083 477.857 240.171 478.129 241.115 478.673C242.059 479.217 242.795 479.985 243.323 480.977C243.867 481.953 244.139 483.097 244.139 484.409C244.139 484.505 244.131 484.617 244.115 484.745C244.115 484.873 244.107 484.993 244.091 485.105L233.267 485.105L233.267 483.449L242.891 483.449L241.955 484.025C241.971 483.209 241.803 482.481 241.451 481.841C241.099 481.201 240.611 480.705 239.987 480.353C239.379 479.985 238.667 479.801 237.851 479.801C237.051 479.801 236.339 479.985 235.715 480.353C235.091 480.705 234.603 481.209 234.251 481.865C233.899 482.505 233.723 483.241 233.723 484.073L233.723 484.457C233.723 485.305 233.915 486.065 234.299 486.737C234.699 487.393 235.251 487.905 235.955 488.273C236.659 488.641 237.467 488.825 238.379 488.825C239.131 488.825 239.811 488.697 240.419 488.441C241.043 488.185 241.587 487.801 242.051 487.289L243.323 488.777C242.747 489.449 242.027 489.961 241.163 490.313C240.315 490.665 239.363 490.841 238.307 490.841ZM247.338 490.697L247.338 477.977L249.546 477.977L249.546 481.433L249.33 480.569C249.682 479.689 250.274 479.017 251.106 478.553C251.938 478.089 252.962 477.857 254.178 477.857L254.178 480.089C254.082 480.073 253.986 480.065 253.89 480.065C253.81 480.065 253.73 480.065 253.65 480.065C252.418 480.065 251.442 480.433 250.722 481.169C250.002 481.905 249.642 482.969 249.642 484.361L249.642 490.697L247.338 490.697ZM263.976 490.697L263.976 488.009L263.856 487.505L263.856 482.921C263.856 481.945 263.568 481.193 262.992 480.665C262.432 480.121 261.584 479.849 260.448 479.849C259.696 479.849 258.96 479.977 258.24 480.233C257.52 480.473 256.912 480.801 256.416 481.217L255.456 479.489C256.112 478.961 256.896 478.561 257.808 478.289C258.736 478.001 259.704 477.857 260.712 477.857C262.456 477.857 263.8 478.281 264.744 479.129C265.688 479.977 266.16 481.273 266.16 483.017L266.16 490.697L263.976 490.697ZM259.8 490.841C258.856 490.841 258.024 490.681 257.304 490.361C256.6 490.041 256.056 489.601 255.672 489.041C255.288 488.465 255.096 487.817 255.096 487.097C255.096 486.409 255.256 485.785 255.576 485.225C255.912 484.665 256.448 484.217 257.184 483.881C257.936 483.545 258.944 483.377 260.208 483.377L264.24 483.377L264.24 485.033L260.304 485.033C259.152 485.033 258.376 485.225 257.976 485.609C257.576 485.993 257.376 486.457 257.376 487.001C257.376 487.625 257.624 488.129 258.12 488.513C258.616 488.881 259.304 489.065 260.184 489.065C261.048 489.065 261.8 488.873 262.44 488.489C263.096 488.105 263.568 487.545 263.856 486.809L264.312 488.393C264.008 489.145 263.472 489.745 262.704 490.193C261.936 490.625 260.968 490.841 259.8 490.841ZM274.792 490.841C273.512 490.841 272.52 490.497 271.816 489.809C271.112 489.121 270.76 488.137 270.76 486.857L270.76 475.193L273.064 475.193L273.064 486.761C273.064 487.449 273.232 487.977 273.568 488.345C273.92 488.713 274.416 488.897 275.056 488.897C275.776 488.897 276.376 488.697 276.856 488.297L277.576 489.953C277.224 490.257 276.8 490.481 276.304 490.625C275.824 490.769 275.32 490.841 274.792 490.841ZM268.6 479.873L268.6 477.977L276.712 477.977L276.712 479.873L268.6 479.873ZM280.362 490.697L280.362 477.977L282.666 477.977L282.666 490.697L280.362 490.697ZM281.514 475.529C281.066 475.529 280.69 475.385 280.386 475.097C280.098 474.809 279.954 474.457 279.954 474.041C279.954 473.609 280.098 473.249 280.386 472.961C280.69 472.673 281.066 472.529 281.514 472.529C281.962 472.529 282.33 472.673 282.618 472.961C282.922 473.233 283.074 473.577 283.074 473.993C283.074 474.425 282.93 474.793 282.642 475.097C282.354 475.385 281.978 475.529 281.514 475.529ZM292.513 490.841C291.233 490.841 290.097 490.561 289.105 490.001C288.113 489.441 287.329 488.673 286.753 487.697C286.177 486.705 285.889 485.585 285.889 484.337C285.889 483.073 286.177 481.953 286.753 480.977C287.329 480.001 288.113 479.241 289.105 478.697C290.097 478.137 291.233 477.857 292.513 477.857C293.777 477.857 294.905 478.137 295.897 478.697C296.905 479.241 297.689 480.001 298.249 480.977C298.825 481.937 299.113 483.057 299.113 484.337C299.113 485.601 298.825 486.721 298.249 487.697C297.689 488.673 296.905 489.441 295.897 490.001C294.905 490.561 293.777 490.841 292.513 490.841ZM292.513 488.825C293.329 488.825 294.057 488.641 294.697 488.273C295.353 487.905 295.865 487.385 296.233 486.713C296.601 486.025 296.785 485.233 296.785 484.337C296.785 483.425 296.601 482.641 296.233 481.985C295.865 481.313 295.353 480.793 294.697 480.425C294.057 480.057 293.329 479.873 292.513 479.873C291.697 479.873 290.969 480.057 290.329 480.425C289.689 480.793 289.177 481.313 288.793 481.985C288.409 482.641 288.217 483.425 288.217 484.337C288.217 485.233 288.409 486.025 288.793 486.713C289.177 487.385 289.689 487.905 290.329 488.273C290.969 488.641 291.697 488.825 292.513 488.825ZM309.091 477.857C310.131 477.857 311.043 478.057 311.827 478.457C312.627 478.857 313.251 479.465 313.699 480.281C314.147 481.097 314.371 482.129 314.371 483.377L314.371 490.697L312.067 490.697L312.067 483.641C312.067 482.409 311.763 481.481 311.155 480.857C310.563 480.233 309.723 479.921 308.635 479.921C307.819 479.921 307.107 480.081 306.499 480.401C305.891 480.721 305.419 481.193 305.083 481.817C304.763 482.441 304.603 483.217 304.603 484.145L304.603 490.697L302.299 490.697L302.299 477.977L304.507 477.977L304.507 481.409L304.147 480.497C304.563 479.665 305.203 479.017 306.067 478.553C306.931 478.089 307.939 477.857 309.091 477.857ZM212.539 514.889C211.259 514.889 210.035 514.697 208.867 514.313C207.699 513.913 206.779 513.401 206.107 512.777L206.995 510.905C207.635 511.465 208.451 511.929 209.443 512.297C210.435 512.665 211.467 512.849 212.539 512.849C213.515 512.849 214.307 512.737 214.915 512.513C215.523 512.289 215.971 511.985 216.259 511.601C216.547 511.201 216.691 510.753 216.691 510.257C216.691 509.681 216.499 509.217 216.115 508.865C215.747 508.513 215.259 508.233 214.651 508.025C214.059 507.801 213.403 507.609 212.683 507.449C211.963 507.289 211.235 507.105 210.499 506.897C209.779 506.673 209.115 506.393 208.507 506.057C207.915 505.721 207.435 505.273 207.067 504.713C206.699 504.137 206.515 503.401 206.515 502.505C206.515 501.641 206.739 500.849 207.187 500.129C207.651 499.393 208.355 498.809 209.299 498.377C210.259 497.929 211.475 497.705 212.947 497.705C213.923 497.705 214.891 497.833 215.851 498.089C216.811 498.345 217.643 498.713 218.347 499.193L217.555 501.113C216.835 500.633 216.075 500.289 215.275 500.081C214.475 499.857 213.699 499.745 212.947 499.745C212.003 499.745 211.227 499.865 210.619 500.105C210.011 500.345 209.563 500.665 209.275 501.065C209.003 501.465 208.867 501.913 208.867 502.409C208.867 503.001 209.051 503.473 209.419 503.825C209.803 504.177 210.291 504.457 210.883 504.665C211.491 504.873 212.155 505.065 212.875 505.241C213.595 505.401 214.315 505.585 215.035 505.793C215.771 506.001 216.435 506.273 217.027 506.609C217.635 506.945 218.123 507.393 218.491 507.953C218.859 508.513 219.043 509.233 219.043 510.113C219.043 510.961 218.811 511.753 218.347 512.489C217.883 513.209 217.163 513.793 216.187 514.241C215.227 514.673 214.011 514.889 212.539 514.889ZM227.877 514.841C226.517 514.841 225.317 514.561 224.277 514.001C223.253 513.441 222.453 512.673 221.877 511.697C221.317 510.721 221.037 509.601 221.037 508.337C221.037 507.073 221.309 505.953 221.853 504.977C222.413 504.001 223.173 503.241 224.133 502.697C225.109 502.137 226.205 501.857 227.421 501.857C228.653 501.857 229.741 502.129 230.685 502.673C231.629 503.217 232.365 503.985 232.893 504.977C233.437 505.953 233.709 507.097 233.709 508.409C233.709 508.505 233.701 508.617 233.685 508.745C233.685 508.873 233.677 508.993 233.661 509.105L222.837 509.105L222.837 507.449L232.461 507.449L231.525 508.025C231.541 507.209 231.373 506.481 231.021 505.841C230.669 505.201 230.181 504.705 229.557 504.353C228.949 503.985 228.237 503.801 227.421 503.801C226.621 503.801 225.909 503.985 225.285 504.353C224.661 504.705 224.173 505.209 223.821 505.865C223.469 506.505 223.293 507.241 223.293 508.073L223.293 508.457C223.293 509.305 223.485 510.065 223.869 510.737C224.269 511.393 224.821 511.905 225.525 512.273C226.229 512.641 227.037 512.825 227.949 512.825C228.701 512.825 229.381 512.697 229.989 512.441C230.613 512.185 231.157 511.801 231.621 511.289L232.893 512.777C232.317 513.449 231.597 513.961 230.733 514.313C229.885 514.665 228.933 514.841 227.877 514.841ZM236.909 514.697L236.909 501.977L239.117 501.977L239.117 505.433L238.901 504.569C239.253 503.689 239.845 503.017 240.677 502.553C241.509 502.089 242.533 501.857 243.749 501.857L243.749 504.089C243.653 504.073 243.557 504.065 243.461 504.065C243.381 504.065 243.301 504.065 243.221 504.065C241.989 504.065 241.013 504.433 240.293 505.169C239.573 505.905 239.213 506.969 239.213 508.361L239.213 514.697L236.909 514.697ZM250.44 514.697L244.872 501.977L247.272 501.977L252.216 513.497L251.064 513.497L256.104 501.977L258.36 501.977L252.792 514.697L250.44 514.697ZM260.51 514.697L260.51 501.977L262.814 501.977L262.814 514.697L260.51 514.697ZM261.662 499.529C261.214 499.529 260.838 499.385 260.534 499.097C260.246 498.809 260.102 498.457 260.102 498.041C260.102 497.609 260.246 497.249 260.534 496.961C260.838 496.673 261.214 496.529 261.662 496.529C262.11 496.529 262.478 496.673 262.766 496.961C263.07 497.233 263.222 497.577 263.222 497.993C263.222 498.425 263.078 498.793 262.79 499.097C262.502 499.385 262.126 499.529 261.662 499.529ZM272.757 514.841C271.461 514.841 270.301 514.561 269.277 514.001C268.269 513.441 267.477 512.673 266.901 511.697C266.325 510.721 266.037 509.601 266.037 508.337C266.037 507.073 266.325 505.953 266.901 504.977C267.477 504.001 268.269 503.241 269.277 502.697C270.301 502.137 271.461 501.857 272.757 501.857C273.909 501.857 274.933 502.089 275.829 502.553C276.741 503.001 277.445 503.673 277.941 504.569L276.189 505.697C275.773 505.073 275.261 504.617 274.653 504.329C274.061 504.025 273.421 503.873 272.733 503.873C271.901 503.873 271.157 504.057 270.501 504.425C269.845 504.793 269.325 505.313 268.941 505.985C268.557 506.641 268.365 507.425 268.365 508.337C268.365 509.249 268.557 510.041 268.941 510.713C269.325 511.385 269.845 511.905 270.501 512.273C271.157 512.641 271.901 512.825 272.733 512.825C273.421 512.825 274.061 512.681 274.653 512.393C275.261 512.089 275.773 511.625 276.189 511.001L277.941 512.105C277.445 512.985 276.741 513.665 275.829 514.145C274.933 514.609 273.909 514.841 272.757 514.841ZM286.401 514.841C285.041 514.841 283.841 514.561 282.801 514.001C281.777 513.441 280.977 512.673 280.401 511.697C279.841 510.721 279.561 509.601 279.561 508.337C279.561 507.073 279.833 505.953 280.377 504.977C280.937 504.001 281.697 503.241 282.657 502.697C283.633 502.137 284.729 501.857 285.945 501.857C287.177 501.857 288.265 502.129 289.209 502.673C290.153 503.217 290.889 503.985 291.417 504.977C291.961 505.953 292.233 507.097 292.233 508.409C292.233 508.505 292.225 508.617 292.209 508.745C292.209 508.873 292.201 508.993 292.185 509.105L281.361 509.105L281.361 507.449L290.985 507.449L290.049 508.025C290.065 507.209 289.897 506.481 289.545 505.841C289.193 505.201 288.705 504.705 288.081 504.353C287.473 503.985 286.761 503.801 285.945 503.801C285.145 503.801 284.433 503.985 283.809 504.353C283.185 504.705 282.697 505.209 282.345 505.865C281.993 506.505 281.817 507.241 281.817 508.073L281.817 508.457C281.817 509.305 282.009 510.065 282.393 510.737C282.793 511.393 283.345 511.905 284.049 512.273C284.753 512.641 285.561 512.825 286.473 512.825C287.225 512.825 287.905 512.697 288.513 512.441C289.137 512.185 289.681 511.801 290.145 511.289L291.417 512.777C290.841 513.449 290.121 513.961 289.257 514.313C288.409 514.665 287.457 514.841 286.401 514.841ZM299.08 514.841C298.024 514.841 297.016 514.697 296.056 514.409C295.112 514.121 294.368 513.769 293.824 513.353L294.784 511.529C295.328 511.897 296 512.209 296.8 512.465C297.6 512.721 298.416 512.849 299.248 512.849C300.32 512.849 301.088 512.697 301.552 512.393C302.032 512.089 302.272 511.665 302.272 511.121C302.272 510.721 302.128 510.409 301.84 510.185C301.552 509.961 301.168 509.793 300.688 509.681C300.224 509.569 299.704 509.473 299.128 509.393C298.552 509.297 297.976 509.185 297.4 509.057C296.824 508.913 296.296 508.721 295.816 508.481C295.336 508.225 294.952 507.881 294.664 507.449C294.376 507.001 294.232 506.409 294.232 505.673C294.232 504.905 294.448 504.233 294.88 503.657C295.312 503.081 295.92 502.641 296.704 502.337C297.504 502.017 298.448 501.857 299.536 501.857C300.368 501.857 301.208 501.961 302.056 502.169C302.92 502.361 303.624 502.641 304.168 503.009L303.184 504.833C302.608 504.449 302.008 504.185 301.384 504.041C300.76 503.897 300.136 503.825 299.512 503.825C298.504 503.825 297.752 503.993 297.256 504.329C296.76 504.649 296.512 505.065 296.512 505.577C296.512 506.009 296.656 506.345 296.944 506.585C297.248 506.809 297.632 506.985 298.096 507.113C298.576 507.241 299.104 507.353 299.68 507.449C300.256 507.529 300.832 507.641 301.408 507.785C301.984 507.913 302.504 508.097 302.968 508.337C303.448 508.577 303.832 508.913 304.12 509.345C304.424 509.777 304.576 510.353 304.576 511.073C304.576 511.841 304.352 512.505 303.904 513.065C303.456 513.625 302.824 514.065 302.008 514.385C301.192 514.689 300.216 514.841 299.08 514.841Z" fill="#FEFBF5"/>
</g>
<defs>
<filter id="filter0_d_388_1240" x="-23.0742" y="-23.0371" width="1026.07" height="1026.07" filterUnits="userSpaceOnUse" color-interpolation-filters="sRGB">
<feFlood flood-opacity="0" result="BackgroundImageFix"/>
<feColorMatrix in="SourceAlpha" type="matrix" values="0 0 0 0 0 0 0 0 0 0 0 0 0 0 0 0 0 0 127 0" result="hardAlpha"/>
<feOffset/>
<feGaussianBlur stdDeviation="12"/>
<feComposite in2="hardAlpha" operator="out"/>
<feColorMatrix type="matrix" values="0 0 0 0 0.94902 0 0 0 0 0.639216 0 0 0 0 0.156863 0 0 0 0.2 0"/>
<feBlend mode="normal" in2="BackgroundImageFix" result="effect1_dropShadow_388_1240"/>
<feBlend mode="normal" in="SourceGraphic" in2="effect1_dropShadow_388_1240" result="shape"/>
</filter>
<filter id="filter1_ii_388_1240" x="131.963" y="317.223" width="359.431" height="354.145" filterUnits="userSpaceOnUse" color-interpolation-filters="sRGB">
<feFlood flood-opacity="0" result="BackgroundImageFix"/>
<feBlend mode="normal" in="SourceGraphic" in2="BackgroundImageFix" result="shape"/>
<feColorMatrix in="SourceAlpha" type="matrix" values="0 0 0 0 0 0 0 0 0 0 0 0 0 0 0 0 0 0 127 0" result="hardAlpha"/>
<feMorphology radius="8.59104" operator="erode" in="SourceAlpha" result="effect1_innerShadow_388_1240"/>
<feOffset/>
<feGaussianBlur stdDeviation="28.6368"/>
<feComposite in2="hardAlpha" operator="arithmetic" k2="-1" k3="1"/>
<feColorMatrix type="matrix" values="0 0 0 0 0 0 0 0 0 0 0 0 0 0 0 0 0 0 0.25 0"/>
<feBlend mode="normal" in2="shape" result="effect1_innerShadow_388_1240"/>
<feColorMatrix in="SourceAlpha" type="matrix" values="0 0 0 0 0 0 0 0 0 0 0 0 0 0 0 0 0 0 127 0" result="hardAlpha"/>
<feOffset dx="8.59104" dy="8.59104"/>
<feGaussianBlur stdDeviation="21.4776"/>
<feComposite in2="hardAlpha" operator="arithmetic" k2="-1" k3="1"/>
<feColorMatrix type="matrix" values="0 0 0 0 0 0 0 0 0 0 0 0 0 0 0 0 0 0 0.25 0"/>
<feBlend mode="normal" in2="effect1_innerShadow_388_1240" result="effect2_innerShadow_388_1240"/>
</filter>
</defs>
</svg>
