<svg width="979" height="980" viewBox="0 0 716 740" fill="none" xmlns="http://www.w3.org/2000/svg">
<g filter="url(#filter0_d_388_1237)">
<mask id="path-1-inside-1_388_1237" fill="white">
<path d="M358 699.037C358 708.426 350.384 716.079 341.006 715.634C284.067 712.928 228.508 696.658 179 668.074C129.492 639.491 87.622 599.511 56.8094 551.553C51.7343 543.654 54.5544 533.232 62.6853 528.537L348.553 363.492C350.346 362.456 352.627 363.203 354.42 364.238C356.213 365.273 358 366.876 358 368.946L358 699.037Z"/>
</mask>
<g filter="url(#filter1_ii_388_1237)">
<path d="M358 699.037C358 708.426 350.384 716.079 341.006 715.634C284.067 712.928 228.508 696.658 179 668.074C129.492 639.491 87.622 599.511 56.8094 551.553C51.7343 543.654 54.5544 533.232 62.6853 528.537L348.553 363.492C350.346 362.456 352.627 363.203 354.42 364.238C356.213 365.273 358 366.876 358 368.946L358 699.037Z" fill="#0471AA"/>
</g>
<path d="M358 699.037C358 708.426 350.384 716.079 341.006 715.634C284.067 712.928 228.508 696.658 179 668.074C129.492 639.491 87.622 599.511 56.8094 551.553C51.7343 543.654 54.5544 533.232 62.6853 528.537L348.553 363.492C350.346 362.456 352.627 363.203 354.42 364.238C356.213 365.273 358 366.876 358 368.946L358 699.037Z" stroke="white" stroke-width="12" mask="url(#path-1-inside-1_388_1237)"/>
<path d="M186.393 545.229C185.113 545.229 183.889 545.037 182.721 544.653C181.553 544.253 180.633 543.741 179.961 543.117L180.849 541.245C181.489 541.805 182.305 542.269 183.297 542.637C184.289 543.005 185.321 543.189 186.393 543.189C187.369 543.189 188.161 543.077 188.769 542.853C189.377 542.629 189.825 542.325 190.113 541.941C190.401 541.541 190.545 541.093 190.545 540.597C190.545 540.021 190.353 539.557 189.969 539.205C189.601 538.853 189.113 538.573 188.505 538.365C187.913 538.141 187.257 537.949 186.537 537.789C185.817 537.629 185.089 537.445 184.353 537.237C183.633 537.013 182.969 536.733 182.361 536.397C181.769 536.061 181.289 535.613 180.921 535.053C180.553 534.477 180.369 533.741 180.369 532.845C180.369 531.981 180.593 531.189 181.041 530.469C181.505 529.733 182.209 529.149 183.153 528.717C184.113 528.269 185.329 528.045 186.801 528.045C187.777 528.045 188.745 528.173 189.705 528.429C190.665 528.685 191.497 529.053 192.201 529.533L191.409 531.453C190.689 530.973 189.929 530.629 189.129 530.421C188.329 530.197 187.553 530.085 186.801 530.085C185.857 530.085 185.081 530.205 184.473 530.445C183.865 530.685 183.417 531.005 183.129 531.405C182.857 531.805 182.721 532.253 182.721 532.749C182.721 533.341 182.905 533.813 183.273 534.165C183.657 534.517 184.145 534.797 184.737 535.005C185.345 535.213 186.009 535.405 186.729 535.581C187.449 535.741 188.169 535.925 188.889 536.133C189.625 536.341 190.289 536.613 190.881 536.949C191.489 537.285 191.977 537.733 192.345 538.293C192.713 538.853 192.897 539.573 192.897 540.453C192.897 541.301 192.665 542.093 192.201 542.829C191.737 543.549 191.017 544.133 190.041 544.581C189.081 545.013 187.865 545.229 186.393 545.229ZM201.731 545.181C200.371 545.181 199.171 544.901 198.131 544.341C197.107 543.781 196.307 543.013 195.731 542.037C195.171 541.061 194.891 539.941 194.891 538.677C194.891 537.413 195.163 536.293 195.707 535.317C196.267 534.341 197.027 533.581 197.987 533.037C198.963 532.477 200.059 532.197 201.275 532.197C202.507 532.197 203.595 532.469 204.539 533.013C205.483 533.557 206.219 534.325 206.747 535.317C207.291 536.293 207.563 537.437 207.563 538.749C207.563 538.845 207.555 538.957 207.539 539.085C207.539 539.213 207.531 539.333 207.515 539.445L196.691 539.445L196.691 537.789L206.315 537.789L205.379 538.365C205.395 537.549 205.227 536.821 204.875 536.181C204.523 535.541 204.035 535.045 203.411 534.693C202.803 534.325 202.091 534.141 201.275 534.141C200.475 534.141 199.763 534.325 199.139 534.693C198.515 535.045 198.027 535.549 197.675 536.205C197.323 536.845 197.147 537.581 197.147 538.413L197.147 538.797C197.147 539.645 197.339 540.405 197.723 541.077C198.123 541.733 198.675 542.245 199.379 542.613C200.083 542.981 200.891 543.165 201.803 543.165C202.555 543.165 203.235 543.037 203.843 542.781C204.467 542.525 205.011 542.141 205.475 541.629L206.747 543.117C206.171 543.789 205.451 544.301 204.587 544.653C203.739 545.005 202.787 545.181 201.731 545.181ZM216.306 545.181C215.01 545.181 213.85 544.901 212.826 544.341C211.818 543.781 211.026 543.013 210.45 542.037C209.874 541.061 209.586 539.941 209.586 538.677C209.586 537.413 209.874 536.293 210.45 535.317C211.026 534.341 211.818 533.581 212.826 533.037C213.85 532.477 215.01 532.197 216.306 532.197C217.458 532.197 218.482 532.429 219.378 532.893C220.29 533.341 220.994 534.013 221.49 534.909L219.738 536.037C219.322 535.413 218.81 534.957 218.202 534.669C217.61 534.365 216.97 534.213 216.282 534.213C215.45 534.213 214.706 534.397 214.05 534.765C213.394 535.133 212.874 535.653 212.49 536.325C212.106 536.981 211.914 537.765 211.914 538.677C211.914 539.589 212.106 540.381 212.49 541.053C212.874 541.725 213.394 542.245 214.05 542.613C214.706 542.981 215.45 543.165 216.282 543.165C216.97 543.165 217.61 543.021 218.202 542.733C218.81 542.429 219.322 541.965 219.738 541.341L221.49 542.445C220.994 543.325 220.29 544.005 219.378 544.485C218.482 544.949 217.458 545.181 216.306 545.181ZM229.825 545.181C228.737 545.181 227.777 544.981 226.945 544.581C226.129 544.181 225.489 543.573 225.025 542.757C224.577 541.925 224.353 540.885 224.353 539.637L224.353 532.317L226.657 532.317L226.657 539.373C226.657 540.621 226.953 541.557 227.545 542.181C228.153 542.805 229.001 543.117 230.089 543.117C230.889 543.117 231.585 542.957 232.177 542.637C232.769 542.301 233.225 541.821 233.545 541.197C233.865 540.557 234.025 539.789 234.025 538.893L234.025 532.317L236.329 532.317L236.329 545.037L234.145 545.037L234.145 541.605L234.505 542.517C234.089 543.365 233.465 544.021 232.633 544.485C231.801 544.949 230.865 545.181 229.825 545.181ZM240.715 545.037L240.715 532.317L242.923 532.317L242.923 535.773L242.707 534.909C243.059 534.029 243.651 533.357 244.483 532.893C245.315 532.429 246.339 532.197 247.555 532.197L247.555 534.429C247.459 534.413 247.363 534.405 247.267 534.405C247.187 534.405 247.107 534.405 247.027 534.405C245.795 534.405 244.819 534.773 244.099 535.509C243.379 536.245 243.019 537.309 243.019 538.701L243.019 545.037L240.715 545.037ZM250.395 545.037L250.395 532.317L252.699 532.317L252.699 545.037L250.395 545.037ZM251.547 529.869C251.099 529.869 250.723 529.725 250.419 529.437C250.131 529.149 249.987 528.797 249.987 528.381C249.987 527.949 250.131 527.589 250.419 527.301C250.723 527.013 251.099 526.869 251.547 526.869C251.995 526.869 252.363 527.013 252.651 527.301C252.955 527.573 253.107 527.917 253.107 528.333C253.107 528.765 252.963 529.133 252.675 529.437C252.387 529.725 252.011 529.869 251.547 529.869ZM261.466 545.181C260.186 545.181 259.194 544.837 258.49 544.149C257.786 543.461 257.434 542.477 257.434 541.197L257.434 529.533L259.738 529.533L259.738 541.101C259.738 541.789 259.906 542.317 260.242 542.685C260.594 543.053 261.09 543.237 261.73 543.237C262.45 543.237 263.05 543.037 263.53 542.637L264.25 544.293C263.898 544.597 263.474 544.821 262.978 544.965C262.498 545.109 261.994 545.181 261.466 545.181ZM255.274 534.213L255.274 532.317L263.386 532.317L263.386 534.213L255.274 534.213ZM267.353 549.837C266.745 549.837 266.153 549.733 265.577 549.525C265.001 549.333 264.505 549.045 264.089 548.661L265.073 546.933C265.393 547.237 265.745 547.469 266.129 547.629C266.513 547.789 266.921 547.869 267.353 547.869C267.913 547.869 268.377 547.725 268.745 547.437C269.113 547.149 269.457 546.637 269.777 545.901L270.569 544.149L270.809 543.861L275.801 532.317L278.057 532.317L271.889 546.309C271.521 547.205 271.105 547.909 270.641 548.421C270.193 548.933 269.697 549.293 269.153 549.501C268.609 549.725 268.009 549.837 267.353 549.837ZM270.377 545.445L264.569 532.317L266.969 532.317L271.913 543.645L270.377 545.445ZM185.842 569.229C184.562 569.229 183.338 569.037 182.17 568.653C181.002 568.253 180.082 567.741 179.41 567.117L180.298 565.245C180.938 565.805 181.754 566.269 182.746 566.637C183.738 567.005 184.77 567.189 185.842 567.189C186.818 567.189 187.61 567.077 188.218 566.853C188.826 566.629 189.274 566.325 189.562 565.941C189.85 565.541 189.994 565.093 189.994 564.597C189.994 564.021 189.802 563.557 189.418 563.205C189.05 562.853 188.562 562.573 187.954 562.365C187.362 562.141 186.706 561.949 185.986 561.789C185.266 561.629 184.538 561.445 183.802 561.237C183.082 561.013 182.418 560.733 181.81 560.397C181.218 560.061 180.738 559.613 180.37 559.053C180.002 558.477 179.818 557.741 179.818 556.845C179.818 555.981 180.042 555.189 180.49 554.469C180.954 553.733 181.658 553.149 182.602 552.717C183.562 552.269 184.778 552.045 186.25 552.045C187.226 552.045 188.194 552.173 189.154 552.429C190.114 552.685 190.946 553.053 191.65 553.533L190.858 555.453C190.138 554.973 189.378 554.629 188.578 554.421C187.778 554.197 187.002 554.085 186.25 554.085C185.306 554.085 184.53 554.205 183.922 554.445C183.314 554.685 182.866 555.005 182.578 555.405C182.306 555.805 182.17 556.253 182.17 556.749C182.17 557.341 182.354 557.813 182.722 558.165C183.106 558.517 183.594 558.797 184.186 559.005C184.794 559.213 185.458 559.405 186.178 559.581C186.898 559.741 187.618 559.925 188.338 560.133C189.074 560.341 189.738 560.613 190.33 560.949C190.938 561.285 191.426 561.733 191.794 562.293C192.162 562.853 192.346 563.573 192.346 564.453C192.346 565.301 192.114 566.093 191.65 566.829C191.186 567.549 190.466 568.133 189.49 568.581C188.53 569.013 187.314 569.229 185.842 569.229ZM201.18 569.181C199.82 569.181 198.62 568.901 197.58 568.341C196.556 567.781 195.756 567.013 195.18 566.037C194.62 565.061 194.34 563.941 194.34 562.677C194.34 561.413 194.612 560.293 195.156 559.317C195.716 558.341 196.476 557.581 197.436 557.037C198.412 556.477 199.508 556.197 200.724 556.197C201.956 556.197 203.044 556.469 203.988 557.013C204.932 557.557 205.668 558.325 206.196 559.317C206.74 560.293 207.012 561.437 207.012 562.749C207.012 562.845 207.004 562.957 206.988 563.085C206.988 563.213 206.98 563.333 206.964 563.445L196.14 563.445L196.14 561.789L205.764 561.789L204.828 562.365C204.844 561.549 204.676 560.821 204.324 560.181C203.972 559.541 203.484 559.045 202.86 558.693C202.252 558.325 201.54 558.141 200.724 558.141C199.924 558.141 199.212 558.325 198.588 558.693C197.964 559.045 197.476 559.549 197.124 560.205C196.772 560.845 196.596 561.581 196.596 562.413L196.596 562.797C196.596 563.645 196.788 564.405 197.172 565.077C197.572 565.733 198.124 566.245 198.828 566.613C199.532 566.981 200.34 567.165 201.252 567.165C202.004 567.165 202.684 567.037 203.292 566.781C203.916 566.525 204.46 566.141 204.924 565.629L206.196 567.117C205.62 567.789 204.9 568.301 204.036 568.653C203.188 569.005 202.236 569.181 201.18 569.181ZM210.211 569.037L210.211 556.317L212.419 556.317L212.419 559.773L212.203 558.909C212.555 558.029 213.147 557.357 213.979 556.893C214.811 556.429 215.835 556.197 217.051 556.197L217.051 558.429C216.955 558.413 216.859 558.405 216.763 558.405C216.683 558.405 216.603 558.405 216.523 558.405C215.291 558.405 214.315 558.773 213.595 559.509C212.875 560.245 212.515 561.309 212.515 562.701L212.515 569.037L210.211 569.037ZM223.743 569.037L218.175 556.317L220.575 556.317L225.519 567.837L224.367 567.837L229.407 556.317L231.663 556.317L226.095 569.037L223.743 569.037ZM233.813 569.037L233.813 556.317L236.117 556.317L236.117 569.037L233.813 569.037ZM234.965 553.869C234.517 553.869 234.141 553.725 233.837 553.437C233.549 553.149 233.405 552.797 233.405 552.381C233.405 551.949 233.549 551.589 233.837 551.301C234.141 551.013 234.517 550.869 234.965 550.869C235.413 550.869 235.781 551.013 236.069 551.301C236.373 551.573 236.525 551.917 236.525 552.333C236.525 552.765 236.381 553.133 236.093 553.437C235.805 553.725 235.429 553.869 234.965 553.869ZM246.06 569.181C244.764 569.181 243.604 568.901 242.58 568.341C241.572 567.781 240.78 567.013 240.204 566.037C239.628 565.061 239.34 563.941 239.34 562.677C239.34 561.413 239.628 560.293 240.204 559.317C240.78 558.341 241.572 557.581 242.58 557.037C243.604 556.477 244.764 556.197 246.06 556.197C247.212 556.197 248.236 556.429 249.132 556.893C250.044 557.341 250.748 558.013 251.244 558.909L249.492 560.037C249.076 559.413 248.564 558.957 247.956 558.669C247.364 558.365 246.724 558.213 246.036 558.213C245.204 558.213 244.46 558.397 243.804 558.765C243.148 559.133 242.628 559.653 242.244 560.325C241.86 560.981 241.668 561.765 241.668 562.677C241.668 563.589 241.86 564.381 242.244 565.053C242.628 565.725 243.148 566.245 243.804 566.613C244.46 566.981 245.204 567.165 246.036 567.165C246.724 567.165 247.364 567.021 247.956 566.733C248.564 566.429 249.076 565.965 249.492 565.341L251.244 566.445C250.748 567.325 250.044 568.005 249.132 568.485C248.236 568.949 247.212 569.181 246.06 569.181ZM259.703 569.181C258.343 569.181 257.143 568.901 256.103 568.341C255.079 567.781 254.279 567.013 253.703 566.037C253.143 565.061 252.863 563.941 252.863 562.677C252.863 561.413 253.135 560.293 253.679 559.317C254.239 558.341 254.999 557.581 255.959 557.037C256.935 556.477 258.031 556.197 259.247 556.197C260.479 556.197 261.567 556.469 262.511 557.013C263.455 557.557 264.191 558.325 264.719 559.317C265.263 560.293 265.535 561.437 265.535 562.749C265.535 562.845 265.527 562.957 265.511 563.085C265.511 563.213 265.503 563.333 265.487 563.445L254.663 563.445L254.663 561.789L264.287 561.789L263.351 562.365C263.367 561.549 263.199 560.821 262.847 560.181C262.495 559.541 262.007 559.045 261.383 558.693C260.775 558.325 260.063 558.141 259.247 558.141C258.447 558.141 257.735 558.325 257.111 558.693C256.487 559.045 255.999 559.549 255.647 560.205C255.295 560.845 255.119 561.581 255.119 562.413L255.119 562.797C255.119 563.645 255.311 564.405 255.695 565.077C256.095 565.733 256.647 566.245 257.351 566.613C258.055 566.981 258.863 567.165 259.775 567.165C260.527 567.165 261.207 567.037 261.815 566.781C262.439 566.525 262.983 566.141 263.447 565.629L264.719 567.117C264.143 567.789 263.423 568.301 262.559 568.653C261.711 569.005 260.759 569.181 259.703 569.181ZM272.383 569.181C271.327 569.181 270.319 569.037 269.359 568.749C268.415 568.461 267.671 568.109 267.127 567.693L268.087 565.869C268.631 566.237 269.303 566.549 270.103 566.805C270.903 567.061 271.719 567.189 272.551 567.189C273.623 567.189 274.391 567.037 274.855 566.733C275.335 566.429 275.575 566.005 275.575 565.461C275.575 565.061 275.431 564.749 275.143 564.525C274.855 564.301 274.471 564.133 273.991 564.021C273.527 563.909 273.007 563.813 272.431 563.733C271.855 563.637 271.279 563.525 270.703 563.397C270.127 563.253 269.599 563.061 269.119 562.821C268.639 562.565 268.255 562.221 267.967 561.789C267.679 561.341 267.535 560.749 267.535 560.013C267.535 559.245 267.751 558.573 268.183 557.997C268.615 557.421 269.223 556.981 270.007 556.677C270.807 556.357 271.751 556.197 272.839 556.197C273.671 556.197 274.511 556.301 275.359 556.509C276.223 556.701 276.927 556.981 277.471 557.349L276.487 559.173C275.911 558.789 275.311 558.525 274.687 558.381C274.063 558.237 273.439 558.165 272.815 558.165C271.807 558.165 271.055 558.333 270.559 558.669C270.063 558.989 269.815 559.405 269.815 559.917C269.815 560.349 269.959 560.685 270.247 560.925C270.551 561.149 270.935 561.325 271.399 561.453C271.879 561.581 272.407 561.693 272.983 561.789C273.559 561.869 274.135 561.981 274.711 562.125C275.287 562.253 275.807 562.437 276.271 562.677C276.751 562.917 277.135 563.253 277.423 563.685C277.727 564.117 277.879 564.693 277.879 565.413C277.879 566.181 277.655 566.845 277.207 567.405C276.759 567.965 276.127 568.405 275.311 568.725C274.495 569.029 273.519 569.181 272.383 569.181Z" fill="#FEFBF5"/>
</g>
<defs>
<filter id="filter0_d_388_1237" x="-24" y="-23.9629" width="764" height="764" filterUnits="userSpaceOnUse" color-interpolation-filters="sRGB">
<feFlood flood-opacity="0" result="BackgroundImageFix"/>
<feColorMatrix in="SourceAlpha" type="matrix" values="0 0 0 0 0 0 0 0 0 0 0 0 0 0 0 0 0 0 127 0" result="hardAlpha"/>
<feOffset/>
<feGaussianBlur stdDeviation="12"/>
<feComposite in2="hardAlpha" operator="out"/>
<feColorMatrix type="matrix" values="0 0 0 0 0.94902 0 0 0 0 0.639216 0 0 0 0 0.156863 0 0 0 0.2 0"/>
<feBlend mode="normal" in2="BackgroundImageFix" result="effect1_dropShadow_388_1237"/>
<feBlend mode="normal" in="SourceGraphic" in2="effect1_dropShadow_388_1237" result="shape"/>
</filter>
<filter id="filter1_ii_388_1237" x="54.2695" y="362.995" width="312.322" height="361.248" filterUnits="userSpaceOnUse" color-interpolation-filters="sRGB">
<feFlood flood-opacity="0" result="BackgroundImageFix"/>
<feBlend mode="normal" in="SourceGraphic" in2="BackgroundImageFix" result="shape"/>
<feColorMatrix in="SourceAlpha" type="matrix" values="0 0 0 0 0 0 0 0 0 0 0 0 0 0 0 0 0 0 127 0" result="hardAlpha"/>
<feMorphology radius="8.59104" operator="erode" in="SourceAlpha" result="effect1_innerShadow_388_1237"/>
<feOffset/>
<feGaussianBlur stdDeviation="28.6368"/>
<feComposite in2="hardAlpha" operator="arithmetic" k2="-1" k3="1"/>
<feColorMatrix type="matrix" values="0 0 0 0 0 0 0 0 0 0 0 0 0 0 0 0 0 0 0.25 0"/>
<feBlend mode="normal" in2="shape" result="effect1_innerShadow_388_1237"/>
<feColorMatrix in="SourceAlpha" type="matrix" values="0 0 0 0 0 0 0 0 0 0 0 0 0 0 0 0 0 0 127 0" result="hardAlpha"/>
<feOffset dx="8.59104" dy="8.59104"/>
<feGaussianBlur stdDeviation="21.4776"/>
<feComposite in2="hardAlpha" operator="arithmetic" k2="-1" k3="1"/>
<feColorMatrix type="matrix" values="0 0 0 0 0 0 0 0 0 0 0 0 0 0 0 0 0 0 0.25 0"/>
<feBlend mode="normal" in2="effect1_innerShadow_388_1237" result="effect2_innerShadow_388_1237"/>
</filter>
</defs>
</svg>
