<svg width="716" height="741" viewBox="0 0 716 741" fill="none" xmlns="http://www.w3.org/2000/svg">
<g filter="url(#filter0_d_388_1243)">
<mask id="path-1-inside-1_388_1243" fill="white">
<path d="M358 41.0371C358 31.6482 365.616 23.995 374.994 24.4406C431.933 27.1462 487.492 43.4165 537 72C586.508 100.583 628.378 140.564 659.191 188.522C664.266 196.421 661.446 206.843 653.315 211.537L367.447 376.583C365.654 377.618 363.373 376.872 361.58 375.836C359.787 374.801 358 373.199 358 371.128L358 41.0371Z"/>
</mask>
<g filter="url(#filter1_ii_388_1243)">
<path d="M358 41.0371C358 31.6482 365.616 23.995 374.994 24.4406C431.933 27.1462 487.492 43.4165 537 72C586.508 100.583 628.378 140.564 659.191 188.522C664.266 196.421 661.446 206.843 653.315 211.537L367.447 376.583C365.654 377.618 363.373 376.872 361.58 375.836C359.787 374.801 358 373.199 358 371.128L358 41.0371Z" fill="#34936F"/>
</g>
<path d="M358 41.0371C358 31.6482 365.616 23.995 374.994 24.4406C431.933 27.1462 487.492 43.4165 537 72C586.508 100.583 628.378 140.564 659.191 188.522C664.266 196.421 661.446 206.843 653.315 211.537L367.447 376.583C365.654 377.618 363.373 376.872 361.58 375.836C359.787 374.801 358 373.199 358 371.128L358 41.0371Z" stroke="white" stroke-width="12" mask="url(#path-1-inside-1_388_1243)"/>
<path d="M441.057 180.229C439.777 180.229 438.553 180.037 437.385 179.653C436.217 179.253 435.297 178.741 434.625 178.117L435.513 176.245C436.153 176.805 436.969 177.269 437.961 177.637C438.953 178.005 439.985 178.189 441.057 178.189C442.033 178.189 442.825 178.077 443.433 177.853C444.041 177.629 444.489 177.325 444.777 176.941C445.065 176.541 445.209 176.093 445.209 175.597C445.209 175.021 445.017 174.557 444.633 174.205C444.265 173.853 443.777 173.573 443.169 173.365C442.577 173.141 441.921 172.949 441.201 172.789C440.481 172.629 439.753 172.445 439.017 172.237C438.297 172.013 437.633 171.733 437.025 171.397C436.433 171.061 435.953 170.613 435.585 170.053C435.217 169.477 435.033 168.741 435.033 167.845C435.033 166.981 435.257 166.189 435.705 165.469C436.169 164.733 436.873 164.149 437.817 163.717C438.777 163.269 439.993 163.045 441.465 163.045C442.441 163.045 443.409 163.173 444.369 163.429C445.329 163.685 446.161 164.053 446.865 164.533L446.073 166.453C445.353 165.973 444.593 165.629 443.793 165.421C442.993 165.197 442.217 165.085 441.465 165.085C440.521 165.085 439.745 165.205 439.137 165.445C438.529 165.685 438.081 166.005 437.793 166.405C437.521 166.805 437.385 167.253 437.385 167.749C437.385 168.341 437.569 168.813 437.937 169.165C438.321 169.517 438.809 169.797 439.401 170.005C440.009 170.213 440.673 170.405 441.393 170.581C442.113 170.741 442.833 170.925 443.553 171.133C444.289 171.341 444.953 171.613 445.545 171.949C446.153 172.285 446.641 172.733 447.009 173.293C447.377 173.853 447.561 174.573 447.561 175.453C447.561 176.301 447.329 177.093 446.865 177.829C446.401 178.549 445.681 179.133 444.705 179.581C443.745 180.013 442.529 180.229 441.057 180.229ZM455.099 180.181C453.819 180.181 452.827 179.837 452.123 179.149C451.419 178.461 451.067 177.477 451.067 176.197L451.067 164.533L453.371 164.533L453.371 176.101C453.371 176.789 453.539 177.317 453.875 177.685C454.227 178.053 454.723 178.237 455.363 178.237C456.083 178.237 456.683 178.037 457.163 177.637L457.883 179.293C457.531 179.597 457.107 179.821 456.611 179.965C456.131 180.109 455.627 180.181 455.099 180.181ZM448.907 169.213L448.907 167.317L457.019 167.317L457.019 169.213L448.907 169.213ZM468.564 180.037L468.564 177.349L468.444 176.845L468.444 172.261C468.444 171.285 468.156 170.533 467.58 170.005C467.02 169.461 466.172 169.189 465.036 169.189C464.284 169.189 463.548 169.317 462.828 169.573C462.108 169.813 461.5 170.141 461.004 170.557L460.044 168.829C460.7 168.301 461.484 167.901 462.396 167.629C463.324 167.341 464.292 167.197 465.3 167.197C467.044 167.197 468.388 167.621 469.332 168.469C470.276 169.317 470.748 170.613 470.748 172.357L470.748 180.037L468.564 180.037ZM464.388 180.181C463.444 180.181 462.612 180.021 461.892 179.701C461.188 179.381 460.644 178.941 460.26 178.381C459.876 177.805 459.684 177.157 459.684 176.437C459.684 175.749 459.844 175.125 460.164 174.565C460.5 174.005 461.036 173.557 461.772 173.221C462.524 172.885 463.532 172.717 464.796 172.717L468.828 172.717L468.828 174.373L464.892 174.373C463.74 174.373 462.964 174.565 462.564 174.949C462.164 175.333 461.964 175.797 461.964 176.341C461.964 176.965 462.212 177.469 462.708 177.853C463.204 178.221 463.892 178.405 464.772 178.405C465.636 178.405 466.388 178.213 467.028 177.829C467.684 177.445 468.156 176.885 468.444 176.149L468.9 177.733C468.596 178.485 468.06 179.085 467.292 179.533C466.524 179.965 465.556 180.181 464.388 180.181ZM475.348 180.037L475.348 166.189C475.348 164.941 475.708 163.949 476.428 163.213C477.164 162.461 478.204 162.085 479.548 162.085C480.044 162.085 480.516 162.149 480.964 162.277C481.428 162.389 481.82 162.573 482.14 162.829L481.444 164.581C481.204 164.389 480.932 164.245 480.628 164.149C480.324 164.037 480.004 163.981 479.668 163.981C478.996 163.981 478.484 164.173 478.132 164.557C477.78 164.925 477.604 165.477 477.604 166.213L477.604 167.917L477.652 168.973L477.652 180.037L475.348 180.037ZM473.188 169.213L473.188 167.317L481.3 167.317L481.3 169.213L473.188 169.213ZM483.809 180.037L483.809 166.189C483.809 164.941 484.169 163.949 484.889 163.213C485.625 162.461 486.665 162.085 488.009 162.085C488.505 162.085 488.977 162.149 489.425 162.277C489.889 162.389 490.281 162.573 490.601 162.829L489.905 164.581C489.665 164.389 489.393 164.245 489.089 164.149C488.785 164.037 488.465 163.981 488.129 163.981C487.457 163.981 486.945 164.173 486.593 164.557C486.241 164.925 486.065 165.477 486.065 166.213L486.065 167.917L486.113 168.973L486.113 180.037L483.809 180.037ZM481.649 169.213L481.649 167.317L489.761 167.317L489.761 169.213L481.649 169.213ZM491.945 180.037L491.945 167.317L494.249 167.317L494.249 180.037L491.945 180.037ZM493.097 164.869C492.649 164.869 492.273 164.725 491.969 164.437C491.681 164.149 491.537 163.797 491.537 163.381C491.537 162.949 491.681 162.589 491.969 162.301C492.273 162.013 492.649 161.869 493.097 161.869C493.545 161.869 493.913 162.013 494.201 162.301C494.505 162.573 494.657 162.917 494.657 163.333C494.657 163.765 494.513 164.133 494.225 164.437C493.937 164.725 493.561 164.869 493.097 164.869ZM505.429 167.197C506.469 167.197 507.381 167.397 508.165 167.797C508.965 168.197 509.589 168.805 510.037 169.621C510.485 170.437 510.709 171.469 510.709 172.717L510.709 180.037L508.405 180.037L508.405 172.981C508.405 171.749 508.101 170.821 507.493 170.197C506.901 169.573 506.061 169.261 504.973 169.261C504.157 169.261 503.445 169.421 502.837 169.741C502.229 170.061 501.757 170.533 501.421 171.157C501.101 171.781 500.941 172.557 500.941 173.485L500.941 180.037L498.637 180.037L498.637 167.317L500.845 167.317L500.845 170.749L500.485 169.837C500.901 169.005 501.541 168.357 502.405 167.893C503.269 167.429 504.277 167.197 505.429 167.197ZM520.541 184.837C519.373 184.837 518.237 184.669 517.133 184.333C516.045 184.013 515.157 183.549 514.469 182.941L515.573 181.165C516.165 181.677 516.893 182.077 517.757 182.365C518.621 182.669 519.525 182.821 520.469 182.821C521.973 182.821 523.077 182.469 523.781 181.765C524.485 181.061 524.837 179.989 524.837 178.549L524.837 175.861L525.077 173.341L524.957 170.797L524.957 167.317L527.141 167.317L527.141 178.309C527.141 180.549 526.581 182.197 525.461 183.253C524.341 184.309 522.701 184.837 520.541 184.837ZM520.253 179.509C519.021 179.509 517.917 179.253 516.941 178.741C515.981 178.213 515.213 177.485 514.637 176.557C514.077 175.629 513.797 174.557 513.797 173.341C513.797 172.109 514.077 171.037 514.637 170.125C515.213 169.197 515.981 168.477 516.941 167.965C517.917 167.453 519.021 167.197 520.253 167.197C521.341 167.197 522.333 167.421 523.229 167.869C524.125 168.301 524.837 168.973 525.365 169.885C525.909 170.797 526.181 171.949 526.181 173.341C526.181 174.717 525.909 175.861 525.365 176.773C524.837 177.685 524.125 178.373 523.229 178.837C522.333 179.285 521.341 179.509 520.253 179.509ZM520.517 177.493C521.365 177.493 522.117 177.317 522.773 176.965C523.429 176.613 523.941 176.125 524.309 175.501C524.693 174.877 524.885 174.157 524.885 173.341C524.885 172.525 524.693 171.805 524.309 171.181C523.941 170.557 523.429 170.077 522.773 169.741C522.117 169.389 521.365 169.213 520.517 169.213C519.669 169.213 518.909 169.389 518.237 169.741C517.581 170.077 517.061 170.557 516.677 171.181C516.309 171.805 516.125 172.525 516.125 173.341C516.125 174.157 516.309 174.877 516.677 175.501C517.061 176.125 517.581 176.613 518.237 176.965C518.909 177.317 519.669 177.493 520.517 177.493ZM438.842 204.229C437.562 204.229 436.338 204.037 435.17 203.653C434.002 203.253 433.082 202.741 432.41 202.117L433.298 200.245C433.938 200.805 434.754 201.269 435.746 201.637C436.738 202.005 437.77 202.189 438.842 202.189C439.818 202.189 440.61 202.077 441.218 201.853C441.826 201.629 442.274 201.325 442.562 200.941C442.85 200.541 442.994 200.093 442.994 199.597C442.994 199.021 442.802 198.557 442.418 198.205C442.05 197.853 441.562 197.573 440.954 197.365C440.362 197.141 439.706 196.949 438.986 196.789C438.266 196.629 437.538 196.445 436.802 196.237C436.082 196.013 435.418 195.733 434.81 195.397C434.218 195.061 433.738 194.613 433.37 194.053C433.002 193.477 432.818 192.741 432.818 191.845C432.818 190.981 433.042 190.189 433.49 189.469C433.954 188.733 434.658 188.149 435.602 187.717C436.562 187.269 437.778 187.045 439.25 187.045C440.226 187.045 441.194 187.173 442.154 187.429C443.114 187.685 443.946 188.053 444.65 188.533L443.858 190.453C443.138 189.973 442.378 189.629 441.578 189.421C440.778 189.197 440.002 189.085 439.25 189.085C438.306 189.085 437.53 189.205 436.922 189.445C436.314 189.685 435.866 190.005 435.578 190.405C435.306 190.805 435.17 191.253 435.17 191.749C435.17 192.341 435.354 192.813 435.722 193.165C436.106 193.517 436.594 193.797 437.186 194.005C437.794 194.213 438.458 194.405 439.178 194.581C439.898 194.741 440.618 194.925 441.338 195.133C442.074 195.341 442.738 195.613 443.33 195.949C443.938 196.285 444.426 196.733 444.794 197.293C445.162 197.853 445.346 198.573 445.346 199.453C445.346 200.301 445.114 201.093 444.65 201.829C444.186 202.549 443.466 203.133 442.49 203.581C441.53 204.013 440.314 204.229 438.842 204.229ZM454.18 204.181C452.82 204.181 451.62 203.901 450.58 203.341C449.556 202.781 448.756 202.013 448.18 201.037C447.62 200.061 447.34 198.941 447.34 197.677C447.34 196.413 447.612 195.293 448.156 194.317C448.716 193.341 449.476 192.581 450.436 192.037C451.412 191.477 452.508 191.197 453.724 191.197C454.956 191.197 456.044 191.469 456.988 192.013C457.932 192.557 458.668 193.325 459.196 194.317C459.74 195.293 460.012 196.437 460.012 197.749C460.012 197.845 460.004 197.957 459.988 198.085C459.988 198.213 459.98 198.333 459.964 198.445L449.14 198.445L449.14 196.789L458.764 196.789L457.828 197.365C457.844 196.549 457.676 195.821 457.324 195.181C456.972 194.541 456.484 194.045 455.86 193.693C455.252 193.325 454.54 193.141 453.724 193.141C452.924 193.141 452.212 193.325 451.588 193.693C450.964 194.045 450.476 194.549 450.124 195.205C449.772 195.845 449.596 196.581 449.596 197.413L449.596 197.797C449.596 198.645 449.788 199.405 450.172 200.077C450.572 200.733 451.124 201.245 451.828 201.613C452.532 201.981 453.34 202.165 454.252 202.165C455.004 202.165 455.684 202.037 456.292 201.781C456.916 201.525 457.46 201.141 457.924 200.629L459.196 202.117C458.62 202.789 457.9 203.301 457.036 203.653C456.188 204.005 455.236 204.181 454.18 204.181ZM463.211 204.037L463.211 191.317L465.419 191.317L465.419 194.773L465.203 193.909C465.555 193.029 466.147 192.357 466.979 191.893C467.811 191.429 468.835 191.197 470.051 191.197L470.051 193.429C469.955 193.413 469.859 193.405 469.763 193.405C469.683 193.405 469.603 193.405 469.523 193.405C468.291 193.405 467.315 193.773 466.595 194.509C465.875 195.245 465.515 196.309 465.515 197.701L465.515 204.037L463.211 204.037ZM476.743 204.037L471.175 191.317L473.575 191.317L478.519 202.837L477.367 202.837L482.407 191.317L484.663 191.317L479.095 204.037L476.743 204.037ZM486.813 204.037L486.813 191.317L489.117 191.317L489.117 204.037L486.813 204.037ZM487.965 188.869C487.517 188.869 487.141 188.725 486.837 188.437C486.549 188.149 486.405 187.797 486.405 187.381C486.405 186.949 486.549 186.589 486.837 186.301C487.141 186.013 487.517 185.869 487.965 185.869C488.413 185.869 488.781 186.013 489.069 186.301C489.373 186.573 489.525 186.917 489.525 187.333C489.525 187.765 489.381 188.133 489.093 188.437C488.805 188.725 488.429 188.869 487.965 188.869ZM499.06 204.181C497.764 204.181 496.604 203.901 495.58 203.341C494.572 202.781 493.78 202.013 493.204 201.037C492.628 200.061 492.34 198.941 492.34 197.677C492.34 196.413 492.628 195.293 493.204 194.317C493.78 193.341 494.572 192.581 495.58 192.037C496.604 191.477 497.764 191.197 499.06 191.197C500.212 191.197 501.236 191.429 502.132 191.893C503.044 192.341 503.748 193.013 504.244 193.909L502.492 195.037C502.076 194.413 501.564 193.957 500.956 193.669C500.364 193.365 499.724 193.213 499.036 193.213C498.204 193.213 497.46 193.397 496.804 193.765C496.148 194.133 495.628 194.653 495.244 195.325C494.86 195.981 494.668 196.765 494.668 197.677C494.668 198.589 494.86 199.381 495.244 200.053C495.628 200.725 496.148 201.245 496.804 201.613C497.46 201.981 498.204 202.165 499.036 202.165C499.724 202.165 500.364 202.021 500.956 201.733C501.564 201.429 502.076 200.965 502.492 200.341L504.244 201.445C503.748 202.325 503.044 203.005 502.132 203.485C501.236 203.949 500.212 204.181 499.06 204.181ZM512.703 204.181C511.343 204.181 510.143 203.901 509.103 203.341C508.079 202.781 507.279 202.013 506.703 201.037C506.143 200.061 505.863 198.941 505.863 197.677C505.863 196.413 506.135 195.293 506.679 194.317C507.239 193.341 507.999 192.581 508.959 192.037C509.935 191.477 511.031 191.197 512.247 191.197C513.479 191.197 514.567 191.469 515.511 192.013C516.455 192.557 517.191 193.325 517.719 194.317C518.263 195.293 518.535 196.437 518.535 197.749C518.535 197.845 518.527 197.957 518.511 198.085C518.511 198.213 518.503 198.333 518.487 198.445L507.663 198.445L507.663 196.789L517.287 196.789L516.351 197.365C516.367 196.549 516.199 195.821 515.847 195.181C515.495 194.541 515.007 194.045 514.383 193.693C513.775 193.325 513.063 193.141 512.247 193.141C511.447 193.141 510.735 193.325 510.111 193.693C509.487 194.045 508.999 194.549 508.647 195.205C508.295 195.845 508.119 196.581 508.119 197.413L508.119 197.797C508.119 198.645 508.311 199.405 508.695 200.077C509.095 200.733 509.647 201.245 510.351 201.613C511.055 201.981 511.863 202.165 512.775 202.165C513.527 202.165 514.207 202.037 514.815 201.781C515.439 201.525 515.983 201.141 516.447 200.629L517.719 202.117C517.143 202.789 516.423 203.301 515.559 203.653C514.711 204.005 513.759 204.181 512.703 204.181ZM525.383 204.181C524.327 204.181 523.319 204.037 522.359 203.749C521.415 203.461 520.671 203.109 520.127 202.693L521.087 200.869C521.631 201.237 522.303 201.549 523.103 201.805C523.903 202.061 524.719 202.189 525.551 202.189C526.623 202.189 527.391 202.037 527.855 201.733C528.335 201.429 528.575 201.005 528.575 200.461C528.575 200.061 528.431 199.749 528.143 199.525C527.855 199.301 527.471 199.133 526.991 199.021C526.527 198.909 526.007 198.813 525.431 198.733C524.855 198.637 524.279 198.525 523.703 198.397C523.127 198.253 522.599 198.061 522.119 197.821C521.639 197.565 521.255 197.221 520.967 196.789C520.679 196.341 520.535 195.749 520.535 195.013C520.535 194.245 520.751 193.573 521.183 192.997C521.615 192.421 522.223 191.981 523.007 191.677C523.807 191.357 524.751 191.197 525.839 191.197C526.671 191.197 527.511 191.301 528.359 191.509C529.223 191.701 529.927 191.981 530.471 192.349L529.487 194.173C528.911 193.789 528.311 193.525 527.687 193.381C527.063 193.237 526.439 193.165 525.815 193.165C524.807 193.165 524.055 193.333 523.559 193.669C523.063 193.989 522.815 194.405 522.815 194.917C522.815 195.349 522.959 195.685 523.247 195.925C523.551 196.149 523.935 196.325 524.399 196.453C524.879 196.581 525.407 196.693 525.983 196.789C526.559 196.869 527.135 196.981 527.711 197.125C528.287 197.253 528.807 197.437 529.271 197.677C529.751 197.917 530.135 198.253 530.423 198.685C530.727 199.117 530.879 199.693 530.879 200.413C530.879 201.181 530.655 201.845 530.207 202.405C529.759 202.965 529.127 203.405 528.311 203.725C527.495 204.029 526.519 204.181 525.383 204.181Z" fill="#FEFBF5"/>
</g>
<defs>
<filter id="filter0_d_388_1243" x="-24" y="0.0370483" width="764" height="764" filterUnits="userSpaceOnUse" color-interpolation-filters="sRGB">
<feFlood flood-opacity="0" result="BackgroundImageFix"/>
<feColorMatrix in="SourceAlpha" type="matrix" values="0 0 0 0 0 0 0 0 0 0 0 0 0 0 0 0 0 0 127 0" result="hardAlpha"/>
<feOffset/>
<feGaussianBlur stdDeviation="12"/>
<feComposite in2="hardAlpha" operator="out"/>
<feColorMatrix type="matrix" values="0 0 0 0 0.94902 0 0 0 0 0.639216 0 0 0 0 0.156863 0 0 0 0.2 0"/>
<feBlend mode="normal" in2="BackgroundImageFix" result="effect1_dropShadow_388_1243"/>
<feBlend mode="normal" in="SourceGraphic" in2="effect1_dropShadow_388_1243" result="shape"/>
</filter>
<filter id="filter1_ii_388_1243" x="358" y="24.4221" width="312.322" height="361.248" filterUnits="userSpaceOnUse" color-interpolation-filters="sRGB">
<feFlood flood-opacity="0" result="BackgroundImageFix"/>
<feBlend mode="normal" in="SourceGraphic" in2="BackgroundImageFix" result="shape"/>
<feColorMatrix in="SourceAlpha" type="matrix" values="0 0 0 0 0 0 0 0 0 0 0 0 0 0 0 0 0 0 127 0" result="hardAlpha"/>
<feMorphology radius="8.59104" operator="erode" in="SourceAlpha" result="effect1_innerShadow_388_1243"/>
<feOffset/>
<feGaussianBlur stdDeviation="28.6368"/>
<feComposite in2="hardAlpha" operator="arithmetic" k2="-1" k3="1"/>
<feColorMatrix type="matrix" values="0 0 0 0 0 0 0 0 0 0 0 0 0 0 0 0 0 0 0.25 0"/>
<feBlend mode="normal" in2="shape" result="effect1_innerShadow_388_1243"/>
<feColorMatrix in="SourceAlpha" type="matrix" values="0 0 0 0 0 0 0 0 0 0 0 0 0 0 0 0 0 0 127 0" result="hardAlpha"/>
<feOffset dx="8.59104" dy="8.59104"/>
<feGaussianBlur stdDeviation="21.4776"/>
<feComposite in2="hardAlpha" operator="arithmetic" k2="-1" k3="1"/>
<feColorMatrix type="matrix" values="0 0 0 0 0 0 0 0 0 0 0 0 0 0 0 0 0 0 0.25 0"/>
<feBlend mode="normal" in2="effect1_innerShadow_388_1243" result="effect2_innerShadow_388_1243"/>
</filter>
</defs>
</svg>
