<svg width="352" height="304" viewBox="0 0 352 304" fill="none" xmlns="http://www.w3.org/2000/svg">
<g filter="url(#filter0_ii_745_12066)">
<path d="M335.416 0C344.787 0 352.426 7.62256 351.982 17.0091C349.281 73.9985 333.041 129.607 304.511 179.159C275.981 228.711 236.075 270.618 188.206 301.458C180.322 306.537 169.919 303.715 165.234 295.576L0.495857 9.45578C-0.53745 7.66111 0.207439 5.37785 1.24075 3.58317C2.27405 1.7885 3.87354 0 5.94015 0L335.416 0Z" fill="#ED6F1B"/>
</g>
<path d="M347.986 16.8198C345.315 73.1749 329.256 128.164 301.044 177.163C272.832 226.162 233.372 267.6 186.04 298.095C180.189 301.865 172.311 299.852 168.7 293.581L3.99982 7.525C3.99793 7.47835 4.00094 7.38753 4.02821 7.23824C4.10487 6.81858 4.32704 6.23937 4.70723 5.57905C5.08761 4.91839 5.47625 4.43695 5.79849 4.16214C5.90741 4.06925 5.9811 4.02218 6.02191 4L335.416 4C342.62 4 348.317 9.82857 347.986 16.8198ZM4.00428 7.56438C4.00396 7.56462 4.00273 7.55999 4.00159 7.54976C4.00404 7.55902 4.00461 7.56414 4.00428 7.56438ZM6.06049 3.98249C6.06045 3.98289 6.05578 3.98498 6.04663 3.98759C6.05596 3.9834 6.06054 3.9821 6.06049 3.98249Z" stroke="white" stroke-width="8"/>
<defs>
<filter id="filter0_ii_745_12066" x="0" y="0" width="360.591" height="312.591" filterUnits="userSpaceOnUse" color-interpolation-filters="sRGB">
<feFlood flood-opacity="0" result="BackgroundImageFix"/>
<feBlend mode="normal" in="SourceGraphic" in2="BackgroundImageFix" result="shape"/>
<feColorMatrix in="SourceAlpha" type="matrix" values="0 0 0 0 0 0 0 0 0 0 0 0 0 0 0 0 0 0 127 0" result="hardAlpha"/>
<feMorphology radius="8.59104" operator="erode" in="SourceAlpha" result="effect1_innerShadow_745_12066"/>
<feOffset/>
<feGaussianBlur stdDeviation="28.6368"/>
<feComposite in2="hardAlpha" operator="arithmetic" k2="-1" k3="1"/>
<feColorMatrix type="matrix" values="0 0 0 0 0 0 0 0 0 0 0 0 0 0 0 0 0 0 0.25 0"/>
<feBlend mode="normal" in2="shape" result="effect1_innerShadow_745_12066"/>
<feColorMatrix in="SourceAlpha" type="matrix" values="0 0 0 0 0 0 0 0 0 0 0 0 0 0 0 0 0 0 127 0" result="hardAlpha"/>
<feOffset dx="8.59104" dy="8.59104"/>
<feGaussianBlur stdDeviation="21.4776"/>
<feComposite in2="hardAlpha" operator="arithmetic" k2="-1" k3="1"/>
<feColorMatrix type="matrix" values="0 0 0 0 0 0 0 0 0 0 0 0 0 0 0 0 0 0 0.25 0"/>
<feBlend mode="normal" in2="effect1_innerShadow_745_12066" result="effect2_innerShadow_745_12066"/>
</filter>
</defs>
</svg>
