<svg width="353" height="304" viewBox="0 0 353 304" fill="none" xmlns="http://www.w3.org/2000/svg">
<g filter="url(#filter0_ii_745_12061)">
<path d="M336.369 0C345.767 0 353.428 7.62256 352.981 17.0091C350.273 73.9985 333.987 129.607 305.376 179.159C276.765 228.711 236.745 270.618 188.741 301.458C180.834 306.537 170.402 303.715 165.703 295.576L0.497266 9.45578C-0.538977 7.66111 0.208028 5.37785 1.24427 3.58317C2.28051 1.7885 3.88454 0 5.95703 0H336.369Z" fill="#0471AA"/>
</g>
<path d="M349.985 16.8667C347.299 73.3789 331.15 128.522 302.778 177.659C274.406 226.796 234.722 268.352 187.12 298.934C180.733 303.037 172.192 300.814 168.301 294.076L3.09529 7.95568C3.03527 7.85174 2.94378 7.60979 3.04448 7.06003C3.14863 6.49151 3.42683 5.80281 3.84229 5.08327C4.25775 4.36373 4.71514 3.77845 5.15551 3.40397C5.58135 3.04184 5.83679 3 5.95703 3H336.369C344.15 3 350.345 9.28529 349.985 16.8667Z" stroke="white" stroke-width="6"/>
<defs>
<filter id="filter0_ii_745_12061" x="0" y="0" width="361.591" height="312.591" filterUnits="userSpaceOnUse" color-interpolation-filters="sRGB">
<feFlood flood-opacity="0" result="BackgroundImageFix"/>
<feBlend mode="normal" in="SourceGraphic" in2="BackgroundImageFix" result="shape"/>
<feColorMatrix in="SourceAlpha" type="matrix" values="0 0 0 0 0 0 0 0 0 0 0 0 0 0 0 0 0 0 127 0" result="hardAlpha"/>
<feMorphology radius="8.59104" operator="erode" in="SourceAlpha" result="effect1_innerShadow_745_12061"/>
<feOffset/>
<feGaussianBlur stdDeviation="28.6368"/>
<feComposite in2="hardAlpha" operator="arithmetic" k2="-1" k3="1"/>
<feColorMatrix type="matrix" values="0 0 0 0 0 0 0 0 0 0 0 0 0 0 0 0 0 0 0.25 0"/>
<feBlend mode="normal" in2="shape" result="effect1_innerShadow_745_12061"/>
<feColorMatrix in="SourceAlpha" type="matrix" values="0 0 0 0 0 0 0 0 0 0 0 0 0 0 0 0 0 0 127 0" result="hardAlpha"/>
<feOffset dx="8.59104" dy="8.59104"/>
<feGaussianBlur stdDeviation="21.4776"/>
<feComposite in2="hardAlpha" operator="arithmetic" k2="-1" k3="1"/>
<feColorMatrix type="matrix" values="0 0 0 0 0 0 0 0 0 0 0 0 0 0 0 0 0 0 0.25 0"/>
<feBlend mode="normal" in2="effect1_innerShadow_745_12061" result="effect2_innerShadow_745_12061"/>
</filter>
</defs>
</svg>
