<svg width="353" height="305" viewBox="0 0 353 305" fill="none" xmlns="http://www.w3.org/2000/svg">
<g filter="url(#filter0_ii_745_12061)">
<path d="M335.467 0.198242C344.838 0.198242 352.477 7.8208 352.032 17.2074C349.332 74.1968 333.092 129.805 304.562 179.357C276.031 228.909 236.126 270.816 188.257 301.656C180.373 306.735 169.97 303.913 165.285 295.775L0.546639 9.65402C-0.486669 7.85935 0.25822 5.57609 1.29153 3.78142C2.32483 1.98674 3.92432 0.198242 5.99093 0.198242L335.467 0.198242Z" fill="#F80094"/>
</g>
<path d="M335.467 4.19824C342.671 4.19824 348.368 10.0268 348.037 17.018C345.366 73.3731 329.307 128.362 301.095 177.361C272.883 226.36 233.423 267.799 186.091 298.293C180.24 302.063 172.362 300.05 168.751 293.779L4.0506 7.72324C4.04871 7.67659 4.05172 7.58577 4.079 7.43648C4.15565 7.01682 4.37782 6.43761 4.75801 5.77729C5.13839 5.11664 5.52703 4.63519 5.84927 4.36038C5.9582 4.26749 6.03188 4.22042 6.07269 4.19824L335.467 4.19824ZM4.05506 7.76262C4.05474 7.76286 4.05351 7.75823 4.05237 7.748C4.05482 7.75727 4.05539 7.76238 4.05506 7.76262ZM6.11127 4.18073C6.11123 4.18113 6.10656 4.18322 6.09741 4.18584C6.10674 4.18165 6.11132 4.18034 6.11127 4.18073Z" stroke="white" stroke-width="8"/>
<defs>
<filter id="filter0_ii_745_12061" x="0.0507812" y="0.198242" width="360.591" height="312.591" filterUnits="userSpaceOnUse" color-interpolation-filters="sRGB">
<feFlood flood-opacity="0" result="BackgroundImageFix"/>
<feBlend mode="normal" in="SourceGraphic" in2="BackgroundImageFix" result="shape"/>
<feColorMatrix in="SourceAlpha" type="matrix" values="0 0 0 0 0 0 0 0 0 0 0 0 0 0 0 0 0 0 127 0" result="hardAlpha"/>
<feMorphology radius="8.59104" operator="erode" in="SourceAlpha" result="effect1_innerShadow_745_12061"/>
<feOffset/>
<feGaussianBlur stdDeviation="28.6368"/>
<feComposite in2="hardAlpha" operator="arithmetic" k2="-1" k3="1"/>
<feColorMatrix type="matrix" values="0 0 0 0 0 0 0 0 0 0 0 0 0 0 0 0 0 0 0.25 0"/>
<feBlend mode="normal" in2="shape" result="effect1_innerShadow_745_12061"/>
<feColorMatrix in="SourceAlpha" type="matrix" values="0 0 0 0 0 0 0 0 0 0 0 0 0 0 0 0 0 0 127 0" result="hardAlpha"/>
<feOffset dx="8.59104" dy="8.59104"/>
<feGaussianBlur stdDeviation="21.4776"/>
<feComposite in2="hardAlpha" operator="arithmetic" k2="-1" k3="1"/>
<feColorMatrix type="matrix" values="0 0 0 0 0 0 0 0 0 0 0 0 0 0 0 0 0 0 0.25 0"/>
<feBlend mode="normal" in2="effect1_innerShadow_745_12061" result="effect2_innerShadow_745_12061"/>
</filter>
</defs>
</svg>
