<svg width="740" height="717" viewBox="0 0 740 717" fill="none" xmlns="http://www.w3.org/2000/svg">
<g filter="url(#filter0_d_743_12109)">
<mask id="path-1-inside-1_743_12109" fill="white">
<path d="M699.037 358.037C708.426 358.037 716.079 365.653 715.634 375.031C712.928 431.97 696.658 487.529 668.074 537.037C639.491 586.545 599.51 628.415 551.553 659.228C543.654 664.303 533.232 661.483 528.537 653.352L363.492 367.485C362.456 365.691 363.203 363.41 364.238 361.617C365.273 359.824 366.876 358.037 368.946 358.037H699.037Z"/>
</mask>
<g filter="url(#filter1_ii_743_12109)">
<path d="M699.037 358.037C708.426 358.037 716.079 365.653 715.634 375.031C712.928 431.97 696.658 487.529 668.074 537.037C639.491 586.545 599.51 628.415 551.553 659.228C543.654 664.303 533.232 661.483 528.537 653.352L363.492 367.485C362.456 365.691 363.203 363.41 364.238 361.617C365.273 359.824 366.876 358.037 368.946 358.037H699.037Z" fill="#E64A19"/>
</g>
<path d="M699.037 358.037C708.426 358.037 716.079 365.653 715.634 375.031C712.928 431.97 696.658 487.529 668.074 537.037C639.491 586.545 599.51 628.415 551.553 659.228C543.654 664.303 533.232 661.483 528.537 653.352L363.492 367.485C362.456 365.691 363.203 363.41 364.238 361.617C365.273 359.824 366.876 358.037 368.946 358.037H699.037Z" stroke="white" stroke-width="12" mask="url(#path-1-inside-1_743_12109)"/>
<path d="M505.279 438.352C504.171 437.712 503.249 436.94 502.515 436.035C501.803 435.125 501.292 434.138 500.983 433.072C500.696 432.002 500.619 430.904 500.751 429.779C500.883 428.654 501.261 427.552 501.885 426.471C502.509 425.39 503.275 424.511 504.183 423.835C505.091 423.158 506.083 422.687 507.16 422.422C508.245 422.143 509.355 422.091 510.492 422.267C511.65 422.437 512.783 422.842 513.892 423.482C515.014 424.13 515.935 424.92 516.653 425.852C517.393 426.778 517.88 427.807 518.113 428.939L516.006 429.469C515.787 428.567 515.412 427.777 514.879 427.1C514.354 426.409 513.697 425.836 512.907 425.38C512.09 424.908 511.247 424.606 510.381 424.475C509.528 424.353 508.701 424.393 507.901 424.595C507.1 424.798 506.354 425.162 505.663 425.687C504.994 426.206 504.427 426.867 503.963 427.671C503.499 428.474 503.206 429.303 503.083 430.156C502.982 431.003 503.044 431.823 503.269 432.618C503.493 433.413 503.872 434.149 504.405 434.826C504.951 435.511 505.634 436.09 506.451 436.562C507.241 437.018 508.062 437.307 508.915 437.43C509.776 437.539 510.655 437.456 511.554 437.18L512.149 439.269C511.052 439.634 509.913 439.734 508.733 439.57C507.567 439.414 506.415 439.008 505.279 438.352ZM517.778 445.512C516.669 444.872 515.826 444.062 515.247 443.081C514.667 442.1 514.373 441.043 514.362 439.91C514.359 438.763 514.669 437.649 515.293 436.568C515.925 435.473 516.735 434.647 517.722 434.09C518.709 433.533 519.767 433.267 520.899 433.291C522.038 433.303 523.161 433.628 524.27 434.268C525.365 434.9 526.202 435.707 526.781 436.687C527.382 437.663 527.681 438.713 527.678 439.838C527.696 440.957 527.386 442.071 526.746 443.18C526.114 444.275 525.304 445.1 524.318 445.658C523.345 446.223 522.282 446.496 521.129 446.477C519.99 446.466 518.873 446.144 517.778 445.512ZM518.786 443.767C519.493 444.175 520.215 444.379 520.953 444.381C521.705 444.39 522.409 444.196 523.064 443.798C523.726 443.386 524.282 442.792 524.73 442.016C525.186 441.226 525.418 440.455 525.428 439.703C525.445 438.937 525.261 438.231 524.877 437.584C524.507 436.945 523.969 436.422 523.262 436.014C522.555 435.606 521.833 435.401 521.095 435.4C520.356 435.399 519.653 435.593 518.984 435.983C518.324 436.359 517.766 436.942 517.31 437.732C516.862 438.508 516.632 439.29 516.62 440.078C516.617 440.852 516.8 441.558 517.171 442.197C517.541 442.835 518.079 443.359 518.786 443.767ZM538.627 442.557C539.528 443.077 540.218 443.706 540.697 444.445C541.19 445.191 541.426 446.03 541.406 446.96C541.386 447.891 541.064 448.897 540.44 449.978L536.78 456.317L534.785 455.165L538.313 449.054C538.929 447.987 539.129 447.032 538.915 446.187C538.714 445.351 538.143 444.661 537.2 444.117C536.494 443.709 535.797 443.491 535.111 443.464C534.424 443.437 533.779 443.61 533.176 443.983C532.587 444.363 532.061 444.955 531.597 445.759L528.321 451.433L526.325 450.281L532.685 439.265L534.597 440.369L532.881 443.341L533.026 442.372C533.802 441.859 534.68 441.618 535.66 441.648C536.641 441.678 537.63 441.981 538.627 442.557ZM543.56 460.398C542.645 459.87 541.844 459.241 541.157 458.512C540.483 457.79 540.015 457.113 539.752 456.481L541.495 455.381C541.783 455.972 542.208 456.578 542.773 457.2C543.338 457.822 543.981 458.341 544.701 458.757C545.63 459.293 546.371 459.545 546.925 459.514C547.492 459.49 547.912 459.243 548.184 458.772C548.384 458.426 548.415 458.083 548.278 457.745C548.141 457.407 547.892 457.07 547.532 456.733C547.187 456.404 546.784 456.061 546.325 455.704C545.875 455.332 545.432 454.947 544.997 454.549C544.57 454.136 544.209 453.706 543.913 453.258C543.625 452.796 543.465 452.306 543.431 451.788C543.406 451.256 543.577 450.671 543.945 450.034C544.329 449.369 544.852 448.895 545.515 448.612C546.177 448.329 546.923 448.252 547.754 448.381C548.607 448.504 549.505 448.837 550.447 449.381C551.167 449.797 551.843 450.307 552.473 450.911C553.125 451.51 553.595 452.104 553.882 452.695L552.118 453.782C551.811 453.162 551.424 452.633 550.955 452.197C550.487 451.76 549.982 451.386 549.442 451.074C548.569 450.57 547.834 450.339 547.236 450.382C546.647 450.411 546.224 450.647 545.968 451.091C545.752 451.465 545.709 451.828 545.838 452.18C545.989 452.526 546.234 452.87 546.572 453.213C546.923 453.564 547.325 453.925 547.775 454.296C548.234 454.653 548.677 455.038 549.104 455.451C549.539 455.85 549.897 456.269 550.179 456.709C550.475 457.157 550.639 457.64 550.673 458.158C550.72 458.684 550.564 459.259 550.204 459.882C549.82 460.548 549.294 461.011 548.626 461.272C547.958 461.533 547.19 461.598 546.324 461.467C545.465 461.322 544.544 460.966 543.56 460.398ZM555.448 467.261C554.506 466.717 553.775 466.064 553.254 465.302C552.747 464.547 552.497 463.701 552.503 462.762C552.531 461.818 552.857 460.805 553.481 459.724L557.141 453.385L559.137 454.537L555.609 460.647C554.985 461.728 554.773 462.687 554.974 463.523C555.188 464.368 555.767 465.062 556.709 465.606C557.402 466.006 558.084 466.215 558.757 466.234C559.438 466.239 560.073 466.052 560.662 465.671C561.259 465.277 561.781 464.692 562.229 463.916L565.517 458.221L567.513 459.373L561.153 470.389L559.261 469.297L560.977 466.324L560.833 467.294C560.049 467.821 559.18 468.077 558.228 468.063C557.275 468.048 556.349 467.781 555.448 467.261ZM564.951 472.582L573.855 457.16L575.851 458.312L566.947 473.734L564.951 472.582ZM574.751 478.406C573.643 477.766 572.956 476.972 572.69 476.024C572.424 475.077 572.612 474.048 573.252 472.94L579.084 462.839L581.079 463.991L575.295 474.009C574.951 474.605 574.832 475.146 574.939 475.632C575.06 476.127 575.398 476.535 575.952 476.855C576.576 477.215 577.195 477.341 577.811 477.235L577.606 479.029C577.15 479.116 576.67 479.098 576.169 478.975C575.681 478.86 575.209 478.67 574.751 478.406ZM574.873 465.812L575.821 464.17L582.846 468.226L581.898 469.868L574.873 465.812ZM579.647 481.066L586.007 470.05L588.002 471.202L581.642 482.218L579.647 481.066ZM588.228 468.506C587.84 468.282 587.587 467.97 587.467 467.568C587.362 467.175 587.413 466.798 587.621 466.438C587.837 466.063 588.142 465.824 588.535 465.718C588.943 465.621 589.34 465.684 589.728 465.908C590.116 466.132 590.363 466.441 590.468 466.834C590.596 467.222 590.555 467.596 590.347 467.956C590.131 468.33 589.823 468.577 589.421 468.696C589.028 468.802 588.63 468.738 588.228 468.506ZM597.754 476.694C598.654 477.214 599.344 477.843 599.823 478.582C600.316 479.328 600.552 480.166 600.532 481.097C600.512 482.028 600.19 483.034 599.566 484.114L595.906 490.454L593.911 489.302L597.439 483.191C598.055 482.124 598.256 481.168 598.041 480.324C597.841 479.488 597.269 478.797 596.327 478.253C595.62 477.845 594.924 477.628 594.237 477.601C593.551 477.574 592.906 477.747 592.303 478.119C591.714 478.5 591.187 479.092 590.723 479.895L587.447 485.57L585.452 484.418L591.812 473.402L593.724 474.506L592.008 477.478L592.152 476.508C592.928 475.996 593.807 475.755 594.787 475.785C595.767 475.815 596.756 476.118 597.754 476.694ZM602.021 499.527C601.01 498.943 600.11 498.229 599.322 497.386C598.539 496.565 598.002 495.719 597.711 494.849L599.555 493.863C599.811 494.602 600.242 495.312 600.846 495.994C601.442 496.689 602.149 497.273 602.967 497.745C604.269 498.497 605.401 498.744 606.363 498.486C607.325 498.228 608.166 497.476 608.886 496.229L610.23 493.901L611.697 491.839L612.865 489.576L614.605 486.562L616.497 487.654L611.001 497.173C609.881 499.113 608.572 500.26 607.074 500.615C605.576 500.969 603.892 500.607 602.021 499.527ZM604.436 494.768C603.369 494.152 602.541 493.379 601.951 492.447C601.384 491.51 601.083 490.496 601.048 489.404C601.027 488.32 601.321 487.252 601.929 486.199C602.545 485.132 603.323 484.343 604.264 483.834C605.227 483.318 606.252 483.078 607.339 483.115C608.441 483.16 609.525 483.49 610.592 484.106C611.534 484.65 612.281 485.34 612.833 486.176C613.393 486.998 613.674 487.936 613.675 488.99C613.69 490.052 613.35 491.185 612.654 492.391C611.966 493.582 611.158 494.437 610.231 494.955C609.318 495.481 608.357 495.721 607.349 495.674C606.349 495.614 605.378 495.312 604.436 494.768ZM605.672 493.154C606.407 493.578 607.146 493.802 607.89 493.825C608.634 493.848 609.322 493.682 609.952 493.325C610.597 492.977 611.123 492.449 611.531 491.743C611.939 491.036 612.133 490.317 612.112 489.584C612.106 488.86 611.902 488.188 611.502 487.569C611.11 486.936 610.547 486.408 609.812 485.984C609.078 485.56 608.332 485.332 607.574 485.301C606.838 485.264 606.147 485.42 605.503 485.768C604.872 486.125 604.353 486.656 603.945 487.363C603.537 488.069 603.336 488.785 603.343 489.509C603.363 490.242 603.57 490.924 603.962 491.557C604.368 492.198 604.938 492.73 605.672 493.154ZM505.334 466.096C504.225 465.456 503.261 464.678 502.441 463.761C501.63 462.831 501.089 461.927 500.819 461.051L502.524 459.874C502.799 460.679 503.273 461.488 503.948 462.303C504.623 463.118 505.425 463.793 506.354 464.329C507.199 464.817 507.941 465.116 508.579 465.226C509.218 465.336 509.758 465.297 510.199 465.108C510.649 464.906 510.997 464.59 511.245 464.16C511.533 463.662 511.599 463.164 511.442 462.667C511.3 462.178 511.017 461.692 510.595 461.208C510.194 460.718 509.722 460.223 509.178 459.725C508.635 459.226 508.096 458.703 507.563 458.155C507.051 457.601 506.616 457.026 506.258 456.431C505.913 455.844 505.721 455.216 505.683 454.547C505.652 453.864 505.861 453.135 506.309 452.359C506.741 451.611 507.331 451.037 508.079 450.637C508.848 450.232 509.75 450.078 510.784 450.176C511.839 450.268 513.004 450.682 514.279 451.418C515.124 451.906 515.898 452.501 516.602 453.203C517.305 453.904 517.842 454.639 518.211 455.407L516.565 456.674C516.182 455.898 515.696 455.22 515.107 454.64C514.526 454.046 513.91 453.561 513.259 453.185C512.441 452.713 511.709 452.429 511.063 452.333C510.416 452.236 509.868 452.29 509.419 452.492C508.983 452.702 508.641 453.022 508.393 453.452C508.097 453.965 508.021 454.465 508.164 454.954C508.32 455.451 508.603 455.938 509.011 456.414C509.434 456.898 509.913 457.396 510.448 457.908C510.992 458.407 511.524 458.926 512.043 459.467C512.576 460.015 513.016 460.582 513.36 461.169C513.719 461.764 513.917 462.396 513.956 463.065C513.995 463.734 513.794 464.45 513.354 465.212C512.93 465.946 512.333 466.516 511.563 466.921C510.802 467.313 509.886 467.459 508.817 467.359C507.769 467.253 506.608 466.832 505.334 466.096ZM518.641 473.723C517.463 473.043 516.564 472.201 515.943 471.196C515.336 470.199 515.027 469.134 515.017 468.001C515.02 466.875 515.337 465.765 515.969 464.671C516.601 463.576 517.397 462.742 518.356 462.169C519.329 461.604 520.367 461.326 521.47 461.334C522.596 461.337 523.685 461.643 524.738 462.251C525.805 462.867 526.611 463.647 527.157 464.59C527.702 465.533 527.956 466.566 527.917 467.689C527.9 468.806 527.563 469.933 526.907 471.069C526.859 471.152 526.797 471.245 526.719 471.348C526.655 471.459 526.588 471.559 526.518 471.648L517.144 466.236L517.972 464.802L526.307 469.614L525.208 469.645C525.63 468.946 525.848 468.231 525.864 467.501C525.879 466.771 525.704 466.097 525.34 465.481C524.997 464.858 524.473 464.343 523.766 463.935C523.073 463.535 522.364 463.338 521.64 463.345C520.924 463.337 520.249 463.53 519.616 463.922C518.991 464.3 518.471 464.85 518.055 465.57L517.863 465.903C517.439 466.637 517.225 467.391 517.222 468.165C517.24 468.933 517.462 469.653 517.888 470.324C518.314 470.994 518.921 471.558 519.711 472.014C520.362 472.39 521.015 472.619 521.67 472.701C522.338 472.791 523.001 472.731 523.659 472.519L524.017 474.444C523.182 474.738 522.302 474.821 521.378 474.694C520.468 474.575 519.555 474.251 518.641 473.723ZM526.534 478.114L532.894 467.099L534.806 468.203L533.078 471.196L533.323 470.339C534.068 469.753 534.917 469.467 535.869 469.481C536.822 469.496 537.825 469.807 538.878 470.415L537.762 472.348C537.687 472.286 537.608 472.231 537.524 472.183C537.455 472.143 537.386 472.103 537.317 472.063C536.25 471.447 535.22 471.278 534.229 471.555C533.237 471.832 532.393 472.574 531.697 473.779L528.529 479.266L526.534 478.114ZM538.253 484.88L539.791 471.08L541.869 472.28L540.391 484.729L539.393 484.153L549.518 476.696L551.472 477.824L540.29 486.056L538.253 484.88ZM546.974 489.915L553.334 478.899L555.329 480.051L548.969 491.067L546.974 489.915ZM555.555 477.355C555.167 477.131 554.914 476.819 554.795 476.417C554.689 476.024 554.74 475.647 554.948 475.287C555.164 474.913 555.469 474.673 555.863 474.567C556.27 474.47 556.667 474.533 557.055 474.757C557.443 474.981 557.69 475.29 557.795 475.683C557.923 476.071 557.882 476.445 557.674 476.805C557.458 477.179 557.15 477.426 556.748 477.545C556.355 477.651 555.957 477.587 555.555 477.355ZM557.508 496.163C556.386 495.515 555.521 494.693 554.914 493.696C554.321 492.707 554.019 491.646 554.009 490.513C553.998 489.379 554.308 488.265 554.94 487.171C555.572 486.076 556.382 485.25 557.369 484.693C558.355 484.136 559.421 483.874 560.566 483.906C561.733 483.933 562.878 484.271 564 484.919C564.998 485.495 565.769 486.208 566.312 487.058C566.878 487.902 567.152 488.836 567.134 489.86L565.052 489.961C565.004 489.212 564.789 488.561 564.406 488.008C564.045 487.449 563.567 486.997 562.971 486.653C562.251 486.237 561.514 486.024 560.762 486.015C560.01 486.006 559.3 486.196 558.631 486.586C557.971 486.962 557.412 487.545 556.956 488.335C556.5 489.125 556.271 489.907 556.267 490.681C556.264 491.454 556.454 492.165 556.838 492.812C557.222 493.458 557.775 493.99 558.495 494.406C559.091 494.75 559.717 494.945 560.374 494.991C561.053 495.032 561.728 494.886 562.4 494.554L563.366 496.386C562.496 496.9 561.546 497.137 560.516 497.097C559.509 497.051 558.506 496.739 557.508 496.163ZM569.324 502.985C568.146 502.305 567.247 501.463 566.626 500.458C566.019 499.461 565.71 498.396 565.699 497.262C565.702 496.137 566.02 495.027 566.652 493.933C567.284 492.838 568.08 492.004 569.039 491.431C570.012 490.865 571.05 490.587 572.153 490.596C573.278 490.599 574.368 490.905 575.421 491.513C576.488 492.129 577.294 492.908 577.839 493.851C578.385 494.794 578.638 495.828 578.6 496.951C578.583 498.068 578.246 499.195 577.59 500.331C577.542 500.414 577.479 500.507 577.401 500.61C577.337 500.721 577.271 500.821 577.201 500.91L567.827 495.498L568.655 494.064L576.989 498.876L575.891 498.906C576.313 498.208 576.531 497.493 576.546 496.763C576.562 496.033 576.387 495.359 576.023 494.742C575.68 494.12 575.155 493.604 574.449 493.196C573.756 492.796 573.047 492.6 572.323 492.606C571.606 492.599 570.932 492.792 570.299 493.184C569.674 493.562 569.154 494.111 568.738 494.832L568.546 495.164C568.122 495.899 567.908 496.653 567.905 497.427C567.923 498.195 568.145 498.915 568.571 499.585C568.996 500.256 569.604 500.819 570.394 501.275C571.045 501.651 571.698 501.88 572.353 501.963C573.021 502.053 573.684 501.992 574.342 501.781L574.7 503.706C573.865 504 572.985 504.083 572.061 503.956C571.151 503.837 570.238 503.513 569.324 502.985ZM580.304 509.325C579.39 508.797 578.589 508.168 577.901 507.439C577.228 506.717 576.759 506.04 576.496 505.408L578.24 504.309C578.527 504.899 578.953 505.505 579.518 506.127C580.082 506.749 580.725 507.268 581.446 507.684C582.374 508.22 583.115 508.472 583.669 508.441C584.237 508.418 584.657 508.17 584.929 507.699C585.129 507.353 585.16 507.011 585.022 506.673C584.885 506.335 584.636 505.997 584.277 505.66C583.931 505.331 583.529 504.988 583.07 504.631C582.619 504.26 582.176 503.875 581.741 503.476C581.314 503.063 580.953 502.633 580.658 502.185C580.37 501.723 580.209 501.233 580.176 500.715C580.15 500.183 580.322 499.599 580.69 498.961C581.074 498.296 581.597 497.822 582.259 497.539C582.921 497.256 583.668 497.179 584.499 497.308C585.351 497.431 586.249 497.764 587.191 498.308C587.912 498.724 588.587 499.234 589.217 499.839C589.87 500.437 590.339 501.031 590.627 501.622L588.862 502.71C588.556 502.089 588.168 501.56 587.7 501.124C587.231 500.687 586.727 500.313 586.186 500.001C585.313 499.497 584.578 499.266 583.981 499.309C583.391 499.338 582.968 499.575 582.712 500.018C582.496 500.392 582.453 500.755 582.582 501.107C582.734 501.453 582.978 501.797 583.316 502.14C583.668 502.491 584.069 502.852 584.52 503.223C584.979 503.58 585.421 503.965 585.848 504.378C586.283 504.777 586.641 505.196 586.923 505.636C587.219 506.084 587.384 506.567 587.417 507.085C587.464 507.611 587.308 508.186 586.948 508.81C586.564 509.475 586.038 509.938 585.37 510.199C584.702 510.46 583.935 510.525 583.068 510.394C582.209 510.249 581.288 509.893 580.304 509.325Z" fill="white"/>
</g>
<defs>
<filter id="filter0_d_743_12109" x="-23.9629" y="-23.9629" width="764" height="764" filterUnits="userSpaceOnUse" color-interpolation-filters="sRGB">
<feFlood flood-opacity="0" result="BackgroundImageFix"/>
<feColorMatrix in="SourceAlpha" type="matrix" values="0 0 0 0 0 0 0 0 0 0 0 0 0 0 0 0 0 0 127 0" result="hardAlpha"/>
<feOffset/>
<feGaussianBlur stdDeviation="12"/>
<feComposite in2="hardAlpha" operator="out"/>
<feColorMatrix type="matrix" values="0 0 0 0 0.94902 0 0 0 0 0.639216 0 0 0 0 0.156863 0 0 0 0.2 0"/>
<feBlend mode="normal" in2="BackgroundImageFix" result="effect1_dropShadow_743_12109"/>
<feBlend mode="normal" in="SourceGraphic" in2="effect1_dropShadow_743_12109" result="shape"/>
</filter>
<filter id="filter1_ii_743_12109" x="362.994" y="358.037" width="361.249" height="312.322" filterUnits="userSpaceOnUse" color-interpolation-filters="sRGB">
<feFlood flood-opacity="0" result="BackgroundImageFix"/>
<feBlend mode="normal" in="SourceGraphic" in2="BackgroundImageFix" result="shape"/>
<feColorMatrix in="SourceAlpha" type="matrix" values="0 0 0 0 0 0 0 0 0 0 0 0 0 0 0 0 0 0 127 0" result="hardAlpha"/>
<feMorphology radius="8.59104" operator="erode" in="SourceAlpha" result="effect1_innerShadow_743_12109"/>
<feOffset/>
<feGaussianBlur stdDeviation="28.6368"/>
<feComposite in2="hardAlpha" operator="arithmetic" k2="-1" k3="1"/>
<feColorMatrix type="matrix" values="0 0 0 0 0 0 0 0 0 0 0 0 0 0 0 0 0 0 0.25 0"/>
<feBlend mode="normal" in2="shape" result="effect1_innerShadow_743_12109"/>
<feColorMatrix in="SourceAlpha" type="matrix" values="0 0 0 0 0 0 0 0 0 0 0 0 0 0 0 0 0 0 127 0" result="hardAlpha"/>
<feOffset dx="8.59104" dy="8.59104"/>
<feGaussianBlur stdDeviation="21.4776"/>
<feComposite in2="hardAlpha" operator="arithmetic" k2="-1" k3="1"/>
<feColorMatrix type="matrix" values="0 0 0 0 0 0 0 0 0 0 0 0 0 0 0 0 0 0 0.25 0"/>
<feBlend mode="normal" in2="effect1_innerShadow_743_12109" result="effect2_innerShadow_743_12109"/>
</filter>
</defs>
</svg>
