<svg width="740" height="717" viewBox="0 0 740 717" fill="none" xmlns="http://www.w3.org/2000/svg">
<g filter="url(#filter0_d_743_12115)">
<mask id="path-1-inside-1_743_12115" fill="white">
<path d="M699.037 358.037C708.426 358.037 716.079 365.653 715.634 375.031C712.928 431.97 696.658 487.529 668.074 537.037C639.491 586.545 599.51 628.415 551.553 659.228C543.654 664.303 533.232 661.483 528.537 653.352L363.492 367.485C362.456 365.691 363.203 363.41 364.238 361.617C365.273 359.824 366.876 358.037 368.946 358.037H699.037Z"/>
</mask>
<g filter="url(#filter1_ii_743_12115)">
<path d="M699.037 358.037C708.426 358.037 716.079 365.653 715.634 375.031C712.928 431.97 696.658 487.529 668.074 537.037C639.491 586.545 599.51 628.415 551.553 659.228C543.654 664.303 533.232 661.483 528.537 653.352L363.492 367.485C362.456 365.691 363.203 363.41 364.238 361.617C365.273 359.824 366.876 358.037 368.946 358.037H699.037Z" fill="#91C23F"/>
</g>
<path d="M699.037 358.037C708.426 358.037 716.079 365.653 715.634 375.031C712.928 431.97 696.658 487.529 668.074 537.037C639.491 586.545 599.51 628.415 551.553 659.228C543.654 664.303 533.232 661.483 528.537 653.352L363.492 367.485C362.456 365.691 363.203 363.41 364.238 361.617C365.273 359.824 366.876 358.037 368.946 358.037H699.037Z" stroke="white" stroke-width="12" mask="url(#path-1-inside-1_743_12115)"/>
<path d="M608.787 449.913L617.187 464.463L611.056 468.003C609.504 468.899 607.963 469.382 606.433 469.452C604.89 469.53 603.476 469.21 602.193 468.492C600.896 467.781 599.831 466.705 598.999 465.264C598.167 463.823 597.768 462.363 597.801 460.884C597.82 459.414 598.25 458.03 599.089 456.732C599.915 455.442 601.104 454.349 602.656 453.453L608.787 449.913ZM607.753 452.922L603.825 455.19C602.619 455.886 601.712 456.714 601.103 457.675C600.48 458.645 600.162 459.678 600.149 460.776C600.144 461.887 600.454 462.983 601.078 464.064C601.71 465.159 602.504 465.975 603.461 466.512C604.418 467.05 605.472 467.291 606.623 467.236C607.76 467.19 608.931 466.818 610.137 466.122L614.065 463.854L607.753 452.922ZM591.907 459.659L598.267 470.675L596.271 471.827L589.911 460.811L591.907 459.659ZM598.493 473.371C598.881 473.147 599.279 473.084 599.686 473.181C600.079 473.287 600.38 473.52 600.588 473.88C600.804 474.254 600.859 474.638 600.754 475.031C600.635 475.433 600.381 475.745 599.993 475.969C599.605 476.193 599.214 476.253 598.821 476.147C598.422 476.064 598.118 475.842 597.91 475.481C597.694 475.107 597.635 474.717 597.732 474.309C597.838 473.916 598.091 473.603 598.493 473.371ZM578.88 461.638C579.891 461.054 580.959 460.632 582.083 460.37C583.185 460.104 584.186 460.061 585.086 460.244L585.018 462.334C584.249 462.187 583.419 462.204 582.527 462.387C581.626 462.556 580.768 462.876 579.95 463.348C578.647 464.1 577.867 464.957 577.61 465.918C577.352 466.88 577.583 467.985 578.303 469.232L579.647 471.559L580.699 473.862L582.075 476.005L583.815 479.019L581.924 480.111L576.428 470.591C575.308 468.652 574.969 466.944 575.411 465.47C575.853 463.995 577.009 462.718 578.88 461.638ZM581.793 466.108C582.86 465.492 583.944 465.162 585.045 465.117C586.141 465.095 587.17 465.341 588.133 465.857C589.082 466.38 589.86 467.169 590.468 468.222C591.084 469.289 591.378 470.357 591.349 471.427C591.314 472.519 591.009 473.526 590.433 474.45C589.844 475.381 589.016 476.155 587.949 476.771C587.007 477.315 586.036 477.617 585.036 477.677C584.044 477.751 583.091 477.525 582.178 476.999C581.251 476.481 580.439 475.619 579.743 474.414C579.055 473.222 578.719 472.095 578.734 471.034C578.735 469.98 579.008 469.028 579.552 468.178C580.104 467.342 580.851 466.652 581.793 466.108ZM582.572 467.986C581.838 468.41 581.275 468.939 580.883 469.571C580.491 470.204 580.291 470.883 580.284 471.607C580.264 472.34 580.458 473.059 580.866 473.766C581.274 474.473 581.8 475 582.444 475.348C583.075 475.705 583.759 475.865 584.495 475.828C585.239 475.804 585.978 475.581 586.712 475.157C587.447 474.733 588.017 474.2 588.423 473.56C588.823 472.941 589.033 472.265 589.054 471.532C589.061 470.808 588.86 470.093 588.452 469.386C588.044 468.679 587.525 468.148 586.894 467.791C586.249 467.443 585.555 467.28 584.811 467.303C584.053 467.335 583.307 467.562 582.572 467.986ZM571.751 471.296L578.111 482.312L576.116 483.464L569.756 472.448L571.751 471.296ZM578.338 485.008C578.726 484.784 579.123 484.721 579.531 484.818C579.924 484.924 580.225 485.156 580.433 485.517C580.649 485.891 580.704 486.275 580.599 486.668C580.479 487.069 580.226 487.382 579.838 487.606C579.45 487.83 579.059 487.889 578.666 487.784C578.266 487.7 577.963 487.478 577.755 487.118C577.539 486.744 577.479 486.353 577.577 485.946C577.682 485.553 577.936 485.24 578.338 485.008ZM562.091 476.707C563.2 476.067 564.231 475.869 565.185 476.113C566.138 476.357 566.935 477.033 567.575 478.141L573.407 488.243L571.412 489.395L565.628 479.376C565.284 478.781 564.874 478.407 564.399 478.257C563.911 478.114 563.389 478.203 562.835 478.523C562.211 478.883 561.792 479.356 561.576 479.942L560.124 478.868C560.277 478.429 560.533 478.023 560.89 477.65C561.234 477.285 561.634 476.971 562.091 476.707ZM572.938 483.11L573.886 484.752L566.861 488.808L565.913 487.166L572.938 483.11ZM550.502 483.564L551.846 485.892L552.202 486.269L554.494 490.239C554.982 491.084 555.607 491.591 556.37 491.76C557.127 491.951 557.998 491.763 558.981 491.195C559.633 490.819 560.206 490.34 560.702 489.758C561.205 489.191 561.568 488.603 561.789 487.994L563.485 489.011C563.18 489.796 562.701 490.534 562.048 491.226C561.388 491.939 560.622 492.548 559.749 493.052C558.238 493.924 556.862 494.229 555.621 493.967C554.379 493.704 553.323 492.818 552.451 491.307L548.611 484.656L550.502 483.564ZM554.047 481.352C554.864 480.88 555.665 480.602 556.448 480.519C557.218 480.445 557.909 480.554 558.521 480.847C559.142 481.153 559.632 481.619 559.992 482.242C560.336 482.838 560.51 483.458 560.513 484.103C560.502 484.756 560.261 485.412 559.792 486.071C559.309 486.738 558.52 487.388 557.425 488.02L553.933 490.036L553.105 488.602L556.514 486.634C557.512 486.058 558.088 485.503 558.242 484.971C558.397 484.438 558.338 483.936 558.066 483.465C557.754 482.925 557.287 482.612 556.665 482.528C556.052 482.457 555.364 482.642 554.602 483.082C553.854 483.514 553.298 484.056 552.936 484.709C552.56 485.369 552.431 486.09 552.55 486.872L551.363 485.728C551.25 484.924 551.414 484.137 551.856 483.365C552.305 482.607 553.035 481.936 554.047 481.352ZM544.918 486.788L553.822 502.21L551.827 503.362L542.923 487.94L544.918 486.788ZM600.834 426.571C601.943 425.931 603.099 425.485 604.302 425.233C605.514 424.996 606.567 424.979 607.46 425.184L607.627 427.249C606.793 427.084 605.855 427.09 604.811 427.267C603.768 427.445 602.783 427.801 601.854 428.337C601.009 428.825 600.379 429.318 599.965 429.816C599.55 430.314 599.314 430.802 599.257 431.278C599.207 431.768 599.306 432.228 599.554 432.658C599.842 433.157 600.241 433.463 600.749 433.576C601.244 433.696 601.807 433.695 602.437 433.571C603.062 433.469 603.726 433.307 604.43 433.086C605.133 432.864 605.856 432.66 606.597 432.472C607.332 432.306 608.047 432.216 608.742 432.203C609.423 432.198 610.062 432.346 610.661 432.647C611.268 432.962 611.795 433.507 612.243 434.283C612.675 435.032 612.877 435.83 612.849 436.677C612.815 437.547 612.498 438.404 611.896 439.25C611.289 440.118 610.348 440.92 609.073 441.656C608.228 442.144 607.325 442.518 606.366 442.776C605.407 443.034 604.502 443.131 603.652 443.068L603.378 441.009C604.242 441.065 605.072 440.983 605.869 440.763C606.674 440.557 607.402 440.266 608.053 439.89C608.87 439.418 609.482 438.926 609.889 438.414C610.296 437.902 610.524 437.401 610.573 436.911C610.608 436.428 610.502 435.972 610.254 435.543C609.958 435.03 609.563 434.713 609.068 434.592C608.56 434.479 607.997 434.481 607.38 434.597C606.75 434.721 606.079 434.886 605.367 435.094C604.664 435.315 603.948 435.516 603.221 435.696C602.479 435.884 601.768 435.98 601.087 435.985C600.393 435.998 599.746 435.854 599.148 435.553C598.549 435.252 598.03 434.721 597.59 433.959C597.166 433.224 596.971 432.422 597.004 431.553C597.046 430.698 597.378 429.832 597.999 428.956C598.614 428.102 599.559 427.307 600.834 426.571ZM587.575 434.281C588.753 433.601 589.932 433.244 591.113 433.209C592.279 433.182 593.356 433.447 594.343 434.004C595.316 434.569 596.119 435.399 596.751 436.494C597.383 437.589 597.707 438.695 597.724 439.812C597.727 440.937 597.449 441.975 596.889 442.926C596.324 443.899 595.515 444.69 594.462 445.298C593.395 445.914 592.317 446.222 591.227 446.223C590.138 446.224 589.116 445.927 588.163 445.332C587.204 444.759 586.396 443.904 585.74 442.768C585.692 442.684 585.643 442.583 585.593 442.465C585.529 442.354 585.476 442.246 585.434 442.141L594.808 436.729L595.636 438.163L587.301 442.975L587.824 442.008C588.218 442.723 588.727 443.269 589.352 443.648C589.977 444.026 590.648 444.211 591.364 444.204C592.075 444.219 592.783 444.022 593.49 443.614C594.183 443.214 594.707 442.699 595.064 442.068C595.428 441.451 595.599 440.771 595.576 440.027C595.56 439.296 595.345 438.571 594.929 437.851L594.737 437.518C594.313 436.784 593.766 436.221 593.098 435.831C592.424 435.463 591.689 435.296 590.896 435.329C590.102 435.363 589.31 435.607 588.521 436.063C587.869 436.439 587.344 436.89 586.946 437.416C586.533 437.949 586.254 438.554 586.109 439.229L584.263 438.577C584.426 437.707 584.793 436.903 585.366 436.167C585.924 435.438 586.66 434.809 587.575 434.281ZM579.826 438.922L586.186 449.937L584.273 451.041L582.545 448.048L583.164 448.689C583.3 449.627 583.123 450.505 582.634 451.323C582.146 452.14 581.375 452.853 580.322 453.461L579.206 451.528C579.297 451.494 579.384 451.453 579.467 451.405C579.537 451.365 579.606 451.325 579.675 451.285C580.742 450.669 581.403 449.863 581.659 448.865C581.914 447.868 581.694 446.766 580.998 445.561L577.83 440.074L579.826 438.922ZM568.107 445.687L579.289 453.919L577.211 455.119L567.169 447.615L568.167 447.039L569.562 459.535L567.608 460.663L566.07 446.863L568.107 445.687ZM559.386 450.722L565.746 461.738L563.751 462.89L557.391 451.874L559.386 450.722ZM565.972 464.434C566.36 464.21 566.758 464.147 567.165 464.244C567.559 464.35 567.859 464.583 568.067 464.943C568.283 465.317 568.339 465.701 568.233 466.094C568.114 466.496 567.86 466.808 567.472 467.032C567.084 467.256 566.694 467.316 566.3 467.21C565.901 467.127 565.597 466.905 565.389 466.545C565.173 466.17 565.114 465.78 565.211 465.372C565.317 464.979 565.571 464.666 565.972 464.434ZM548.708 456.721C549.83 456.073 550.975 455.736 552.141 455.709C553.294 455.69 554.364 455.959 555.351 456.516C556.338 457.073 557.147 457.899 557.779 458.994C558.411 460.089 558.722 461.203 558.711 462.336C558.7 463.469 558.394 464.523 557.793 465.498C557.187 466.495 556.322 467.318 555.2 467.966C554.202 468.542 553.199 468.853 552.191 468.899C551.177 468.967 550.232 468.737 549.354 468.209L550.307 466.356C550.98 466.689 551.651 466.828 552.322 466.773C552.986 466.74 553.617 466.552 554.212 466.208C554.933 465.792 555.485 465.26 555.869 464.614C556.254 463.967 556.444 463.257 556.44 462.483C556.445 461.723 556.219 460.948 555.763 460.158C555.307 459.368 554.745 458.778 554.076 458.388C553.408 457.998 552.698 457.808 551.945 457.817C551.193 457.827 550.457 458.039 549.736 458.455C549.141 458.799 548.658 459.244 548.29 459.789C547.915 460.357 547.704 461.014 547.655 461.763L545.586 461.683C545.576 460.673 545.845 459.732 546.395 458.86C546.939 458.01 547.71 457.297 548.708 456.721ZM536.892 463.543C538.07 462.863 539.249 462.505 540.43 462.47C541.597 462.443 542.673 462.709 543.66 463.266C544.633 463.831 545.436 464.661 546.068 465.756C546.7 466.85 547.024 467.956 547.041 469.073C547.044 470.199 546.766 471.237 546.207 472.188C545.641 473.161 544.832 473.951 543.779 474.559C542.712 475.175 541.634 475.484 540.544 475.485C539.455 475.486 538.433 475.189 537.48 474.593C536.521 474.02 535.713 473.165 535.057 472.029C535.009 471.946 534.96 471.845 534.91 471.726C534.846 471.615 534.793 471.508 534.751 471.403L544.125 465.991L544.953 467.425L536.618 472.237L537.141 471.27C537.535 471.985 538.044 472.531 538.669 472.909C539.294 473.287 539.965 473.473 540.681 473.466C541.392 473.481 542.1 473.284 542.807 472.876C543.5 472.476 544.024 471.961 544.381 471.33C544.745 470.713 544.916 470.033 544.893 469.288C544.878 468.558 544.662 467.833 544.246 467.112L544.054 466.78C543.63 466.045 543.084 465.483 542.415 465.093C541.741 464.725 541.007 464.558 540.213 464.591C539.419 464.624 538.628 464.869 537.838 465.325C537.187 465.701 536.662 466.152 536.263 466.677C535.851 467.211 535.572 467.816 535.426 468.491L533.58 467.838C533.743 466.969 534.111 466.165 534.683 465.428C535.241 464.699 535.978 464.071 536.892 463.543ZM525.912 469.883C526.826 469.355 527.771 468.975 528.746 468.745C529.708 468.522 530.528 468.455 531.207 468.543L531.288 470.603C530.633 470.556 529.895 470.622 529.074 470.8C528.253 470.979 527.483 471.276 526.762 471.692C525.834 472.228 525.245 472.743 524.995 473.239C524.731 473.742 524.735 474.229 525.007 474.7C525.207 475.047 525.488 475.245 525.849 475.295C526.211 475.345 526.627 475.298 527.099 475.155C527.557 475.02 528.055 474.843 528.594 474.625C529.141 474.42 529.696 474.229 530.258 474.052C530.829 473.888 531.383 473.791 531.918 473.759C532.462 473.74 532.966 473.846 533.432 474.076C533.905 474.32 534.326 474.761 534.694 475.398C535.078 476.063 535.227 476.753 535.141 477.468C535.055 478.183 534.748 478.868 534.221 479.523C533.688 480.201 532.951 480.811 532.009 481.355C531.288 481.771 530.509 482.101 529.67 482.345C528.826 482.611 528.076 482.72 527.421 482.673L527.361 480.602C528.052 480.646 528.704 480.575 529.316 480.388C529.929 480.2 530.505 479.951 531.045 479.639C531.918 479.135 532.486 478.613 532.747 478.074C533.017 477.549 533.023 477.065 532.767 476.622C532.551 476.247 532.259 476.028 531.889 475.965C531.514 475.923 531.094 475.962 530.628 476.083C530.148 476.212 529.635 476.379 529.088 476.584C528.549 476.803 527.994 476.994 527.423 477.157C526.861 477.334 526.318 477.435 525.796 477.459C525.261 477.491 524.76 477.392 524.295 477.162C523.815 476.94 523.396 476.517 523.036 475.894C522.652 475.229 522.514 474.542 522.622 473.833C522.73 473.124 523.057 472.427 523.604 471.742C524.158 471.07 524.928 470.451 525.912 469.883Z" fill="white"/>
</g>
<defs>
<filter id="filter0_d_743_12115" x="-23.9629" y="-23.9629" width="764" height="764" filterUnits="userSpaceOnUse" color-interpolation-filters="sRGB">
<feFlood flood-opacity="0" result="BackgroundImageFix"/>
<feColorMatrix in="SourceAlpha" type="matrix" values="0 0 0 0 0 0 0 0 0 0 0 0 0 0 0 0 0 0 127 0" result="hardAlpha"/>
<feOffset/>
<feGaussianBlur stdDeviation="12"/>
<feComposite in2="hardAlpha" operator="out"/>
<feColorMatrix type="matrix" values="0 0 0 0 0.94902 0 0 0 0 0.639216 0 0 0 0 0.156863 0 0 0 0.2 0"/>
<feBlend mode="normal" in2="BackgroundImageFix" result="effect1_dropShadow_743_12115"/>
<feBlend mode="normal" in="SourceGraphic" in2="effect1_dropShadow_743_12115" result="shape"/>
</filter>
<filter id="filter1_ii_743_12115" x="362.994" y="358.037" width="361.249" height="312.322" filterUnits="userSpaceOnUse" color-interpolation-filters="sRGB">
<feFlood flood-opacity="0" result="BackgroundImageFix"/>
<feBlend mode="normal" in="SourceGraphic" in2="BackgroundImageFix" result="shape"/>
<feColorMatrix in="SourceAlpha" type="matrix" values="0 0 0 0 0 0 0 0 0 0 0 0 0 0 0 0 0 0 127 0" result="hardAlpha"/>
<feMorphology radius="8.59104" operator="erode" in="SourceAlpha" result="effect1_innerShadow_743_12115"/>
<feOffset/>
<feGaussianBlur stdDeviation="28.6368"/>
<feComposite in2="hardAlpha" operator="arithmetic" k2="-1" k3="1"/>
<feColorMatrix type="matrix" values="0 0 0 0 0 0 0 0 0 0 0 0 0 0 0 0 0 0 0.25 0"/>
<feBlend mode="normal" in2="shape" result="effect1_innerShadow_743_12115"/>
<feColorMatrix in="SourceAlpha" type="matrix" values="0 0 0 0 0 0 0 0 0 0 0 0 0 0 0 0 0 0 127 0" result="hardAlpha"/>
<feOffset dx="8.59104" dy="8.59104"/>
<feGaussianBlur stdDeviation="21.4776"/>
<feComposite in2="hardAlpha" operator="arithmetic" k2="-1" k3="1"/>
<feColorMatrix type="matrix" values="0 0 0 0 0 0 0 0 0 0 0 0 0 0 0 0 0 0 0.25 0"/>
<feBlend mode="normal" in2="effect1_innerShadow_743_12115" result="effect2_innerShadow_743_12115"/>
</filter>
</defs>
</svg>
