<svg width="304" height="354" viewBox="0 0 304 354" fill="none" xmlns="http://www.w3.org/2000/svg">
<mask id="path-1-inside-1_537_9227" fill="white">
<path d="M0 17.0371C0 7.64822 7.61581 -0.00503735 16.9941 0.440579C73.933 3.1462 129.492 19.4165 179 48C228.508 76.5834 270.378 116.564 301.191 164.522C306.266 172.421 303.446 182.843 295.315 187.537L9.44742 352.583C7.65433 353.618 5.37308 352.872 3.57999 351.836C1.78693 350.801 0 349.199 0 347.128L0 17.0371Z"/>
</mask>
<g filter="url(#filter0_ii_537_9227)">
<path d="M0 17.0371C0 7.64822 7.61581 -0.00503735 16.9941 0.440579C73.933 3.1462 129.492 19.4165 179 48C228.508 76.5834 270.378 116.564 301.191 164.522C306.266 172.421 303.446 182.843 295.315 187.537L9.44742 352.583C7.65433 353.618 5.37308 352.872 3.57999 351.836C1.78693 350.801 0 349.199 0 347.128L0 17.0371Z" fill="#015837"/>
</g>
<path d="M0 17.0371C0 7.64822 7.61581 -0.00503735 16.9941 0.440579C73.933 3.1462 129.492 19.4165 179 48C228.508 76.5834 270.378 116.564 301.191 164.522C306.266 172.421 303.446 182.843 295.315 187.537L9.44742 352.583C7.65433 353.618 5.37308 352.872 3.57999 351.836C1.78693 350.801 0 349.199 0 347.128L0 17.0371Z" stroke="white" stroke-width="12" mask="url(#path-1-inside-1_537_9227)"/>
<defs>
<filter id="filter0_ii_537_9227" x="0" y="0.422058" width="312.322" height="361.248" filterUnits="userSpaceOnUse" color-interpolation-filters="sRGB">
<feFlood flood-opacity="0" result="BackgroundImageFix"/>
<feBlend mode="normal" in="SourceGraphic" in2="BackgroundImageFix" result="shape"/>
<feColorMatrix in="SourceAlpha" type="matrix" values="0 0 0 0 0 0 0 0 0 0 0 0 0 0 0 0 0 0 127 0" result="hardAlpha"/>
<feMorphology radius="8.59104" operator="erode" in="SourceAlpha" result="effect1_innerShadow_537_9227"/>
<feOffset/>
<feGaussianBlur stdDeviation="28.6368"/>
<feComposite in2="hardAlpha" operator="arithmetic" k2="-1" k3="1"/>
<feColorMatrix type="matrix" values="0 0 0 0 0 0 0 0 0 0 0 0 0 0 0 0 0 0 0.25 0"/>
<feBlend mode="normal" in2="shape" result="effect1_innerShadow_537_9227"/>
<feColorMatrix in="SourceAlpha" type="matrix" values="0 0 0 0 0 0 0 0 0 0 0 0 0 0 0 0 0 0 127 0" result="hardAlpha"/>
<feOffset dx="8.59104" dy="8.59104"/>
<feGaussianBlur stdDeviation="21.4776"/>
<feComposite in2="hardAlpha" operator="arithmetic" k2="-1" k3="1"/>
<feColorMatrix type="matrix" values="0 0 0 0 0 0 0 0 0 0 0 0 0 0 0 0 0 0 0.25 0"/>
<feBlend mode="normal" in2="effect1_innerShadow_537_9227" result="effect2_innerShadow_537_9227"/>
</filter>
</defs>
</svg>
