<svg width="304" height="353" viewBox="0 0 304 353" fill="none" xmlns="http://www.w3.org/2000/svg">
<mask id="path-1-inside-1_537_9221" fill="white">
<path d="M304 336.037C304 345.426 296.384 353.079 287.006 352.634C230.067 349.928 174.508 333.658 125 305.074C75.492 276.491 33.622 236.511 2.80939 188.553C-2.26569 180.654 0.554382 170.232 8.6853 165.537L294.553 0.491674C296.346 -0.543574 298.627 0.202702 300.42 1.23795C302.213 2.2732 304 3.87564 304 5.94614L304 336.037Z"/>
</mask>
<g filter="url(#filter0_ii_537_9221)">
<path d="M304 336.037C304 345.426 296.384 353.079 287.006 352.634C230.067 349.928 174.508 333.658 125 305.074C75.492 276.491 33.622 236.511 2.80939 188.553C-2.26569 180.654 0.554382 170.232 8.6853 165.537L294.553 0.491674C296.346 -0.543574 298.627 0.202702 300.42 1.23795C302.213 2.2732 304 3.87564 304 5.94614L304 336.037Z" fill="#0471AA"/>
</g>
<path d="M304 336.037C304 345.426 296.384 353.079 287.006 352.634C230.067 349.928 174.508 333.658 125 305.074C75.492 276.491 33.622 236.511 2.80939 188.553C-2.26569 180.654 0.554382 170.232 8.6853 165.537L294.553 0.491674C296.346 -0.543574 298.627 0.202702 300.42 1.23795C302.213 2.2732 304 3.87564 304 5.94614L304 336.037Z" stroke="white" stroke-width="12" mask="url(#path-1-inside-1_537_9221)"/>
<defs>
<filter id="filter0_ii_537_9221" x="0.269531" y="-0.00511932" width="312.322" height="361.248" filterUnits="userSpaceOnUse" color-interpolation-filters="sRGB">
<feFlood flood-opacity="0" result="BackgroundImageFix"/>
<feBlend mode="normal" in="SourceGraphic" in2="BackgroundImageFix" result="shape"/>
<feColorMatrix in="SourceAlpha" type="matrix" values="0 0 0 0 0 0 0 0 0 0 0 0 0 0 0 0 0 0 127 0" result="hardAlpha"/>
<feMorphology radius="8.59104" operator="erode" in="SourceAlpha" result="effect1_innerShadow_537_9221"/>
<feOffset/>
<feGaussianBlur stdDeviation="28.6368"/>
<feComposite in2="hardAlpha" operator="arithmetic" k2="-1" k3="1"/>
<feColorMatrix type="matrix" values="0 0 0 0 0 0 0 0 0 0 0 0 0 0 0 0 0 0 0.25 0"/>
<feBlend mode="normal" in2="shape" result="effect1_innerShadow_537_9221"/>
<feColorMatrix in="SourceAlpha" type="matrix" values="0 0 0 0 0 0 0 0 0 0 0 0 0 0 0 0 0 0 127 0" result="hardAlpha"/>
<feOffset dx="8.59104" dy="8.59104"/>
<feGaussianBlur stdDeviation="21.4776"/>
<feComposite in2="hardAlpha" operator="arithmetic" k2="-1" k3="1"/>
<feColorMatrix type="matrix" values="0 0 0 0 0 0 0 0 0 0 0 0 0 0 0 0 0 0 0.25 0"/>
<feBlend mode="normal" in2="effect1_innerShadow_537_9221" result="effect2_innerShadow_537_9221"/>
</filter>
</defs>
</svg>
