<svg width="352" height="346" viewBox="0 0 352 346" fill="none" xmlns="http://www.w3.org/2000/svg">
<mask id="path-1-inside-1_537_9224" fill="white">
<path d="M63.6483 343.5C55.5173 348.194 45.0814 345.426 40.7782 337.081C14.6519 286.418 0.962922 230.167 0.962927 173C0.962917 115.833 14.652 59.5824 40.7783 8.91898C45.0815 0.57434 55.5174 -2.19447 63.6483 2.49992L349.516 167.546C351.309 168.581 351.803 170.93 351.803 173C351.803 175.07 351.309 177.419 349.516 178.454L63.6483 343.5Z"/>
</mask>
<g filter="url(#filter0_ii_537_9224)">
<path d="M63.6483 343.5C55.5173 348.194 45.0814 345.426 40.7782 337.081C14.6519 286.418 0.962922 230.167 0.962927 173C0.962917 115.833 14.652 59.5824 40.7783 8.91898C45.0815 0.57434 55.5174 -2.19447 63.6483 2.49992L349.516 167.546C351.309 168.581 351.803 170.93 351.803 173C351.803 175.07 351.309 177.419 349.516 178.454L63.6483 343.5Z" fill="#C58100"/>
</g>
<path d="M63.6483 343.5C55.5173 348.194 45.0814 345.426 40.7782 337.081C14.6519 286.418 0.962922 230.167 0.962927 173C0.962917 115.833 14.652 59.5824 40.7783 8.91898C45.0815 0.57434 55.5174 -2.19447 63.6483 2.49992L349.516 167.546C351.309 168.581 351.803 170.93 351.803 173C351.803 175.07 351.309 177.419 349.516 178.454L63.6483 343.5Z" stroke="white" stroke-width="12" mask="url(#path-1-inside-1_537_9224)"/>
<defs>
<filter id="filter0_ii_537_9224" x="0.962891" y="0.222801" width="359.431" height="354.145" filterUnits="userSpaceOnUse" color-interpolation-filters="sRGB">
<feFlood flood-opacity="0" result="BackgroundImageFix"/>
<feBlend mode="normal" in="SourceGraphic" in2="BackgroundImageFix" result="shape"/>
<feColorMatrix in="SourceAlpha" type="matrix" values="0 0 0 0 0 0 0 0 0 0 0 0 0 0 0 0 0 0 127 0" result="hardAlpha"/>
<feMorphology radius="8.59104" operator="erode" in="SourceAlpha" result="effect1_innerShadow_537_9224"/>
<feOffset/>
<feGaussianBlur stdDeviation="28.6368"/>
<feComposite in2="hardAlpha" operator="arithmetic" k2="-1" k3="1"/>
<feColorMatrix type="matrix" values="0 0 0 0 0 0 0 0 0 0 0 0 0 0 0 0 0 0 0.25 0"/>
<feBlend mode="normal" in2="shape" result="effect1_innerShadow_537_9224"/>
<feColorMatrix in="SourceAlpha" type="matrix" values="0 0 0 0 0 0 0 0 0 0 0 0 0 0 0 0 0 0 127 0" result="hardAlpha"/>
<feOffset dx="8.59104" dy="8.59104"/>
<feGaussianBlur stdDeviation="21.4776"/>
<feComposite in2="hardAlpha" operator="arithmetic" k2="-1" k3="1"/>
<feColorMatrix type="matrix" values="0 0 0 0 0 0 0 0 0 0 0 0 0 0 0 0 0 0 0.25 0"/>
<feBlend mode="normal" in2="effect1_innerShadow_537_9224" result="effect2_innerShadow_537_9224"/>
</filter>
</defs>
</svg>
