<svg width="740" height="717" viewBox="0 0 740 717" fill="none" xmlns="http://www.w3.org/2000/svg">
<g filter="url(#filter0_d_743_12112)">
<mask id="path-1-inside-1_743_12112" fill="white">
<path d="M699.037 358.037C708.426 358.037 716.079 365.653 715.634 375.031C712.928 431.97 696.658 487.529 668.074 537.037C639.491 586.545 599.51 628.415 551.553 659.228C543.654 664.303 533.231 661.483 528.537 653.352L363.492 367.485C362.456 365.691 363.203 363.41 364.238 361.617C365.273 359.824 366.876 358.037 368.946 358.037L699.037 358.037Z"/>
</mask>
<g filter="url(#filter1_ii_743_12112)">
<path d="M699.037 358.037C708.426 358.037 716.079 365.653 715.634 375.031C712.928 431.97 696.658 487.529 668.074 537.037C639.491 586.545 599.51 628.415 551.553 659.228C543.654 664.303 533.231 661.483 528.537 653.352L363.492 367.485C362.456 365.691 363.203 363.41 364.238 361.617C365.273 359.824 366.876 358.037 368.946 358.037L699.037 358.037Z" fill="#0389AC"/>
</g>
<path d="M699.037 358.037C708.426 358.037 716.079 365.653 715.634 375.031C712.928 431.97 696.658 487.529 668.074 537.037C639.491 586.545 599.51 628.415 551.553 659.228C543.654 664.303 533.231 661.483 528.537 653.352L363.492 367.485C362.456 365.691 363.203 363.41 364.238 361.617C365.273 359.824 366.876 358.037 368.946 358.037L699.037 358.037Z" stroke="white" stroke-width="12" mask="url(#path-1-inside-1_743_12112)"/>
<path d="M496.216 476.791L503.699 472.471L504.719 474.237L497.236 478.557L496.216 476.791ZM500.135 483.147L508.615 478.251L509.659 480.059L499.101 486.155L490.701 471.606L500.968 465.678L502.012 467.486L493.823 472.214L500.135 483.147ZM512.196 463.768C513.097 463.248 513.986 462.965 514.865 462.92C515.758 462.866 516.603 463.081 517.399 463.563C518.195 464.046 518.905 464.828 519.529 465.909L523.189 472.248L521.193 473.4L517.665 467.289C517.049 466.222 516.322 465.571 515.483 465.334C514.659 465.09 513.775 465.24 512.833 465.784C512.126 466.192 511.59 466.686 511.223 467.267C510.857 467.849 510.684 468.493 510.705 469.202C510.74 469.902 510.989 470.654 511.453 471.458L514.729 477.132L512.734 478.284L506.374 467.268L508.286 466.164L510.002 469.136L509.234 468.527C509.179 467.598 509.409 466.717 509.925 465.883C510.441 465.049 511.198 464.344 512.196 463.768ZM530.736 468.057C529.627 468.697 528.596 468.895 527.643 468.651C526.689 468.407 525.892 467.731 525.252 466.622L519.42 456.521L521.416 455.369L527.2 465.387C527.544 465.983 527.953 466.356 528.428 466.507C528.917 466.65 529.438 466.561 529.993 466.241C530.616 465.881 531.036 465.408 531.251 464.822L532.703 465.896C532.55 466.335 532.295 466.741 531.937 467.114C531.594 467.478 531.193 467.793 530.736 468.057ZM519.89 461.654L518.942 460.012L525.967 455.956L526.915 457.598L519.89 461.654ZM540.099 462.651C538.921 463.331 537.742 463.688 536.561 463.723C535.395 463.75 534.318 463.485 533.331 462.928C532.358 462.363 531.556 461.533 530.924 460.438C530.292 459.344 529.967 458.238 529.95 457.12C529.947 455.995 530.225 454.957 530.785 454.006C531.35 453.033 532.159 452.242 533.212 451.634C534.279 451.018 535.357 450.71 536.447 450.709C537.536 450.708 538.558 451.005 539.511 451.6C540.47 452.174 541.278 453.028 541.934 454.165C541.982 454.248 542.031 454.349 542.081 454.468C542.145 454.578 542.198 454.686 542.24 454.791L532.866 460.203L532.038 458.769L540.373 453.957L539.85 454.924C539.456 454.209 538.947 453.663 538.322 453.285C537.697 452.906 537.026 452.721 536.31 452.728C535.6 452.713 534.891 452.91 534.184 453.318C533.491 453.718 532.967 454.233 532.61 454.864C532.246 455.481 532.075 456.161 532.099 456.905C532.114 457.636 532.329 458.361 532.745 459.082L532.937 459.414C533.361 460.149 533.908 460.711 534.576 461.101C535.251 461.469 535.985 461.636 536.778 461.603C537.572 461.57 538.364 461.325 539.154 460.869C539.805 460.493 540.33 460.042 540.728 459.516C541.141 458.983 541.42 458.378 541.566 457.703L543.411 458.355C543.248 459.225 542.881 460.029 542.309 460.766C541.75 461.494 541.014 462.123 540.099 462.651ZM547.849 458.011L541.489 446.995L543.401 445.891L545.129 448.884L544.51 448.243C544.374 447.305 544.551 446.427 545.04 445.61C545.528 444.792 546.299 444.079 547.352 443.471L548.468 445.404C548.377 445.438 548.29 445.479 548.207 445.527C548.137 445.567 548.068 445.607 547.999 445.647C546.932 446.263 546.271 447.07 546.015 448.067C545.76 449.064 545.98 450.166 546.676 451.371L549.844 456.859L547.849 458.011ZM562.144 449.923C561.229 450.451 560.271 450.728 559.269 450.752C558.273 450.754 557.306 450.472 556.369 449.904C555.445 449.329 554.624 448.418 553.904 447.171C553.184 445.924 552.798 444.76 552.748 443.681C552.711 442.594 552.947 441.626 553.455 440.778C553.977 439.923 554.71 439.223 555.652 438.679C556.733 438.055 557.825 437.738 558.928 437.73C560.032 437.721 561.07 437.999 562.043 438.564C563.008 439.116 563.814 439.952 564.462 441.075C565.11 442.197 565.436 443.321 565.439 444.446C565.442 445.571 565.164 446.61 564.604 447.561C564.045 448.512 563.225 449.299 562.144 449.923ZM558.559 457.203L549.871 442.155L551.784 441.051L553.5 444.023L554.851 446.652L556.535 449.088L560.555 456.051L558.559 457.203ZM560.97 448.274C561.676 447.866 562.215 447.342 562.585 446.703C562.969 446.057 563.152 445.35 563.135 444.584C563.124 443.797 562.894 443.015 562.446 442.239C561.99 441.449 561.432 440.866 560.771 440.49C560.116 440.092 559.413 439.898 558.661 439.907C557.923 439.908 557.2 440.113 556.494 440.521C555.801 440.921 555.262 441.444 554.878 442.091C554.508 442.73 554.325 443.436 554.328 444.21C554.337 444.962 554.57 445.733 555.026 446.523C555.474 447.299 556.029 447.893 556.692 448.304C557.361 448.694 558.064 448.889 558.802 448.887C559.554 448.878 560.277 448.674 560.97 448.274ZM570.399 444.991L564.039 433.975L565.951 432.871L567.679 435.864L567.06 435.224C566.925 434.286 567.102 433.408 567.59 432.59C568.079 431.772 568.85 431.059 569.903 430.451L571.019 432.384C570.927 432.418 570.84 432.459 570.757 432.507C570.688 432.547 570.619 432.587 570.549 432.627C569.482 433.243 568.821 434.05 568.566 435.048C568.31 436.045 568.53 437.146 569.226 438.352L572.394 443.839L570.399 444.991ZM578.782 440.151L572.422 429.135L574.417 427.983L580.777 438.999L578.782 440.151ZM572.196 426.439C571.808 426.663 571.41 426.727 571.003 426.629C570.609 426.524 570.309 426.291 570.101 425.931C569.885 425.557 569.829 425.173 569.935 424.779C570.054 424.378 570.308 424.065 570.696 423.841C571.083 423.617 571.474 423.558 571.868 423.663C572.267 423.747 572.571 423.969 572.779 424.329C572.995 424.703 573.054 425.094 572.956 425.501C572.851 425.895 572.597 426.207 572.196 426.439ZM587.818 435.1C586.904 435.628 585.959 436.008 584.983 436.238C584.022 436.461 583.201 436.528 582.522 436.44L582.442 434.38C583.097 434.427 583.835 434.361 584.656 434.183C585.476 434.004 586.247 433.707 586.968 433.291C587.896 432.755 588.485 432.24 588.735 431.744C588.999 431.241 588.995 430.754 588.723 430.283C588.523 429.936 588.242 429.738 587.88 429.688C587.519 429.638 587.102 429.685 586.631 429.828C586.173 429.963 585.675 430.139 585.136 430.358C584.589 430.563 584.034 430.754 583.471 430.931C582.9 431.095 582.347 431.192 581.811 431.224C581.268 431.243 580.763 431.137 580.298 430.907C579.824 430.663 579.404 430.222 579.036 429.585C578.652 428.919 578.503 428.23 578.589 427.515C578.675 426.8 578.982 426.115 579.509 425.46C580.041 424.782 580.779 424.172 581.721 423.628C582.442 423.212 583.221 422.882 584.059 422.638C584.904 422.372 585.653 422.263 586.309 422.31L586.368 424.381C585.678 424.337 585.026 424.408 584.414 424.595C583.801 424.783 583.225 425.032 582.684 425.344C581.811 425.848 581.244 426.37 580.983 426.909C580.713 427.434 580.706 427.918 580.962 428.361C581.178 428.736 581.471 428.955 581.84 429.018C582.216 429.06 582.636 429.021 583.102 428.9C583.582 428.771 584.095 428.604 584.642 428.399C585.181 428.18 585.735 427.989 586.306 427.826C586.869 427.648 587.411 427.548 587.933 427.524C588.469 427.492 588.97 427.591 589.435 427.821C589.914 428.043 590.334 428.466 590.694 429.089C591.078 429.754 591.216 430.441 591.108 431.15C591 431.859 590.673 432.556 590.126 433.241C589.571 433.913 588.802 434.532 587.818 435.1ZM599.977 428.081C598.799 428.761 597.62 429.118 596.439 429.153C595.272 429.18 594.195 428.915 593.209 428.358C592.236 427.793 591.433 426.963 590.801 425.868C590.169 424.773 589.845 423.667 589.828 422.55C589.825 421.425 590.103 420.387 590.662 419.436C591.228 418.463 592.037 417.672 593.09 417.064C594.157 416.448 595.235 416.14 596.325 416.139C597.414 416.138 598.435 416.435 599.389 417.03C600.348 417.603 601.155 418.458 601.811 419.594C601.859 419.677 601.908 419.778 601.959 419.897C602.023 420.008 602.076 420.116 602.118 420.221L592.744 425.633L591.916 424.199L600.251 419.387L599.728 420.354C599.334 419.639 598.824 419.093 598.199 418.714C597.575 418.336 596.904 418.151 596.188 418.158C595.477 418.143 594.768 418.34 594.062 418.748C593.369 419.148 592.844 419.663 592.488 420.294C592.124 420.911 591.953 421.591 591.976 422.335C591.991 423.065 592.207 423.791 592.623 424.511L592.815 424.844C593.239 425.578 593.785 426.14 594.454 426.53C595.128 426.899 595.862 427.066 596.656 427.033C597.449 426.999 598.241 426.755 599.031 426.299C599.682 425.923 600.207 425.472 600.606 424.946C601.018 424.412 601.297 423.808 601.443 423.132L603.289 423.785C603.126 424.655 602.758 425.458 602.186 426.195C601.628 426.924 600.891 427.553 599.977 428.081ZM502.747 511.762L500.936 493.409L502.994 492.221L518.003 502.954L515.821 504.214L502.211 494.225L503.042 493.745L504.888 510.526L502.747 511.762ZM503.453 506.505L503.055 504.518L511.244 499.79L512.806 501.105L503.453 506.505ZM525.795 498.622C524.881 499.15 523.922 499.426 522.92 499.451C521.924 499.453 520.957 499.171 520.02 498.603C519.097 498.028 518.275 497.117 517.555 495.869C516.835 494.622 516.45 493.459 516.399 492.38C516.363 491.292 516.598 490.325 517.107 489.477C517.629 488.621 518.361 487.922 519.303 487.378C520.384 486.754 521.476 486.437 522.58 486.428C523.683 486.419 524.721 486.698 525.694 487.263C526.659 487.814 527.466 488.651 528.114 489.773C528.762 490.896 529.087 492.02 529.09 493.145C529.093 494.27 528.815 495.308 528.256 496.259C527.696 497.211 526.876 497.998 525.795 498.622ZM522.211 505.902L513.523 490.854L515.435 489.75L517.151 492.722L518.502 495.35L520.186 497.787L524.206 504.75L522.211 505.902ZM524.621 496.972C525.328 496.564 525.866 496.041 526.236 495.402C526.62 494.755 526.804 494.049 526.787 493.283C526.775 492.495 526.545 491.713 526.097 490.937C525.641 490.148 525.083 489.565 524.423 489.189C523.768 488.791 523.064 488.596 522.312 488.606C521.574 488.607 520.852 488.812 520.145 489.22C519.452 489.62 518.914 490.143 518.53 490.79C518.159 491.428 517.976 492.135 517.979 492.909C517.989 493.661 518.221 494.432 518.677 495.221C519.125 495.997 519.681 496.591 520.343 497.003C521.012 497.393 521.715 497.587 522.454 497.586C523.206 497.577 523.928 497.372 524.621 496.972ZM539.963 490.442C539.048 490.97 538.09 491.247 537.088 491.271C536.092 491.273 535.125 490.991 534.188 490.423C533.264 489.848 532.443 488.937 531.723 487.69C531.003 486.443 530.617 485.279 530.567 484.2C530.53 483.113 530.766 482.145 531.274 481.297C531.796 480.442 532.529 479.742 533.471 479.198C534.552 478.574 535.644 478.257 536.747 478.249C537.851 478.24 538.889 478.518 539.862 479.083C540.827 479.635 541.633 480.471 542.281 481.594C542.929 482.716 543.255 483.84 543.258 484.965C543.261 486.09 542.983 487.129 542.423 488.08C541.864 489.031 541.044 489.818 539.963 490.442ZM536.378 497.722L527.69 482.674L529.603 481.57L531.319 484.542L532.67 487.171L534.354 489.607L538.374 496.57L536.378 497.722ZM538.789 488.792C539.495 488.384 540.034 487.861 540.404 487.222C540.788 486.576 540.972 485.869 540.954 485.103C540.943 484.316 540.713 483.534 540.265 482.758C539.809 481.968 539.251 481.385 538.59 481.009C537.936 480.611 537.232 480.417 536.48 480.426C535.742 480.427 535.019 480.632 534.313 481.04C533.62 481.44 533.081 481.963 532.697 482.61C532.327 483.249 532.144 483.955 532.147 484.729C532.156 485.481 532.389 486.252 532.845 487.042C533.293 487.818 533.848 488.412 534.511 488.823C535.18 489.213 535.883 489.408 536.621 489.406C537.373 489.397 538.096 489.192 538.789 488.792ZM548.218 485.51L539.314 470.088L541.309 468.936L550.213 484.358L548.218 485.51ZM554.023 482.158L547.663 471.143L549.658 469.991L556.018 481.006L554.023 482.158ZM547.437 468.447C547.049 468.671 546.651 468.734 546.244 468.636C545.85 468.531 545.55 468.298 545.342 467.938C545.126 467.564 545.07 467.18 545.176 466.787C545.295 466.385 545.549 466.072 545.937 465.848C546.325 465.624 546.715 465.565 547.109 465.671C547.508 465.754 547.812 465.976 548.02 466.336C548.236 466.71 548.295 467.101 548.198 467.508C548.092 467.902 547.839 468.215 547.437 468.447ZM564.701 476.16C563.579 476.808 562.434 477.145 561.268 477.172C560.115 477.191 559.045 476.922 558.058 476.365C557.071 475.808 556.262 474.982 555.63 473.887C554.998 472.792 554.687 471.678 554.698 470.545C554.709 469.412 555.015 468.358 555.616 467.383C556.222 466.386 557.087 465.563 558.209 464.915C559.207 464.339 560.21 464.028 561.218 463.982C562.232 463.914 563.177 464.144 564.055 464.672L563.102 466.525C562.429 466.192 561.758 466.053 561.087 466.108C560.423 466.141 559.792 466.329 559.197 466.673C558.476 467.089 557.924 467.62 557.54 468.267C557.156 468.914 556.965 469.624 556.969 470.398C556.964 471.158 557.19 471.933 557.646 472.723C558.102 473.513 558.664 474.103 559.333 474.493C560.001 474.883 560.712 475.073 561.464 475.064C562.216 475.054 562.952 474.842 563.673 474.426C564.268 474.082 564.751 473.637 565.119 473.092C565.494 472.524 565.705 471.866 565.754 471.118L567.823 471.198C567.833 472.208 567.564 473.149 567.014 474.021C566.47 474.871 565.699 475.584 564.701 476.16ZM578.54 468.003L577.196 465.676L576.84 465.299L574.548 461.329C574.06 460.484 573.435 459.977 572.672 459.807C571.915 459.616 571.045 459.805 570.061 460.373C569.41 460.749 568.836 461.228 568.341 461.809C567.837 462.377 567.475 462.965 567.253 463.573L565.558 462.557C565.862 461.772 566.341 461.033 566.995 460.342C567.654 459.628 568.421 459.02 569.294 458.516C570.804 457.644 572.18 457.339 573.421 457.601C574.663 457.864 575.72 458.75 576.592 460.26L580.432 466.911L578.54 468.003ZM574.996 470.216C574.178 470.688 573.378 470.966 572.594 471.048C571.825 471.123 571.133 471.014 570.521 470.721C569.9 470.414 569.41 469.949 569.05 469.326C568.706 468.73 568.533 468.109 568.53 467.465C568.541 466.812 568.781 466.156 569.25 465.497C569.734 464.83 570.523 464.18 571.617 463.548L575.109 461.532L575.937 462.966L572.528 464.934C571.531 465.51 570.955 466.065 570.8 466.597C570.646 467.13 570.705 467.631 570.977 468.103C571.289 468.643 571.755 468.955 572.377 469.04C572.99 469.111 573.678 468.926 574.44 468.486C575.189 468.054 575.744 467.512 576.106 466.859C576.482 466.199 576.611 465.478 576.492 464.696L577.679 465.84C577.792 466.643 577.628 467.431 577.187 468.203C576.738 468.961 576.007 469.632 574.996 470.216ZM587.979 462.72C586.871 463.36 585.839 463.558 584.886 463.315C583.932 463.071 583.135 462.395 582.495 461.286L576.663 451.185L578.659 450.033L584.443 460.051C584.787 460.647 585.196 461.02 585.671 461.171C586.16 461.313 586.681 461.225 587.236 460.905C587.859 460.545 588.279 460.071 588.495 459.485L589.946 460.559C589.793 460.998 589.538 461.404 589.181 461.777C588.837 462.142 588.436 462.456 587.979 462.72ZM577.133 456.318L576.185 454.676L583.21 450.62L584.158 452.262L577.133 456.318ZM592.73 459.811L586.37 448.795L588.366 447.643L594.726 458.659L592.73 459.811ZM586.144 446.099C585.756 446.323 585.358 446.386 584.951 446.289C584.558 446.183 584.257 445.951 584.049 445.59C583.833 445.216 583.778 444.832 583.883 444.439C584.002 444.038 584.256 443.725 584.644 443.501C585.032 443.277 585.423 443.218 585.816 443.323C586.215 443.407 586.519 443.628 586.727 443.989C586.943 444.363 587.002 444.754 586.905 445.161C586.8 445.554 586.546 445.867 586.144 446.099ZM603.326 453.86C602.217 454.5 601.093 454.825 599.954 454.836C598.815 454.847 597.752 454.574 596.765 454.017C595.77 453.446 594.961 452.62 594.337 451.539C593.705 450.445 593.394 449.331 593.405 448.197C593.416 447.064 593.715 446.014 594.302 445.047C594.881 444.066 595.725 443.255 596.834 442.615C597.928 441.983 599.045 441.662 600.184 441.651C601.329 441.618 602.388 441.884 603.361 442.449C604.34 442.993 605.149 443.819 605.789 444.927C606.421 446.022 606.732 447.136 606.721 448.269C606.724 449.394 606.429 450.451 605.836 451.44C605.257 452.421 604.42 453.228 603.326 453.86ZM602.318 452.114C603.024 451.706 603.563 451.183 603.933 450.544C604.317 449.897 604.501 449.191 604.483 448.425C604.458 447.645 604.221 446.867 603.773 446.091C603.317 445.301 602.766 444.715 602.119 444.33C601.465 443.932 600.761 443.738 600.009 443.747C599.271 443.749 598.548 443.953 597.842 444.361C597.135 444.769 596.596 445.293 596.226 445.931C595.856 446.57 595.673 447.276 595.676 448.05C595.671 448.811 595.897 449.585 596.353 450.375C596.801 451.151 597.363 451.741 598.04 452.145C598.709 452.535 599.412 452.729 600.15 452.728C600.888 452.727 601.611 452.522 602.318 452.114ZM611.191 434.326C612.092 433.806 612.981 433.523 613.86 433.478C614.753 433.424 615.598 433.639 616.394 434.122C617.19 434.604 617.9 435.386 618.524 436.467L622.184 442.806L620.188 443.958L616.66 437.847C616.044 436.78 615.317 436.129 614.478 435.892C613.654 435.648 612.77 435.798 611.828 436.342C611.121 436.75 610.585 437.244 610.218 437.825C609.852 438.407 609.679 439.051 609.7 439.76C609.735 440.46 609.984 441.212 610.448 442.016L613.724 447.69L611.729 448.842L605.369 437.826L607.281 436.722L608.997 439.694L608.229 439.085C608.174 438.156 608.404 437.275 608.92 436.441C609.436 435.607 610.193 434.902 611.191 434.326ZM538.529 519.038C537.421 519.678 536.265 520.124 535.061 520.375C533.85 520.613 532.797 520.63 531.903 520.425L531.736 518.36C532.57 518.525 533.509 518.519 534.552 518.342C535.595 518.164 536.581 517.808 537.509 517.272C538.355 516.784 538.985 516.291 539.399 515.793C539.814 515.295 540.05 514.807 540.107 514.331C540.156 513.84 540.057 513.38 539.809 512.951C539.521 512.452 539.123 512.146 538.614 512.033C538.12 511.912 537.557 511.914 536.926 512.038C536.302 512.14 535.638 512.302 534.934 512.523C534.231 512.744 533.508 512.949 532.767 513.137C532.031 513.303 531.316 513.392 530.622 513.406C529.941 513.411 529.301 513.263 528.703 512.962C528.096 512.647 527.568 512.101 527.12 511.325C526.688 510.577 526.486 509.779 526.514 508.932C526.548 508.062 526.866 507.205 527.467 506.358C528.075 505.49 529.016 504.688 530.291 503.952C531.136 503.464 532.038 503.091 532.998 502.833C533.957 502.575 534.862 502.477 535.711 502.541L535.985 504.6C535.122 504.544 534.292 504.626 533.495 504.846C532.69 505.052 531.962 505.343 531.311 505.719C530.493 506.191 529.881 506.683 529.475 507.195C529.068 507.707 528.84 508.208 528.791 508.698C528.755 509.181 528.861 509.637 529.109 510.066C529.405 510.579 529.801 510.896 530.295 511.017C530.804 511.129 531.367 511.128 531.983 511.012C532.614 510.888 533.285 510.722 533.996 510.515C534.7 510.293 535.415 510.093 536.143 509.913C536.884 509.725 537.595 509.629 538.276 509.624C538.971 509.611 539.617 509.755 540.216 510.055C540.815 510.356 541.334 510.888 541.774 511.65C542.198 512.384 542.393 513.186 542.359 514.056C542.317 514.911 541.986 515.777 541.365 516.653C540.749 517.507 539.804 518.302 538.529 519.038ZM551.789 511.328C550.611 512.008 549.432 512.365 548.251 512.4C547.084 512.427 546.007 512.162 545.021 511.605C544.048 511.04 543.245 510.21 542.613 509.115C541.981 508.02 541.657 506.914 541.64 505.797C541.637 504.672 541.915 503.634 542.474 502.683C543.04 501.71 543.849 500.919 544.902 500.311C545.969 499.695 547.047 499.387 548.137 499.386C549.226 499.385 550.247 499.682 551.201 500.277C552.16 500.85 552.967 501.705 553.623 502.841C553.671 502.924 553.72 503.025 553.771 503.144C553.835 503.255 553.888 503.363 553.93 503.468L544.556 508.88L543.728 507.446L552.063 502.634L551.54 503.601C551.146 502.886 550.636 502.34 550.012 501.961C549.387 501.583 548.716 501.398 548 501.405C547.289 501.39 546.581 501.587 545.874 501.995C545.181 502.395 544.656 502.91 544.3 503.541C543.936 504.158 543.765 504.838 543.788 505.582C543.803 506.312 544.019 507.038 544.435 507.758L544.627 508.091C545.051 508.825 545.597 509.387 546.266 509.777C546.94 510.145 547.674 510.313 548.468 510.28C549.262 510.246 550.053 510.002 550.843 509.546C551.494 509.17 552.019 508.719 552.418 508.193C552.83 507.659 553.109 507.055 553.255 506.379L555.101 507.032C554.938 507.902 554.57 508.705 553.998 509.442C553.44 510.171 552.703 510.8 551.789 511.328ZM559.538 506.687L553.178 495.671L555.09 494.567L556.818 497.56L556.199 496.92C556.064 495.982 556.241 495.104 556.729 494.286C557.218 493.468 557.989 492.755 559.042 492.147L560.158 494.08C560.067 494.115 559.979 494.156 559.896 494.204C559.827 494.244 559.758 494.284 559.688 494.324C558.621 494.94 557.96 495.746 557.705 496.744C557.449 497.741 557.669 498.843 558.365 500.048L561.533 505.535L559.538 506.687ZM571.257 499.922L560.075 491.69L562.153 490.49L572.195 497.994L571.197 498.57L569.802 486.074L571.755 484.946L573.293 498.746L571.257 499.922ZM579.978 494.886L573.618 483.871L575.613 482.719L581.973 493.734L579.978 494.886ZM573.391 481.175C573.003 481.399 572.606 481.462 572.198 481.364C571.805 481.259 571.504 481.026 571.296 480.666C571.08 480.292 571.025 479.908 571.13 479.515C571.25 479.113 571.503 478.8 571.891 478.576C572.279 478.352 572.67 478.293 573.063 478.399C573.463 478.482 573.766 478.704 573.974 479.064C574.19 479.438 574.25 479.829 574.152 480.236C574.047 480.63 573.793 480.943 573.391 481.175ZM590.656 488.888C589.534 489.536 588.389 489.873 587.222 489.9C586.069 489.919 584.999 489.65 584.013 489.093C583.026 488.536 582.216 487.71 581.584 486.615C580.952 485.52 580.642 484.406 580.653 483.273C580.663 482.14 580.969 481.086 581.57 480.111C582.177 479.114 583.042 478.291 584.164 477.643C585.162 477.067 586.164 476.756 587.172 476.71C588.186 476.642 589.132 476.872 590.009 477.4L589.056 479.253C588.384 478.92 587.712 478.781 587.042 478.836C586.377 478.869 585.747 479.057 585.151 479.401C584.431 479.817 583.878 480.348 583.494 480.995C583.11 481.642 582.92 482.352 582.923 483.126C582.919 483.886 583.144 484.661 583.6 485.451C584.056 486.241 584.619 486.831 585.287 487.221C585.956 487.611 586.666 487.801 587.418 487.792C588.17 487.782 588.907 487.57 589.627 487.154C590.223 486.81 590.705 486.365 591.074 485.82C591.448 485.252 591.66 484.594 591.708 483.846L593.777 483.926C593.788 484.936 593.518 485.877 592.968 486.749C592.424 487.599 591.654 488.312 590.656 488.888ZM602.472 482.066C601.294 482.746 600.115 483.103 598.934 483.138C597.767 483.165 596.69 482.9 595.703 482.343C594.73 481.778 593.928 480.948 593.296 479.853C592.664 478.759 592.339 477.653 592.323 476.535C592.32 475.41 592.598 474.372 593.157 473.421C593.722 472.448 594.532 471.657 595.585 471.049C596.652 470.433 597.73 470.125 598.819 470.124C599.909 470.123 600.93 470.42 601.884 471.015C602.843 471.589 603.65 472.443 604.306 473.58C604.354 473.663 604.403 473.764 604.453 473.883C604.517 473.993 604.57 474.101 604.613 474.206L595.239 479.618L594.411 478.184L602.745 473.372L602.223 474.339C601.829 473.624 601.319 473.078 600.694 472.7C600.069 472.321 599.399 472.136 598.682 472.143C597.972 472.128 597.263 472.325 596.557 472.733C595.864 473.133 595.339 473.648 594.983 474.279C594.618 474.896 594.448 475.576 594.471 476.32C594.486 477.051 594.702 477.776 595.118 478.497L595.31 478.829C595.734 479.564 596.28 480.126 596.949 480.516C597.623 480.884 598.357 481.051 599.151 481.018C599.944 480.985 600.736 480.74 601.526 480.284C602.177 479.908 602.702 479.457 603.101 478.931C603.513 478.398 603.792 477.793 603.938 477.118L605.784 477.77C605.621 478.64 605.253 479.444 604.681 480.181C604.123 480.909 603.386 481.538 602.472 482.066ZM613.452 475.726C612.538 476.254 611.593 476.633 610.617 476.864C609.656 477.087 608.835 477.154 608.156 477.066L608.076 475.006C608.731 475.053 609.469 474.987 610.29 474.809C611.11 474.63 611.881 474.333 612.602 473.917C613.53 473.381 614.119 472.865 614.369 472.37C614.633 471.867 614.628 471.38 614.356 470.909C614.156 470.562 613.876 470.364 613.514 470.314C613.153 470.264 612.736 470.31 612.265 470.453C611.807 470.588 611.309 470.765 610.77 470.984C610.223 471.189 609.668 471.38 609.105 471.557C608.534 471.72 607.981 471.818 607.445 471.85C606.902 471.869 606.397 471.763 605.932 471.533C605.458 471.289 605.038 470.848 604.67 470.21C604.286 469.545 604.137 468.855 604.223 468.141C604.309 467.426 604.616 466.741 605.142 466.085C605.675 465.408 606.413 464.798 607.355 464.254C608.076 463.838 608.855 463.508 609.693 463.264C610.538 462.998 611.287 462.889 611.942 462.935L612.002 465.007C611.311 464.962 610.66 465.034 610.047 465.221C609.435 465.408 608.859 465.658 608.318 465.97C607.445 466.474 606.878 466.996 606.617 467.535C606.347 468.06 606.34 468.544 606.596 468.987C606.812 469.361 607.105 469.58 607.474 469.644C607.85 469.686 608.27 469.647 608.736 469.526C609.216 469.396 609.729 469.229 610.276 469.025C610.815 468.806 611.369 468.615 611.94 468.452C612.503 468.274 613.045 468.174 613.567 468.15C614.103 468.117 614.603 468.216 615.069 468.447C615.548 468.669 615.968 469.091 616.328 469.715C616.712 470.38 616.85 471.067 616.742 471.776C616.634 472.485 616.307 473.182 615.76 473.867C615.205 474.539 614.436 475.158 613.452 475.726Z" fill="white"/>
</g>
<defs>
<filter id="filter0_d_743_12112" x="-23.9629" y="-23.9629" width="764" height="764" filterUnits="userSpaceOnUse" color-interpolation-filters="sRGB">
<feFlood flood-opacity="0" result="BackgroundImageFix"/>
<feColorMatrix in="SourceAlpha" type="matrix" values="0 0 0 0 0 0 0 0 0 0 0 0 0 0 0 0 0 0 127 0" result="hardAlpha"/>
<feOffset/>
<feGaussianBlur stdDeviation="12"/>
<feComposite in2="hardAlpha" operator="out"/>
<feColorMatrix type="matrix" values="0 0 0 0 0.94902 0 0 0 0 0.639216 0 0 0 0 0.156863 0 0 0 0.2 0"/>
<feBlend mode="normal" in2="BackgroundImageFix" result="effect1_dropShadow_743_12112"/>
<feBlend mode="normal" in="SourceGraphic" in2="effect1_dropShadow_743_12112" result="shape"/>
</filter>
<filter id="filter1_ii_743_12112" x="362.994" y="358.037" width="361.249" height="312.322" filterUnits="userSpaceOnUse" color-interpolation-filters="sRGB">
<feFlood flood-opacity="0" result="BackgroundImageFix"/>
<feBlend mode="normal" in="SourceGraphic" in2="BackgroundImageFix" result="shape"/>
<feColorMatrix in="SourceAlpha" type="matrix" values="0 0 0 0 0 0 0 0 0 0 0 0 0 0 0 0 0 0 127 0" result="hardAlpha"/>
<feMorphology radius="8.59104" operator="erode" in="SourceAlpha" result="effect1_innerShadow_743_12112"/>
<feOffset/>
<feGaussianBlur stdDeviation="28.6368"/>
<feComposite in2="hardAlpha" operator="arithmetic" k2="-1" k3="1"/>
<feColorMatrix type="matrix" values="0 0 0 0 0 0 0 0 0 0 0 0 0 0 0 0 0 0 0.25 0"/>
<feBlend mode="normal" in2="shape" result="effect1_innerShadow_743_12112"/>
<feColorMatrix in="SourceAlpha" type="matrix" values="0 0 0 0 0 0 0 0 0 0 0 0 0 0 0 0 0 0 127 0" result="hardAlpha"/>
<feOffset dx="8.59104" dy="8.59104"/>
<feGaussianBlur stdDeviation="21.4776"/>
<feComposite in2="hardAlpha" operator="arithmetic" k2="-1" k3="1"/>
<feColorMatrix type="matrix" values="0 0 0 0 0 0 0 0 0 0 0 0 0 0 0 0 0 0 0.25 0"/>
<feBlend mode="normal" in2="effect1_innerShadow_743_12112" result="effect2_innerShadow_743_12112"/>
</filter>
</defs>
</svg>
