<svg width="740" height="717" viewBox="0 0 740 717" fill="none" xmlns="http://www.w3.org/2000/svg">
<g filter="url(#filter0_d_743_12103)">
<mask id="path-1-inside-1_743_12103" fill="white">
<path d="M699.037 358.037C708.426 358.037 716.079 365.653 715.634 375.031C712.928 431.97 696.658 487.529 668.074 537.037C639.491 586.545 599.51 628.415 551.553 659.228C543.654 664.303 533.231 661.483 528.537 653.352L363.492 367.485C362.456 365.691 363.203 363.41 364.238 361.617C365.273 359.824 366.876 358.037 368.946 358.037H699.037Z"/>
</mask>
<g filter="url(#filter1_ii_743_12103)">
<path d="M699.037 358.037C708.426 358.037 716.079 365.653 715.634 375.031C712.928 431.97 696.658 487.529 668.074 537.037C639.491 586.545 599.51 628.415 551.553 659.228C543.654 664.303 533.231 661.483 528.537 653.352L363.492 367.485C362.456 365.691 363.203 363.41 364.238 361.617C365.273 359.824 366.876 358.037 368.946 358.037H699.037Z" fill="#FAB228"/>
</g>
<path d="M699.037 358.037C708.426 358.037 716.079 365.653 715.634 375.031C712.928 431.97 696.658 487.529 668.074 537.037C639.491 586.545 599.51 628.415 551.553 659.228C543.654 664.303 533.231 661.483 528.537 653.352L363.492 367.485C362.456 365.691 363.203 363.41 364.238 361.617C365.273 359.824 366.876 358.037 368.946 358.037H699.037Z" stroke="white" stroke-width="12" mask="url(#path-1-inside-1_743_12103)"/>
<path d="M618.343 535.233L609.943 549.782L604.269 546.506C602.994 545.77 602.023 544.941 601.354 544.02C600.685 543.098 600.328 542.116 600.284 541.074C600.239 540.032 600.52 538.984 601.128 537.931C601.736 536.878 602.503 536.11 603.428 535.628C604.344 535.16 605.373 534.978 606.514 535.082C607.647 535.2 608.85 535.627 610.125 536.363L614.656 538.979L613.157 539.416L616.265 534.033L618.343 535.233ZM613.277 539.209L613.612 540.788L609.144 538.208C607.813 537.44 606.645 537.144 605.638 537.32C604.617 537.488 603.807 538.092 603.207 539.131C602.607 540.17 602.489 541.174 602.854 542.142C603.205 543.102 604.045 543.966 605.376 544.734L609.844 547.314L608.309 547.813L613.277 539.209ZM603.635 526.741L594.731 542.163L592.735 541.011L601.639 525.589L603.635 526.741ZM590.991 519.441L589.647 521.769L589.499 522.266L587.207 526.236C586.719 527.081 586.593 527.876 586.827 528.621C587.04 529.373 587.639 530.032 588.623 530.6C589.274 530.976 589.975 531.233 590.727 531.372C591.47 531.524 592.161 531.544 592.798 531.431L592.766 533.408C591.934 533.537 591.055 533.492 590.129 533.271C589.181 533.056 588.271 532.697 587.398 532.193C585.888 531.321 584.936 530.282 584.542 529.076C584.149 527.869 584.388 526.511 585.26 525.001L589.1 518.349L590.991 519.441ZM594.68 521.405C595.497 521.877 596.138 522.431 596.601 523.068C597.051 523.698 597.302 524.351 597.355 525.028C597.399 525.718 597.242 526.376 596.882 526.999C596.538 527.595 596.087 528.055 595.53 528.38C594.959 528.697 594.271 528.817 593.465 528.74C592.646 528.655 591.689 528.297 590.594 527.665L587.103 525.649L587.931 524.215L591.339 526.183C592.337 526.759 593.105 526.98 593.643 526.848C594.182 526.715 594.587 526.413 594.859 525.942C595.171 525.402 595.208 524.841 594.971 524.261C594.725 523.694 594.221 523.191 593.459 522.751C592.711 522.319 591.964 522.109 591.218 522.122C590.457 522.126 589.769 522.375 589.151 522.869L589.548 521.269C590.188 520.77 590.952 520.518 591.841 520.514C592.722 520.524 593.668 520.821 594.68 521.405ZM581.697 513.909C582.805 514.549 583.492 515.343 583.758 516.291C584.024 517.238 583.836 518.267 583.196 519.375L577.364 529.476L575.369 528.324L581.153 518.306C581.497 517.71 581.616 517.169 581.509 516.682C581.388 516.188 581.05 515.78 580.496 515.46C579.872 515.1 579.253 514.974 578.637 515.08L578.842 513.286C579.298 513.199 579.778 513.217 580.279 513.34C580.767 513.455 581.239 513.645 581.697 513.909ZM581.575 526.503L580.627 528.145L573.602 524.089L574.55 522.447L581.575 526.503ZM576.51 511.081L569.586 523.074C568.962 524.154 568.154 524.833 567.163 525.111C566.15 525.394 565.061 525.2 563.897 524.528C563.467 524.28 563.091 523.988 562.767 523.653C562.421 523.324 562.173 522.969 562.024 522.587L563.503 521.418C563.615 521.704 563.778 521.965 563.994 522.2C564.201 522.449 564.45 522.658 564.741 522.826C565.323 523.162 565.862 523.251 566.359 523.095C566.848 522.952 567.277 522.562 567.645 521.925L568.497 520.449L568.983 519.511L574.515 509.929L576.51 511.081ZM572.969 521.535L572.021 523.177L564.996 519.121L565.944 517.479L572.969 521.535ZM564.99 504.263C566.099 504.903 566.942 505.714 567.522 506.695C568.101 507.676 568.396 508.733 568.406 509.866C568.409 511.013 568.099 512.127 567.475 513.208C566.843 514.303 566.033 515.129 565.046 515.686C564.06 516.243 563.001 516.509 561.87 516.484C560.73 516.473 559.607 516.148 558.498 515.508C557.403 514.876 556.567 514.069 555.988 513.088C555.387 512.113 555.088 511.063 555.091 509.938C555.072 508.818 555.382 507.705 556.022 506.596C556.654 505.501 557.464 504.675 558.451 504.118C559.424 503.553 560.487 503.28 561.64 503.299C562.779 503.31 563.895 503.631 564.99 504.263ZM563.982 506.009C563.275 505.601 562.553 505.397 561.815 505.395C561.063 505.386 560.359 505.58 559.705 505.978C559.042 506.39 558.486 506.984 558.038 507.76C557.582 508.55 557.35 509.321 557.341 510.073C557.323 510.839 557.507 511.545 557.891 512.192C558.261 512.831 558.799 513.354 559.506 513.762C560.213 514.17 560.935 514.375 561.674 514.376C562.412 514.377 563.115 514.183 563.784 513.793C564.444 513.417 565.003 512.834 565.459 512.044C565.907 511.268 566.136 510.486 566.148 509.698C566.151 508.924 565.968 508.218 565.598 507.579C565.227 506.941 564.689 506.417 563.982 506.009ZM556.443 499.495L550.083 510.511L548.171 509.407L549.899 506.414L549.654 507.27C548.909 507.856 548.06 508.142 547.108 508.128C546.155 508.114 545.152 507.803 544.099 507.195L545.215 505.262C545.29 505.324 545.37 505.378 545.453 505.426C545.522 505.466 545.591 505.506 545.661 505.546C546.727 506.162 547.757 506.332 548.748 506.054C549.74 505.777 550.584 505.036 551.28 503.83L554.448 498.343L556.443 499.495ZM527.86 497.819C526.973 497.307 526.29 496.682 525.811 495.943C525.332 495.205 525.11 494.374 525.144 493.452C525.164 492.521 525.486 491.515 526.11 490.434L529.77 484.095L531.765 485.247L528.237 491.358C527.621 492.425 527.406 493.372 527.593 494.201C527.78 495.029 528.324 495.703 529.224 496.223C529.889 496.607 530.551 496.805 531.21 496.816C531.869 496.827 532.493 496.642 533.082 496.261C533.658 495.873 534.177 495.277 534.641 494.473L537.917 488.799L539.912 489.951L536.384 496.062C535.768 497.129 535.554 498.076 535.741 498.905C535.914 499.725 536.457 500.399 537.372 500.927C538.023 501.303 538.678 501.497 539.337 501.508C539.996 501.519 540.62 501.334 541.209 500.953C541.798 500.573 542.325 499.981 542.789 499.177L546.065 493.503L548.06 494.655L541.7 505.671L539.788 504.567L541.48 501.636L541.36 502.565C540.597 503.085 539.74 503.338 538.787 503.324C537.835 503.31 536.88 503.027 535.924 502.475C534.871 501.867 534.116 501.08 533.657 500.113C533.191 499.16 533.145 498.089 533.517 496.9L534.136 497.701C533.315 498.354 532.341 498.697 531.214 498.73C530.086 498.762 528.968 498.459 527.86 497.819ZM522.429 479.857L507.44 490.602L505.382 489.414L507.173 471.049L509.355 472.309L507.509 489.09L506.678 488.61L520.288 478.621L522.429 479.857ZM517.523 481.874L516.001 483.213L507.812 478.485L508.17 476.474L517.523 481.874ZM492.991 477.687C492.091 477.167 491.401 476.538 490.922 475.8C490.429 475.053 490.193 474.215 490.213 473.284C490.233 472.353 490.555 471.348 491.179 470.267L494.839 463.928L496.834 465.08L493.306 471.19C492.69 472.257 492.489 473.213 492.704 474.057C492.904 474.894 493.476 475.584 494.418 476.128C495.125 476.536 495.821 476.753 496.508 476.78C497.195 476.807 497.839 476.634 498.442 476.262C499.031 475.882 499.558 475.29 500.022 474.486L503.298 468.812L505.293 469.964L498.933 480.979L497.021 479.875L498.737 476.903L498.593 477.873C497.817 478.386 496.938 478.627 495.958 478.597C494.978 478.567 493.989 478.263 492.991 477.687ZM486.666 459.043C487.733 459.659 488.553 460.447 489.126 461.406C489.686 462.357 489.964 463.395 489.961 464.52C489.958 465.645 489.632 466.769 488.984 467.892C488.336 469.014 487.53 469.851 486.565 470.402C485.592 470.967 484.554 471.246 483.45 471.237C482.333 471.22 481.241 470.903 480.174 470.287C479.246 469.751 478.527 469.06 478.019 468.212C477.511 467.364 477.275 466.397 477.312 465.309C477.334 464.214 477.706 463.043 478.426 461.796C479.146 460.549 479.967 459.637 480.891 459.062C481.8 458.479 482.753 458.188 483.75 458.191C484.738 458.207 485.71 458.491 486.666 459.043ZM485.492 460.693C484.799 460.293 484.083 460.092 483.345 460.091C482.593 460.082 481.89 460.276 481.235 460.674C480.558 461.078 479.996 461.668 479.548 462.444C479.092 463.233 478.866 464.008 478.871 464.768C478.854 465.534 479.037 466.241 479.421 466.887C479.791 467.526 480.323 468.046 481.016 468.446C481.723 468.854 482.445 469.058 483.183 469.059C483.921 469.061 484.625 468.866 485.293 468.476C485.954 468.1 486.512 467.517 486.968 466.728C487.416 465.952 487.646 465.17 487.657 464.382C487.661 463.608 487.477 462.902 487.107 462.263C486.737 461.624 486.199 461.101 485.492 460.693ZM482.666 456.9L480.95 459.872L479.349 462.356L478.081 465.033L473.845 472.37L471.85 471.218L480.754 455.796L482.666 456.9ZM606.091 500.225C607.199 500.865 608.124 501.648 608.864 502.574C609.59 503.492 610.107 504.484 610.416 505.549C610.717 506.628 610.802 507.729 610.67 508.854C610.537 509.979 610.163 511.075 609.547 512.142C608.931 513.208 608.169 514.08 607.262 514.757C606.354 515.434 605.361 515.904 604.284 516.17C603.199 516.449 602.078 516.503 600.92 516.333C599.762 516.163 598.621 515.754 597.499 515.106C596.39 514.466 595.48 513.691 594.767 512.781C594.033 511.877 593.516 510.885 593.215 509.806C592.892 508.733 592.804 507.638 592.95 506.522C593.082 505.397 593.46 504.294 594.084 503.214C594.708 502.133 595.474 501.254 596.382 500.577C597.276 499.893 598.272 499.415 599.371 499.144C600.448 498.879 601.565 498.831 602.723 499.001C603.86 499.177 604.982 499.585 606.091 500.225ZM605.023 502.074C604.219 501.61 603.398 501.321 602.559 501.206C601.706 501.083 600.886 501.127 600.099 501.338C599.291 501.555 598.552 501.923 597.883 502.442C597.2 502.953 596.626 503.61 596.162 504.414C595.698 505.217 595.416 506.043 595.315 506.889C595.2 507.728 595.255 508.545 595.479 509.34C595.682 510.141 596.05 510.88 596.583 511.557C597.102 512.226 597.763 512.793 598.567 513.257C599.384 513.729 600.22 514.026 601.072 514.149C601.911 514.264 602.735 514.213 603.544 513.996C604.345 513.793 605.086 513.436 605.769 512.925C606.438 512.407 607.005 511.745 607.469 510.942C607.933 510.138 608.222 509.317 608.337 508.478C608.438 507.631 608.381 506.803 608.164 505.994C607.939 505.199 607.567 504.467 607.048 503.798C606.516 503.121 605.84 502.546 605.023 502.074ZM589.629 490.776C590.544 491.304 591.262 491.996 591.784 492.852C592.285 493.713 592.523 494.692 592.501 495.787C592.464 496.874 592.086 498.042 591.366 499.289C590.646 500.536 589.831 501.451 588.921 502.034C587.998 502.61 587.042 502.889 586.054 502.873C585.052 502.849 584.08 502.565 583.137 502.021C582.057 501.397 581.237 500.609 580.677 499.658C580.118 498.707 579.84 497.669 579.843 496.543C579.838 495.432 580.159 494.315 580.807 493.193C581.455 492.07 582.266 491.227 583.239 490.661C584.212 490.096 585.25 489.818 586.353 489.827C587.457 489.836 588.549 490.152 589.629 490.776ZM597.726 490.241L589.038 505.289L587.126 504.185L588.842 501.212L590.442 498.728L591.711 496.051L595.731 489.089L597.726 490.241ZM588.788 492.618C588.081 492.21 587.359 492.005 586.62 492.004C585.868 491.995 585.165 492.189 584.51 492.587C583.834 492.991 583.271 493.581 582.823 494.357C582.367 495.147 582.142 495.921 582.146 496.682C582.129 497.448 582.312 498.154 582.696 498.801C583.067 499.439 583.605 499.963 584.312 500.371C585.005 500.771 585.727 500.975 586.479 500.985C587.217 500.986 587.921 500.792 588.589 500.402C589.236 500.017 589.787 499.431 590.243 498.641C590.691 497.865 590.928 497.087 590.953 496.307C590.957 495.533 590.773 494.827 590.403 494.188C590.019 493.541 589.481 493.018 588.788 492.618ZM576.397 483.136C577.575 483.816 578.474 484.659 579.095 485.664C579.702 486.661 580.01 487.726 580.021 488.859C580.018 489.984 579.701 491.094 579.069 492.189C578.437 493.284 577.641 494.118 576.682 494.691C575.709 495.256 574.671 495.534 573.568 495.525C572.442 495.522 571.353 495.217 570.3 494.609C569.233 493.993 568.427 493.213 567.881 492.27C567.336 491.327 567.082 490.294 567.121 489.171C567.138 488.054 567.474 486.927 568.13 485.791C568.178 485.708 568.241 485.615 568.319 485.512C568.383 485.401 568.45 485.301 568.52 485.212L577.894 490.624L577.066 492.058L568.731 487.246L569.83 487.215C569.408 487.914 569.19 488.628 569.174 489.359C569.159 490.089 569.334 490.762 569.698 491.379C570.041 492.002 570.565 492.517 571.272 492.925C571.965 493.325 572.673 493.522 573.398 493.515C574.114 493.522 574.789 493.33 575.422 492.938C576.047 492.56 576.567 492.01 576.983 491.29L577.175 490.957C577.599 490.223 577.813 489.469 577.816 488.695C577.798 487.926 577.576 487.207 577.15 486.536C576.724 485.866 576.117 485.302 575.327 484.846C574.676 484.47 574.023 484.241 573.368 484.159C572.7 484.069 572.037 484.129 571.379 484.341L571.021 482.416C571.856 482.122 572.736 482.038 573.66 482.166C574.57 482.285 575.483 482.608 576.397 483.136ZM568.504 478.745L562.144 489.761L560.232 488.657L561.96 485.664L561.715 486.521C560.97 487.107 560.121 487.393 559.169 487.378C558.216 487.364 557.213 487.053 556.16 486.445L557.276 484.512C557.351 484.574 557.43 484.629 557.514 484.677C557.583 484.717 557.652 484.757 557.721 484.797C558.788 485.413 559.818 485.582 560.809 485.305C561.801 485.028 562.644 484.286 563.34 483.081L566.508 477.593L568.504 478.745ZM554.095 470.426L552.751 472.754L552.603 473.251L550.311 477.221C549.823 478.066 549.696 478.861 549.931 479.606C550.144 480.357 550.742 481.017 551.726 481.585C552.377 481.961 553.079 482.218 553.83 482.356C554.574 482.509 555.264 482.529 555.902 482.416L555.869 484.393C555.037 484.522 554.158 484.476 553.232 484.256C552.285 484.041 551.374 483.682 550.501 483.178C548.991 482.306 548.039 481.267 547.646 480.061C547.252 478.854 547.491 477.496 548.363 475.985L552.203 469.334L554.095 470.426ZM557.783 472.39C558.601 472.862 559.241 473.416 559.705 474.053C560.154 474.682 560.406 475.336 560.458 476.012C560.503 476.703 560.345 477.361 559.985 477.984C559.641 478.58 559.19 479.04 558.633 479.365C558.062 479.682 557.374 479.802 556.569 479.725C555.749 479.64 554.793 479.282 553.698 478.65L550.206 476.634L551.034 475.2L554.443 477.168C555.44 477.744 556.208 477.965 556.747 477.833C557.285 477.7 557.69 477.398 557.962 476.927C558.274 476.387 558.312 475.826 558.074 475.246C557.829 474.679 557.325 474.176 556.563 473.736C555.814 473.304 555.067 473.094 554.321 473.107C553.561 473.111 552.872 473.36 552.255 473.853L552.652 472.254C553.291 471.754 554.055 471.503 554.944 471.499C555.825 471.509 556.772 471.806 557.783 472.39ZM544.8 464.894C545.908 465.534 546.596 466.328 546.861 467.276C547.127 468.223 546.94 469.252 546.3 470.36L540.468 480.461L538.472 479.309L544.256 469.291C544.6 468.695 544.719 468.154 544.612 467.667C544.491 467.173 544.154 466.765 543.599 466.445C542.976 466.085 542.356 465.959 541.74 466.065L541.945 464.271C542.402 464.184 542.881 464.202 543.383 464.325C543.87 464.44 544.343 464.63 544.8 464.894ZM544.678 477.488L543.73 479.13L536.705 475.074L537.653 473.432L544.678 477.488ZM539.905 462.234L533.545 473.25L531.549 472.098L537.909 461.082L539.905 462.234ZM531.323 474.794C531.711 475.018 531.965 475.33 532.084 475.732C532.189 476.125 532.138 476.502 531.93 476.862C531.714 477.236 531.409 477.476 531.016 477.582C530.609 477.679 530.211 477.616 529.823 477.392C529.435 477.168 529.188 476.859 529.083 476.466C528.956 476.078 528.996 475.704 529.204 475.344C529.42 474.97 529.729 474.723 530.13 474.604C530.524 474.498 530.921 474.562 531.323 474.794ZM529.453 456.033C530.562 456.673 531.406 457.484 531.985 458.465C532.564 459.446 532.859 460.503 532.87 461.636C532.873 462.783 532.562 463.897 531.938 464.978C531.306 466.073 530.497 466.899 529.51 467.456C528.523 468.013 527.464 468.279 526.333 468.254C525.194 468.243 524.07 467.918 522.961 467.278C521.867 466.646 521.03 465.839 520.451 464.858C519.85 463.883 519.551 462.833 519.554 461.708C519.535 460.589 519.846 459.475 520.486 458.366C521.118 457.271 521.927 456.445 522.914 455.888C523.887 455.323 524.95 455.05 526.103 455.069C527.242 455.08 528.359 455.401 529.453 456.033ZM528.445 457.779C527.739 457.371 527.016 457.167 526.278 457.165C525.526 457.156 524.823 457.35 524.168 457.748C523.505 458.16 522.95 458.754 522.502 459.53C522.046 460.32 521.813 461.091 521.804 461.843C521.787 462.609 521.97 463.315 522.354 463.962C522.724 464.601 523.263 465.124 523.969 465.532C524.676 465.94 525.399 466.145 526.137 466.146C526.875 466.147 527.579 465.953 528.247 465.563C528.908 465.187 529.466 464.604 529.922 463.814C530.37 463.038 530.6 462.256 530.611 461.468C530.615 460.694 530.431 459.988 530.061 459.349C529.691 458.711 529.152 458.187 528.445 457.779ZM508.604 458.989C507.704 458.469 507.014 457.84 506.535 457.101C506.042 456.355 505.806 455.516 505.826 454.585C505.846 453.655 506.168 452.649 506.792 451.568L510.452 445.229L512.447 446.381L508.919 452.492C508.303 453.559 508.102 454.514 508.317 455.359C508.517 456.195 509.089 456.885 510.031 457.429C510.738 457.837 511.434 458.055 512.121 458.082C512.807 458.108 513.452 457.936 514.055 457.563C514.644 457.183 515.171 456.591 515.635 455.787L518.911 450.113L520.906 451.265L514.546 462.281L512.634 461.177L514.35 458.205L514.206 459.174C513.43 459.687 512.551 459.928 511.571 459.898C510.591 459.868 509.602 459.565 508.604 458.989ZM610.737 475.194C611.845 475.834 612.809 476.612 613.629 477.529C614.44 478.459 614.981 479.363 615.251 480.239L613.546 481.416C613.272 480.611 612.797 479.802 612.122 478.987C611.447 478.172 610.645 477.497 609.717 476.961C608.872 476.473 608.13 476.174 607.491 476.064C606.853 475.954 606.313 475.993 605.871 476.182C605.422 476.384 605.073 476.7 604.825 477.13C604.537 477.628 604.471 478.126 604.628 478.623C604.771 479.112 605.053 479.598 605.476 480.083C605.876 480.573 606.349 481.067 606.892 481.565C607.436 482.064 607.974 482.587 608.508 483.135C609.019 483.689 609.454 484.264 609.813 484.859C610.157 485.446 610.349 486.074 610.388 486.743C610.418 487.426 610.21 488.155 609.762 488.931C609.33 489.679 608.74 490.253 607.992 490.653C607.222 491.058 606.32 491.212 605.287 491.114C604.231 491.022 603.066 490.608 601.791 489.872C600.946 489.384 600.172 488.789 599.469 488.087C598.765 487.386 598.229 486.651 597.859 485.883L599.505 484.617C599.888 485.392 600.375 486.07 600.963 486.65C601.544 487.244 602.16 487.729 602.811 488.105C603.629 488.577 604.361 488.861 605.008 488.958C605.654 489.054 606.202 489.001 606.652 488.798C607.087 488.588 607.429 488.268 607.677 487.838C607.973 487.325 608.05 486.825 607.907 486.336C607.75 485.839 607.468 485.353 607.059 484.876C606.636 484.392 606.157 483.894 605.622 483.382C605.078 482.883 604.547 482.364 604.027 481.824C603.494 481.275 603.055 480.708 602.71 480.121C602.352 479.526 602.153 478.894 602.114 478.225C602.076 477.556 602.276 476.84 602.716 476.078C603.14 475.344 603.737 474.774 604.507 474.369C605.269 473.977 606.184 473.831 607.254 473.931C608.301 474.037 609.462 474.458 610.737 475.194ZM597.43 467.567C598.607 468.247 599.507 469.089 600.127 470.094C600.734 471.091 601.043 472.156 601.054 473.289C601.051 474.415 600.733 475.525 600.101 476.619C599.469 477.714 598.674 478.548 597.714 479.121C596.741 479.686 595.703 479.965 594.6 479.956C593.475 479.953 592.385 479.647 591.332 479.039C590.265 478.423 589.459 477.644 588.914 476.7C588.368 475.757 588.115 474.724 588.154 473.601C588.17 472.484 588.507 471.357 589.163 470.221C589.211 470.138 589.274 470.045 589.352 469.942C589.416 469.831 589.483 469.731 589.552 469.642L598.926 475.054L598.098 476.488L589.764 471.676L590.862 471.645C590.44 472.344 590.222 473.059 590.207 473.789C590.192 474.519 590.366 475.193 590.731 475.81C591.073 476.432 591.598 476.948 592.304 477.356C592.997 477.756 593.706 477.952 594.43 477.946C595.147 477.953 595.821 477.76 596.454 477.368C597.079 476.99 597.599 476.44 598.015 475.72L598.207 475.387C598.631 474.653 598.845 473.899 598.849 473.125C598.83 472.357 598.608 471.637 598.182 470.967C597.757 470.296 597.149 469.733 596.359 469.277C595.708 468.901 595.055 468.671 594.4 468.589C593.732 468.499 593.069 468.559 592.411 468.771L592.054 466.846C592.888 466.552 593.768 466.469 594.692 466.596C595.603 466.715 596.515 467.039 597.43 467.567ZM589.536 463.176L583.176 474.192L581.264 473.088L582.992 470.095L582.747 470.951C582.002 471.537 581.154 471.823 580.201 471.809C579.248 471.795 578.246 471.483 577.193 470.875L578.309 468.942C578.384 469.004 578.463 469.059 578.546 469.107C578.615 469.147 578.685 469.187 578.754 469.227C579.821 469.843 580.85 470.013 581.842 469.735C582.833 469.458 583.677 468.716 584.373 467.511L587.541 462.024L589.536 463.176ZM577.818 456.41L576.28 470.21L574.201 469.01L575.68 456.561L576.677 457.137L566.553 464.594L564.599 463.466L575.781 455.234L577.818 456.41ZM569.097 451.375L562.737 462.391L560.741 461.239L567.101 450.223L569.097 451.375ZM560.515 463.935C560.903 464.159 561.157 464.471 561.276 464.873C561.381 465.266 561.33 465.643 561.122 466.003C560.906 466.378 560.601 466.617 560.208 466.723C559.801 466.82 559.403 466.757 559.015 466.533C558.627 466.309 558.38 466 558.275 465.607C558.148 465.219 558.188 464.845 558.396 464.485C558.612 464.111 558.921 463.864 559.322 463.745C559.715 463.639 560.113 463.703 560.515 463.935ZM558.562 445.127C559.685 445.775 560.549 446.597 561.156 447.594C561.749 448.583 562.051 449.644 562.062 450.777C562.073 451.911 561.762 453.025 561.13 454.119C560.498 455.214 559.689 456.04 558.702 456.597C557.715 457.154 556.649 457.417 555.504 457.384C554.337 457.357 553.193 457.019 552.07 456.371C551.073 455.795 550.302 455.082 549.758 454.232C549.192 453.388 548.918 452.454 548.937 451.43L551.018 451.33C551.066 452.078 551.282 452.729 551.664 453.282C552.025 453.842 552.503 454.293 553.099 454.637C553.82 455.053 554.556 455.266 555.308 455.275C556.06 455.284 556.77 455.094 557.439 454.704C558.1 454.328 558.658 453.745 559.114 452.955C559.57 452.165 559.8 451.384 559.803 450.61C559.806 449.836 559.616 449.125 559.232 448.479C558.848 447.832 558.296 447.301 557.575 446.885C556.979 446.541 556.353 446.345 555.696 446.299C555.018 446.258 554.342 446.404 553.67 446.736L552.705 444.904C553.574 444.39 554.524 444.153 555.554 444.193C556.562 444.24 557.565 444.551 558.562 445.127ZM546.747 438.305C547.925 438.985 548.824 439.827 549.444 440.832C550.051 441.829 550.36 442.894 550.371 444.028C550.368 445.153 550.05 446.263 549.418 447.358C548.786 448.452 547.991 449.286 547.032 449.859C546.059 450.425 545.021 450.703 543.917 450.694C542.792 450.691 541.703 450.385 540.65 449.777C539.583 449.161 538.776 448.382 538.231 447.439C537.685 446.496 537.432 445.462 537.471 444.339C537.488 443.222 537.824 442.095 538.48 440.959C538.528 440.876 538.591 440.783 538.669 440.68C538.733 440.569 538.8 440.469 538.87 440.38L548.243 445.792L547.415 447.227L539.081 442.415L540.179 442.384C539.758 443.082 539.539 443.797 539.524 444.527C539.509 445.257 539.683 445.931 540.048 446.548C540.39 447.17 540.915 447.686 541.622 448.094C542.314 448.494 543.023 448.69 543.747 448.684C544.464 448.691 545.138 448.498 545.771 448.106C546.396 447.728 546.917 447.179 547.333 446.458L547.525 446.126C547.949 445.391 548.162 444.637 548.166 443.863C548.147 443.095 547.925 442.376 547.5 441.705C547.074 441.034 546.466 440.471 545.676 440.015C545.025 439.639 544.372 439.41 543.718 439.327C543.049 439.237 542.386 439.298 541.728 439.509L541.371 437.584C542.206 437.29 543.085 437.207 544.009 437.334C544.92 437.453 545.832 437.777 546.747 438.305ZM535.766 431.965C536.681 432.493 537.482 433.122 538.169 433.851C538.843 434.573 539.311 435.25 539.574 435.882L537.831 436.982C537.543 436.391 537.117 435.785 536.553 435.163C535.988 434.541 535.345 434.022 534.625 433.606C533.696 433.07 532.955 432.818 532.401 432.849C531.834 432.873 531.414 433.12 531.142 433.591C530.942 433.937 530.91 434.279 531.048 434.617C531.185 434.955 531.434 435.293 531.794 435.63C532.139 435.959 532.542 436.302 533.001 436.659C533.451 437.03 533.894 437.415 534.329 437.814C534.756 438.227 535.117 438.657 535.413 439.105C535.701 439.567 535.861 440.057 535.894 440.575C535.92 441.107 535.749 441.692 535.381 442.329C534.997 442.994 534.474 443.468 533.811 443.751C533.149 444.034 532.403 444.111 531.572 443.982C530.719 443.859 529.821 443.526 528.879 442.982C528.159 442.566 527.483 442.056 526.853 441.452C526.201 440.853 525.731 440.259 525.444 439.668L527.208 438.58C527.515 439.201 527.902 439.73 528.371 440.166C528.839 440.603 529.344 440.977 529.884 441.289C530.757 441.793 531.492 442.024 532.09 441.981C532.679 441.952 533.102 441.716 533.358 441.272C533.574 440.898 533.617 440.535 533.488 440.183C533.337 439.837 533.092 439.493 532.754 439.15C532.403 438.799 532.001 438.438 531.551 438.067C531.092 437.71 530.649 437.325 530.222 436.912C529.787 436.513 529.429 436.094 529.147 435.654C528.851 435.206 528.687 434.723 528.653 434.205C528.606 433.679 528.762 433.104 529.122 432.48C529.506 431.815 530.032 431.352 530.7 431.091C531.368 430.83 532.136 430.765 533.002 430.896C533.861 431.041 534.782 431.397 535.766 431.965Z" fill="white"/>
</g>
<defs>
<filter id="filter0_d_743_12103" x="-23.9629" y="-23.9629" width="764" height="764" filterUnits="userSpaceOnUse" color-interpolation-filters="sRGB">
<feFlood flood-opacity="0" result="BackgroundImageFix"/>
<feColorMatrix in="SourceAlpha" type="matrix" values="0 0 0 0 0 0 0 0 0 0 0 0 0 0 0 0 0 0 127 0" result="hardAlpha"/>
<feOffset/>
<feGaussianBlur stdDeviation="12"/>
<feComposite in2="hardAlpha" operator="out"/>
<feColorMatrix type="matrix" values="0 0 0 0 0.94902 0 0 0 0 0.639216 0 0 0 0 0.156863 0 0 0 0.2 0"/>
<feBlend mode="normal" in2="BackgroundImageFix" result="effect1_dropShadow_743_12103"/>
<feBlend mode="normal" in="SourceGraphic" in2="effect1_dropShadow_743_12103" result="shape"/>
</filter>
<filter id="filter1_ii_743_12103" x="362.994" y="358.037" width="361.249" height="312.322" filterUnits="userSpaceOnUse" color-interpolation-filters="sRGB">
<feFlood flood-opacity="0" result="BackgroundImageFix"/>
<feBlend mode="normal" in="SourceGraphic" in2="BackgroundImageFix" result="shape"/>
<feColorMatrix in="SourceAlpha" type="matrix" values="0 0 0 0 0 0 0 0 0 0 0 0 0 0 0 0 0 0 127 0" result="hardAlpha"/>
<feMorphology radius="8.59104" operator="erode" in="SourceAlpha" result="effect1_innerShadow_743_12103"/>
<feOffset/>
<feGaussianBlur stdDeviation="28.6368"/>
<feComposite in2="hardAlpha" operator="arithmetic" k2="-1" k3="1"/>
<feColorMatrix type="matrix" values="0 0 0 0 0 0 0 0 0 0 0 0 0 0 0 0 0 0 0.25 0"/>
<feBlend mode="normal" in2="shape" result="effect1_innerShadow_743_12103"/>
<feColorMatrix in="SourceAlpha" type="matrix" values="0 0 0 0 0 0 0 0 0 0 0 0 0 0 0 0 0 0 127 0" result="hardAlpha"/>
<feOffset dx="8.59104" dy="8.59104"/>
<feGaussianBlur stdDeviation="21.4776"/>
<feComposite in2="hardAlpha" operator="arithmetic" k2="-1" k3="1"/>
<feColorMatrix type="matrix" values="0 0 0 0 0 0 0 0 0 0 0 0 0 0 0 0 0 0 0.25 0"/>
<feBlend mode="normal" in2="effect1_innerShadow_743_12103" result="effect2_innerShadow_743_12103"/>
</filter>
</defs>
</svg>
