<svg width="740" height="716" viewBox="0 0 740 716" fill="none" xmlns="http://www.w3.org/2000/svg">
<g filter="url(#filter0_d_743_12106)">
<mask id="path-1-inside-1_743_12106" fill="white">
<path d="M699 358C708.389 358 716.042 365.616 715.597 374.994C712.891 431.933 696.621 487.492 668.037 537C639.454 586.508 599.473 628.378 551.516 659.191C543.617 664.266 533.195 661.446 528.5 653.315L363.455 367.447C362.419 365.654 363.166 363.373 364.201 361.58C365.236 359.787 366.839 358 368.909 358L699 358Z"/>
</mask>
<g filter="url(#filter1_ii_743_12106)">
<path d="M699 358C708.389 358 716.042 365.616 715.597 374.994C712.891 431.933 696.621 487.492 668.037 537C639.454 586.508 599.473 628.378 551.516 659.191C543.617 664.266 533.195 661.446 528.5 653.315L363.455 367.447C362.419 365.654 363.166 363.373 364.201 361.58C365.236 359.787 366.839 358 368.909 358L699 358Z" fill="#0471AA"/>
</g>
<path d="M699 358C708.389 358 716.042 365.616 715.597 374.994C712.891 431.933 696.621 487.492 668.037 537C639.454 586.508 599.473 628.378 551.516 659.191C543.617 664.266 533.195 661.446 528.5 653.315L363.455 367.447C362.419 365.654 363.166 363.373 364.201 361.58C365.236 359.787 366.839 358 368.909 358L699 358Z" stroke="white" stroke-width="12" mask="url(#path-1-inside-1_743_12106)"/>
<path d="M545.192 529.607C545.192 530.887 545 532.111 544.616 533.279C544.216 534.447 543.704 535.367 543.08 536.039L541.208 535.151C541.768 534.511 542.232 533.695 542.6 532.703C542.968 531.711 543.152 530.679 543.152 529.607C543.152 528.631 543.04 527.839 542.816 527.231C542.592 526.623 542.288 526.175 541.904 525.887C541.504 525.599 541.056 525.455 540.56 525.455C539.984 525.455 539.52 525.647 539.168 526.031C538.816 526.399 538.536 526.887 538.328 527.495C538.104 528.087 537.912 528.743 537.752 529.463C537.592 530.183 537.408 530.911 537.2 531.647C536.976 532.367 536.696 533.031 536.36 533.639C536.024 534.231 535.576 534.711 535.016 535.079C534.44 535.447 533.704 535.631 532.808 535.631C531.944 535.631 531.152 535.407 530.432 534.959C529.696 534.495 529.112 533.791 528.68 532.847C528.232 531.887 528.008 530.671 528.008 529.199C528.008 528.223 528.136 527.255 528.392 526.295C528.648 525.335 529.016 524.503 529.496 523.799L531.416 524.591C530.936 525.311 530.592 526.071 530.384 526.871C530.16 527.671 530.048 528.447 530.048 529.199C530.048 530.143 530.168 530.919 530.408 531.527C530.648 532.135 530.968 532.583 531.368 532.871C531.768 533.143 532.216 533.279 532.712 533.279C533.304 533.279 533.776 533.095 534.128 532.727C534.48 532.343 534.76 531.855 534.968 531.263C535.176 530.655 535.368 529.991 535.544 529.271C535.704 528.551 535.888 527.831 536.096 527.111C536.304 526.375 536.576 525.711 536.912 525.119C537.248 524.511 537.696 524.023 538.256 523.655C538.816 523.287 539.536 523.103 540.416 523.103C541.264 523.103 542.056 523.335 542.792 523.799C543.512 524.263 544.096 524.983 544.544 525.959C544.976 526.919 545.192 528.135 545.192 529.607ZM545.144 514.269C545.144 515.629 544.864 516.829 544.304 517.869C543.744 518.893 542.976 519.693 542 520.269C541.024 520.829 539.904 521.109 538.64 521.109C537.376 521.109 536.256 520.837 535.28 520.293C534.304 519.733 533.544 518.973 533 518.013C532.44 517.037 532.16 515.941 532.16 514.725C532.16 513.493 532.432 512.405 532.976 511.461C533.52 510.517 534.288 509.781 535.28 509.253C536.256 508.709 537.4 508.437 538.712 508.437C538.808 508.437 538.92 508.445 539.048 508.461C539.176 508.461 539.296 508.469 539.408 508.485L539.408 519.309L537.752 519.309L537.752 509.685L538.328 510.621C537.512 510.605 536.784 510.773 536.144 511.125C535.504 511.477 535.008 511.965 534.656 512.589C534.288 513.197 534.104 513.909 534.104 514.725C534.104 515.525 534.288 516.237 534.656 516.861C535.008 517.485 535.512 517.973 536.168 518.325C536.808 518.677 537.544 518.853 538.376 518.853L538.76 518.853C539.608 518.853 540.368 518.661 541.04 518.277C541.696 517.877 542.208 517.325 542.576 516.621C542.944 515.917 543.128 515.109 543.128 514.197C543.128 513.445 543 512.765 542.744 512.157C542.488 511.533 542.104 510.989 541.592 510.525L543.08 509.253C543.752 509.829 544.264 510.549 544.616 511.413C544.968 512.261 545.144 513.213 545.144 514.269ZM545.144 499.694C545.144 500.99 544.864 502.15 544.304 503.174C543.744 504.182 542.976 504.974 542 505.55C541.024 506.126 539.904 506.414 538.64 506.414C537.376 506.414 536.256 506.126 535.28 505.55C534.304 504.974 533.544 504.182 533 503.174C532.44 502.15 532.16 500.99 532.16 499.694C532.16 498.542 532.392 497.518 532.856 496.622C533.304 495.71 533.976 495.006 534.872 494.51L536 496.262C535.376 496.678 534.92 497.19 534.632 497.798C534.328 498.39 534.176 499.03 534.176 499.718C534.176 500.55 534.36 501.294 534.728 501.95C535.096 502.606 535.616 503.126 536.288 503.51C536.944 503.894 537.728 504.086 538.64 504.086C539.552 504.086 540.344 503.894 541.016 503.51C541.688 503.126 542.208 502.606 542.576 501.95C542.944 501.294 543.128 500.55 543.128 499.718C543.128 499.03 542.984 498.39 542.696 497.798C542.392 497.19 541.928 496.678 541.304 496.262L542.408 494.51C543.288 495.006 543.968 495.71 544.448 496.622C544.912 497.518 545.144 498.542 545.144 499.694ZM545.144 486.175C545.144 487.263 544.944 488.223 544.544 489.055C544.144 489.871 543.536 490.511 542.72 490.975C541.888 491.423 540.848 491.647 539.6 491.647L532.28 491.647L532.28 489.343L539.336 489.343C540.584 489.343 541.52 489.047 542.144 488.455C542.768 487.847 543.08 486.999 543.08 485.911C543.08 485.111 542.92 484.415 542.6 483.823C542.264 483.231 541.784 482.775 541.16 482.455C540.52 482.135 539.752 481.975 538.856 481.975L532.28 481.975L532.28 479.671L545 479.671L545 481.855L541.568 481.855L542.48 481.495C543.328 481.911 543.984 482.535 544.448 483.367C544.912 484.199 545.144 485.135 545.144 486.175ZM545 475.285L532.28 475.285L532.28 473.077L535.736 473.077L534.872 473.293C533.992 472.941 533.32 472.349 532.856 471.517C532.392 470.685 532.16 469.661 532.16 468.445L534.392 468.445C534.376 468.541 534.368 468.637 534.368 468.733C534.368 468.813 534.368 468.893 534.368 468.973C534.368 470.205 534.736 471.181 535.472 471.901C536.208 472.621 537.272 472.981 538.664 472.981L545 472.981L545 475.285ZM545 465.605L532.28 465.605L532.28 463.301L545 463.301L545 465.605ZM529.832 464.453C529.832 464.901 529.688 465.277 529.4 465.581C529.112 465.869 528.76 466.013 528.344 466.013C527.912 466.013 527.552 465.869 527.264 465.581C526.976 465.277 526.832 464.901 526.832 464.453C526.832 464.005 526.976 463.637 527.264 463.349C527.536 463.045 527.88 462.893 528.296 462.893C528.728 462.893 529.096 463.037 529.4 463.325C529.688 463.613 529.832 463.989 529.832 464.453ZM545.144 454.534C545.144 455.814 544.8 456.806 544.112 457.51C543.424 458.214 542.44 458.566 541.16 458.566L529.496 458.566L529.496 456.262L541.064 456.262C541.752 456.262 542.28 456.094 542.648 455.758C543.016 455.406 543.2 454.91 543.2 454.27C543.2 453.55 543 452.95 542.6 452.47L544.256 451.75C544.56 452.102 544.784 452.526 544.928 453.022C545.072 453.502 545.144 454.006 545.144 454.534ZM534.176 460.726L532.28 460.726L532.28 452.614L534.176 452.614L534.176 460.726ZM549.8 448.647C549.8 449.255 549.696 449.847 549.488 450.423C549.296 450.999 549.008 451.495 548.624 451.911L546.896 450.927C547.2 450.607 547.432 450.255 547.592 449.871C547.752 449.487 547.832 449.079 547.832 448.647C547.832 448.087 547.688 447.623 547.4 447.255C547.112 446.887 546.6 446.543 545.864 446.223L544.112 445.431L543.824 445.191L532.28 440.199L532.28 437.943L546.272 444.111C547.168 444.479 547.872 444.895 548.384 445.359C548.896 445.807 549.256 446.303 549.464 446.847C549.688 447.391 549.8 447.991 549.8 448.647ZM545.408 445.623L532.28 451.431L532.28 449.031L543.608 444.087L545.408 445.623ZM569.192 530.158C569.192 531.438 569 532.662 568.616 533.83C568.216 534.998 567.704 535.918 567.08 536.59L565.208 535.702C565.768 535.062 566.232 534.246 566.6 533.254C566.968 532.262 567.152 531.23 567.152 530.158C567.152 529.182 567.04 528.39 566.816 527.782C566.592 527.174 566.288 526.726 565.904 526.438C565.504 526.15 565.056 526.006 564.56 526.006C563.984 526.006 563.52 526.198 563.168 526.582C562.816 526.95 562.536 527.438 562.328 528.046C562.104 528.638 561.912 529.294 561.752 530.014C561.592 530.734 561.408 531.462 561.2 532.198C560.976 532.918 560.696 533.582 560.36 534.19C560.024 534.782 559.576 535.262 559.016 535.63C558.44 535.998 557.704 536.182 556.808 536.182C555.944 536.182 555.152 535.958 554.432 535.51C553.696 535.046 553.112 534.342 552.68 533.398C552.232 532.438 552.008 531.222 552.008 529.75C552.008 528.774 552.136 527.806 552.392 526.846C552.648 525.886 553.016 525.054 553.496 524.35L555.416 525.142C554.936 525.862 554.592 526.622 554.384 527.422C554.16 528.222 554.048 528.998 554.048 529.75C554.048 530.694 554.168 531.47 554.408 532.078C554.648 532.686 554.968 533.134 555.368 533.422C555.768 533.694 556.216 533.83 556.712 533.83C557.304 533.83 557.776 533.646 558.128 533.278C558.48 532.894 558.76 532.406 558.968 531.814C559.176 531.206 559.368 530.542 559.544 529.822C559.704 529.102 559.888 528.382 560.096 527.662C560.304 526.926 560.576 526.262 560.912 525.67C561.248 525.062 561.696 524.574 562.256 524.206C562.816 523.838 563.536 523.654 564.416 523.654C565.264 523.654 566.056 523.886 566.792 524.35C567.512 524.814 568.096 525.534 568.544 526.51C568.976 527.47 569.192 528.686 569.192 530.158ZM569.144 514.82C569.144 516.18 568.864 517.38 568.304 518.42C567.744 519.444 566.976 520.244 566 520.82C565.024 521.38 563.904 521.66 562.64 521.66C561.376 521.66 560.256 521.388 559.28 520.844C558.304 520.284 557.544 519.524 557 518.564C556.44 517.588 556.16 516.492 556.16 515.276C556.16 514.044 556.432 512.956 556.976 512.012C557.52 511.068 558.288 510.332 559.28 509.804C560.256 509.26 561.4 508.988 562.712 508.988C562.808 508.988 562.92 508.996 563.048 509.012C563.176 509.012 563.296 509.02 563.408 509.036L563.408 519.86L561.752 519.86L561.752 510.236L562.328 511.172C561.512 511.156 560.784 511.324 560.144 511.676C559.504 512.028 559.008 512.516 558.656 513.14C558.288 513.748 558.104 514.46 558.104 515.276C558.104 516.076 558.288 516.788 558.656 517.412C559.008 518.036 559.512 518.524 560.168 518.876C560.808 519.228 561.544 519.404 562.376 519.404L562.76 519.404C563.608 519.404 564.368 519.212 565.04 518.828C565.696 518.428 566.208 517.876 566.576 517.172C566.944 516.468 567.128 515.66 567.128 514.748C567.128 513.996 567 513.316 566.744 512.708C566.488 512.084 566.104 511.54 565.592 511.076L567.08 509.804C567.752 510.38 568.264 511.1 568.616 511.964C568.968 512.812 569.144 513.764 569.144 514.82ZM569 505.789L556.28 505.789L556.28 503.581L559.736 503.581L558.872 503.797C557.992 503.445 557.32 502.853 556.856 502.021C556.392 501.189 556.16 500.165 556.16 498.949L558.392 498.949C558.376 499.045 558.368 499.141 558.368 499.237C558.368 499.317 558.368 499.397 558.368 499.477C558.368 500.709 558.736 501.685 559.472 502.405C560.208 503.125 561.272 503.485 562.664 503.485L569 503.485L569 505.789ZM569 492.257L556.28 497.825L556.28 495.425L567.8 490.481L567.8 491.633L556.28 486.593L556.28 484.337L569 489.905L569 492.257ZM569 482.187L556.28 482.187L556.28 479.883L569 479.883L569 482.187ZM553.832 481.035C553.832 481.483 553.688 481.859 553.4 482.163C553.112 482.451 552.76 482.595 552.344 482.595C551.912 482.595 551.552 482.451 551.264 482.163C550.976 481.859 550.832 481.483 550.832 481.035C550.832 480.587 550.976 480.219 551.264 479.931C551.536 479.627 551.88 479.475 552.296 479.475C552.728 479.475 553.096 479.619 553.4 479.907C553.688 480.195 553.832 480.571 553.832 481.035ZM569.144 469.94C569.144 471.236 568.864 472.396 568.304 473.42C567.744 474.428 566.976 475.22 566 475.796C565.024 476.372 563.904 476.66 562.64 476.66C561.376 476.66 560.256 476.372 559.28 475.796C558.304 475.22 557.544 474.428 557 473.42C556.44 472.396 556.16 471.236 556.16 469.94C556.16 468.788 556.392 467.764 556.856 466.868C557.304 465.956 557.976 465.252 558.872 464.756L560 466.508C559.376 466.924 558.92 467.436 558.632 468.044C558.328 468.636 558.176 469.276 558.176 469.964C558.176 470.796 558.36 471.54 558.728 472.196C559.096 472.852 559.616 473.372 560.288 473.756C560.944 474.14 561.728 474.332 562.64 474.332C563.552 474.332 564.344 474.14 565.016 473.756C565.688 473.372 566.208 472.852 566.576 472.196C566.944 471.54 567.128 470.796 567.128 469.964C567.128 469.276 566.984 468.636 566.696 468.044C566.392 467.436 565.928 466.924 565.304 466.508L566.408 464.756C567.288 465.252 567.968 465.956 568.448 466.868C568.912 467.764 569.144 468.788 569.144 469.94ZM569.144 456.297C569.144 457.657 568.864 458.857 568.304 459.897C567.744 460.921 566.976 461.721 566 462.297C565.024 462.857 563.904 463.137 562.64 463.137C561.376 463.137 560.256 462.865 559.28 462.321C558.304 461.761 557.544 461.001 557 460.041C556.44 459.065 556.16 457.969 556.16 456.753C556.16 455.521 556.432 454.433 556.976 453.489C557.52 452.545 558.288 451.809 559.28 451.281C560.256 450.737 561.4 450.465 562.712 450.465C562.808 450.465 562.92 450.473 563.048 450.489C563.176 450.489 563.296 450.497 563.408 450.513L563.408 461.337L561.752 461.337L561.752 451.713L562.328 452.649C561.512 452.633 560.784 452.801 560.144 453.153C559.504 453.505 559.008 453.993 558.656 454.617C558.288 455.225 558.104 455.937 558.104 456.753C558.104 457.553 558.288 458.265 558.656 458.889C559.008 459.513 559.512 460.001 560.168 460.353C560.808 460.705 561.544 460.881 562.376 460.881L562.76 460.881C563.608 460.881 564.368 460.689 565.04 460.305C565.696 459.905 566.208 459.353 566.576 458.649C566.944 457.945 567.128 457.137 567.128 456.225C567.128 455.473 567 454.793 566.744 454.185C566.488 453.561 566.104 453.017 565.592 452.553L567.08 451.281C567.752 451.857 568.264 452.577 568.616 453.441C568.968 454.289 569.144 455.241 569.144 456.297ZM569.144 443.617C569.144 444.673 569 445.681 568.712 446.641C568.424 447.585 568.072 448.329 567.656 448.873L565.832 447.913C566.2 447.369 566.512 446.697 566.768 445.897C567.024 445.097 567.152 444.281 567.152 443.449C567.152 442.377 567 441.609 566.696 441.145C566.392 440.665 565.968 440.425 565.424 440.425C565.024 440.425 564.712 440.569 564.488 440.857C564.264 441.145 564.096 441.529 563.984 442.009C563.872 442.473 563.776 442.993 563.696 443.569C563.6 444.145 563.488 444.721 563.36 445.297C563.216 445.873 563.024 446.401 562.784 446.881C562.528 447.361 562.184 447.745 561.752 448.033C561.304 448.321 560.712 448.465 559.976 448.465C559.208 448.465 558.536 448.249 557.96 447.817C557.384 447.385 556.944 446.777 556.64 445.993C556.32 445.193 556.16 444.249 556.16 443.161C556.16 442.329 556.264 441.489 556.472 440.641C556.664 439.777 556.944 439.073 557.312 438.529L559.136 439.513C558.752 440.089 558.488 440.689 558.344 441.313C558.2 441.937 558.128 442.561 558.128 443.185C558.128 444.193 558.296 444.945 558.632 445.441C558.952 445.937 559.368 446.185 559.88 446.185C560.312 446.185 560.648 446.041 560.888 445.753C561.112 445.449 561.288 445.065 561.416 444.601C561.544 444.121 561.656 443.593 561.752 443.017C561.832 442.441 561.944 441.865 562.088 441.289C562.216 440.713 562.4 440.193 562.64 439.729C562.88 439.249 563.216 438.865 563.648 438.577C564.08 438.273 564.656 438.121 565.376 438.121C566.144 438.121 566.808 438.345 567.368 438.793C567.928 439.241 568.368 439.873 568.688 440.689C568.992 441.505 569.144 442.481 569.144 443.617Z" fill="white"/>
</g>
<defs>
<filter id="filter0_d_743_12106" x="-24" y="-24" width="764" height="764" filterUnits="userSpaceOnUse" color-interpolation-filters="sRGB">
<feFlood flood-opacity="0" result="BackgroundImageFix"/>
<feColorMatrix in="SourceAlpha" type="matrix" values="0 0 0 0 0 0 0 0 0 0 0 0 0 0 0 0 0 0 127 0" result="hardAlpha"/>
<feOffset/>
<feGaussianBlur stdDeviation="12"/>
<feComposite in2="hardAlpha" operator="out"/>
<feColorMatrix type="matrix" values="0 0 0 0 0.94902 0 0 0 0 0.639216 0 0 0 0 0.156863 0 0 0 0.2 0"/>
<feBlend mode="normal" in2="BackgroundImageFix" result="effect1_dropShadow_743_12106"/>
<feBlend mode="normal" in="SourceGraphic" in2="effect1_dropShadow_743_12106" result="shape"/>
</filter>
<filter id="filter1_ii_743_12106" x="362.957" y="358" width="361.249" height="312.322" filterUnits="userSpaceOnUse" color-interpolation-filters="sRGB">
<feFlood flood-opacity="0" result="BackgroundImageFix"/>
<feBlend mode="normal" in="SourceGraphic" in2="BackgroundImageFix" result="shape"/>
<feColorMatrix in="SourceAlpha" type="matrix" values="0 0 0 0 0 0 0 0 0 0 0 0 0 0 0 0 0 0 127 0" result="hardAlpha"/>
<feMorphology radius="8.59104" operator="erode" in="SourceAlpha" result="effect1_innerShadow_743_12106"/>
<feOffset/>
<feGaussianBlur stdDeviation="28.6368"/>
<feComposite in2="hardAlpha" operator="arithmetic" k2="-1" k3="1"/>
<feColorMatrix type="matrix" values="0 0 0 0 0 0 0 0 0 0 0 0 0 0 0 0 0 0 0.25 0"/>
<feBlend mode="normal" in2="shape" result="effect1_innerShadow_743_12106"/>
<feColorMatrix in="SourceAlpha" type="matrix" values="0 0 0 0 0 0 0 0 0 0 0 0 0 0 0 0 0 0 127 0" result="hardAlpha"/>
<feOffset dx="8.59104" dy="8.59104"/>
<feGaussianBlur stdDeviation="21.4776"/>
<feComposite in2="hardAlpha" operator="arithmetic" k2="-1" k3="1"/>
<feColorMatrix type="matrix" values="0 0 0 0 0 0 0 0 0 0 0 0 0 0 0 0 0 0 0.25 0"/>
<feBlend mode="normal" in2="effect1_innerShadow_743_12106" result="effect2_innerShadow_743_12106"/>
</filter>
</defs>
</svg>
