<svg width="716" height="740" viewBox="0 0 716 740" fill="none" xmlns="http://www.w3.org/2000/svg">
<g filter="url(#filter0_d_743_12098)">
<mask id="path-1-inside-1_743_12098" fill="white">
<path d="M358 41C358 31.6111 365.616 23.9579 374.994 24.4035C431.933 27.1091 487.492 43.3794 537 71.9628C586.508 100.546 628.378 140.527 659.191 188.484C664.266 196.383 661.446 206.806 653.315 211.5L367.447 376.545C365.654 377.581 363.373 376.834 361.58 375.799C359.787 374.764 358 373.162 358 371.091L358 41Z"/>
</mask>
<g filter="url(#filter1_ii_743_12098)">
<path d="M358 41C358 31.6111 365.616 23.9579 374.994 24.4035C431.933 27.1091 487.492 43.3794 537 71.9628C586.508 100.546 628.378 140.527 659.191 188.484C664.266 196.383 661.446 206.806 653.315 211.5L367.447 376.545C365.654 377.581 363.373 376.834 361.58 375.799C359.787 374.764 358 373.162 358 371.091L358 41Z" fill="#34936F"/>
</g>
<path d="M358 41C358 31.6111 365.616 23.9579 374.994 24.4035C431.933 27.1091 487.492 43.3794 537 71.9628C586.508 100.546 628.378 140.527 659.191 188.484C664.266 196.383 661.446 206.806 653.315 211.5L367.447 376.545C365.654 377.581 363.373 376.834 361.58 375.799C359.787 374.764 358 373.162 358 371.091L358 41Z" stroke="white" stroke-width="12" mask="url(#path-1-inside-1_743_12098)"/>
<path d="M441.057 180.192C439.777 180.192 438.553 180 437.385 179.616C436.217 179.216 435.297 178.704 434.625 178.08L435.513 176.208C436.153 176.768 436.969 177.232 437.961 177.6C438.953 177.968 439.985 178.152 441.057 178.152C442.033 178.152 442.825 178.04 443.433 177.816C444.041 177.592 444.489 177.288 444.777 176.904C445.065 176.504 445.209 176.056 445.209 175.56C445.209 174.984 445.017 174.52 444.633 174.168C444.265 173.816 443.777 173.536 443.169 173.328C442.577 173.104 441.921 172.912 441.201 172.752C440.481 172.592 439.753 172.408 439.017 172.2C438.297 171.976 437.633 171.696 437.025 171.36C436.433 171.024 435.953 170.576 435.585 170.016C435.217 169.44 435.033 168.704 435.033 167.808C435.033 166.944 435.257 166.152 435.705 165.432C436.169 164.696 436.873 164.112 437.817 163.68C438.777 163.232 439.993 163.008 441.465 163.008C442.441 163.008 443.409 163.136 444.369 163.392C445.329 163.648 446.161 164.016 446.865 164.496L446.073 166.416C445.353 165.936 444.593 165.592 443.793 165.384C442.993 165.16 442.217 165.048 441.465 165.048C440.521 165.048 439.745 165.168 439.137 165.408C438.529 165.648 438.081 165.968 437.793 166.368C437.521 166.768 437.385 167.216 437.385 167.712C437.385 168.304 437.569 168.776 437.937 169.128C438.321 169.48 438.809 169.76 439.401 169.968C440.009 170.176 440.673 170.368 441.393 170.544C442.113 170.704 442.833 170.888 443.553 171.096C444.289 171.304 444.953 171.576 445.545 171.912C446.153 172.248 446.641 172.696 447.009 173.256C447.377 173.816 447.561 174.536 447.561 175.416C447.561 176.264 447.329 177.056 446.865 177.792C446.401 178.512 445.681 179.096 444.705 179.544C443.745 179.976 442.529 180.192 441.057 180.192ZM455.099 180.144C453.819 180.144 452.827 179.8 452.123 179.112C451.419 178.424 451.067 177.44 451.067 176.16L451.067 164.496L453.371 164.496L453.371 176.064C453.371 176.752 453.539 177.28 453.875 177.648C454.227 178.016 454.723 178.2 455.363 178.2C456.083 178.2 456.683 178 457.163 177.6L457.883 179.256C457.531 179.56 457.107 179.784 456.611 179.928C456.131 180.072 455.627 180.144 455.099 180.144ZM448.907 169.176L448.907 167.28L457.019 167.28L457.019 169.176L448.907 169.176ZM468.564 180L468.564 177.312L468.444 176.808L468.444 172.224C468.444 171.248 468.156 170.496 467.58 169.968C467.02 169.424 466.172 169.152 465.036 169.152C464.284 169.152 463.548 169.28 462.828 169.536C462.108 169.776 461.5 170.104 461.004 170.52L460.044 168.792C460.7 168.264 461.484 167.864 462.396 167.592C463.324 167.304 464.292 167.16 465.3 167.16C467.044 167.16 468.388 167.584 469.332 168.432C470.276 169.28 470.748 170.576 470.748 172.32L470.748 180L468.564 180ZM464.388 180.144C463.444 180.144 462.612 179.984 461.892 179.664C461.188 179.344 460.644 178.904 460.26 178.344C459.876 177.768 459.684 177.12 459.684 176.4C459.684 175.712 459.844 175.088 460.164 174.528C460.5 173.968 461.036 173.52 461.772 173.184C462.524 172.848 463.532 172.68 464.796 172.68L468.828 172.68L468.828 174.336L464.892 174.336C463.74 174.336 462.964 174.528 462.564 174.912C462.164 175.296 461.964 175.76 461.964 176.304C461.964 176.928 462.212 177.432 462.708 177.816C463.204 178.184 463.892 178.368 464.772 178.368C465.636 178.368 466.388 178.176 467.028 177.792C467.684 177.408 468.156 176.848 468.444 176.112L468.9 177.696C468.596 178.448 468.06 179.048 467.292 179.496C466.524 179.928 465.556 180.144 464.388 180.144ZM475.348 180L475.348 166.152C475.348 164.904 475.708 163.912 476.428 163.176C477.164 162.424 478.204 162.048 479.548 162.048C480.044 162.048 480.516 162.112 480.964 162.24C481.428 162.352 481.82 162.536 482.14 162.792L481.444 164.544C481.204 164.352 480.932 164.208 480.628 164.112C480.324 164 480.004 163.944 479.668 163.944C478.996 163.944 478.484 164.136 478.132 164.52C477.78 164.888 477.604 165.44 477.604 166.176L477.604 167.88L477.652 168.936L477.652 180L475.348 180ZM473.188 169.176L473.188 167.28L481.3 167.28L481.3 169.176L473.188 169.176ZM483.809 180L483.809 166.152C483.809 164.904 484.169 163.912 484.889 163.176C485.625 162.424 486.665 162.048 488.009 162.048C488.505 162.048 488.977 162.112 489.425 162.24C489.889 162.352 490.281 162.536 490.601 162.792L489.905 164.544C489.665 164.352 489.393 164.208 489.089 164.112C488.785 164 488.465 163.944 488.129 163.944C487.457 163.944 486.945 164.136 486.593 164.52C486.241 164.888 486.065 165.44 486.065 166.176L486.065 167.88L486.113 168.936L486.113 180L483.809 180ZM481.649 169.176L481.649 167.28L489.761 167.28L489.761 169.176L481.649 169.176ZM491.945 180L491.945 167.28L494.249 167.28L494.249 180L491.945 180ZM493.097 164.832C492.649 164.832 492.273 164.688 491.969 164.4C491.681 164.112 491.537 163.76 491.537 163.344C491.537 162.912 491.681 162.552 491.969 162.264C492.273 161.976 492.649 161.832 493.097 161.832C493.545 161.832 493.913 161.976 494.201 162.264C494.505 162.536 494.657 162.88 494.657 163.296C494.657 163.728 494.513 164.096 494.225 164.4C493.937 164.688 493.561 164.832 493.097 164.832ZM505.429 167.16C506.469 167.16 507.381 167.36 508.165 167.76C508.965 168.16 509.589 168.768 510.037 169.584C510.485 170.4 510.709 171.432 510.709 172.68L510.709 180L508.405 180L508.405 172.944C508.405 171.712 508.101 170.784 507.493 170.16C506.901 169.536 506.061 169.224 504.973 169.224C504.157 169.224 503.445 169.384 502.837 169.704C502.229 170.024 501.757 170.496 501.421 171.12C501.101 171.744 500.941 172.52 500.941 173.448L500.941 180L498.637 180L498.637 167.28L500.845 167.28L500.845 170.712L500.485 169.8C500.901 168.968 501.541 168.32 502.405 167.856C503.269 167.392 504.277 167.16 505.429 167.16ZM520.541 184.8C519.373 184.8 518.237 184.632 517.133 184.296C516.045 183.976 515.157 183.512 514.469 182.904L515.573 181.128C516.165 181.64 516.893 182.04 517.757 182.328C518.621 182.632 519.525 182.784 520.469 182.784C521.973 182.784 523.077 182.432 523.781 181.728C524.485 181.024 524.837 179.952 524.837 178.512L524.837 175.824L525.077 173.304L524.957 170.76L524.957 167.28L527.141 167.28L527.141 178.272C527.141 180.512 526.581 182.16 525.461 183.216C524.341 184.272 522.701 184.8 520.541 184.8ZM520.253 179.472C519.021 179.472 517.917 179.216 516.941 178.704C515.981 178.176 515.213 177.448 514.637 176.52C514.077 175.592 513.797 174.52 513.797 173.304C513.797 172.072 514.077 171 514.637 170.088C515.213 169.16 515.981 168.44 516.941 167.928C517.917 167.416 519.021 167.16 520.253 167.16C521.341 167.16 522.333 167.384 523.229 167.832C524.125 168.264 524.837 168.936 525.365 169.848C525.909 170.76 526.181 171.912 526.181 173.304C526.181 174.68 525.909 175.824 525.365 176.736C524.837 177.648 524.125 178.336 523.229 178.8C522.333 179.248 521.341 179.472 520.253 179.472ZM520.517 177.456C521.365 177.456 522.117 177.28 522.773 176.928C523.429 176.576 523.941 176.088 524.309 175.464C524.693 174.84 524.885 174.12 524.885 173.304C524.885 172.488 524.693 171.768 524.309 171.144C523.941 170.52 523.429 170.04 522.773 169.704C522.117 169.352 521.365 169.176 520.517 169.176C519.669 169.176 518.909 169.352 518.237 169.704C517.581 170.04 517.061 170.52 516.677 171.144C516.309 171.768 516.125 172.488 516.125 173.304C516.125 174.12 516.309 174.84 516.677 175.464C517.061 176.088 517.581 176.576 518.237 176.928C518.909 177.28 519.669 177.456 520.517 177.456ZM438.842 204.192C437.562 204.192 436.338 204 435.17 203.616C434.002 203.216 433.082 202.704 432.41 202.08L433.298 200.208C433.938 200.768 434.754 201.232 435.746 201.6C436.738 201.968 437.77 202.152 438.842 202.152C439.818 202.152 440.61 202.04 441.218 201.816C441.826 201.592 442.274 201.288 442.562 200.904C442.85 200.504 442.994 200.056 442.994 199.56C442.994 198.984 442.802 198.52 442.418 198.168C442.05 197.816 441.562 197.536 440.954 197.328C440.362 197.104 439.706 196.912 438.986 196.752C438.266 196.592 437.538 196.408 436.802 196.2C436.082 195.976 435.418 195.696 434.81 195.36C434.218 195.024 433.738 194.576 433.37 194.016C433.002 193.44 432.818 192.704 432.818 191.808C432.818 190.944 433.042 190.152 433.49 189.432C433.954 188.696 434.658 188.112 435.602 187.68C436.562 187.232 437.778 187.008 439.25 187.008C440.226 187.008 441.194 187.136 442.154 187.392C443.114 187.648 443.946 188.016 444.65 188.496L443.858 190.416C443.138 189.936 442.378 189.592 441.578 189.384C440.778 189.16 440.002 189.048 439.25 189.048C438.306 189.048 437.53 189.168 436.922 189.408C436.314 189.648 435.866 189.968 435.578 190.368C435.306 190.768 435.17 191.216 435.17 191.712C435.17 192.304 435.354 192.776 435.722 193.128C436.106 193.48 436.594 193.76 437.186 193.968C437.794 194.176 438.458 194.368 439.178 194.544C439.898 194.704 440.618 194.888 441.338 195.096C442.074 195.304 442.738 195.576 443.33 195.912C443.938 196.248 444.426 196.696 444.794 197.256C445.162 197.816 445.346 198.536 445.346 199.416C445.346 200.264 445.114 201.056 444.65 201.792C444.186 202.512 443.466 203.096 442.49 203.544C441.53 203.976 440.314 204.192 438.842 204.192ZM454.18 204.144C452.82 204.144 451.62 203.864 450.58 203.304C449.556 202.744 448.756 201.976 448.18 201C447.62 200.024 447.34 198.904 447.34 197.64C447.34 196.376 447.612 195.256 448.156 194.28C448.716 193.304 449.476 192.544 450.436 192C451.412 191.44 452.508 191.16 453.724 191.16C454.956 191.16 456.044 191.432 456.988 191.976C457.932 192.52 458.668 193.288 459.196 194.28C459.74 195.256 460.012 196.4 460.012 197.712C460.012 197.808 460.004 197.92 459.988 198.048C459.988 198.176 459.98 198.296 459.964 198.408L449.14 198.408L449.14 196.752L458.764 196.752L457.828 197.328C457.844 196.512 457.676 195.784 457.324 195.144C456.972 194.504 456.484 194.008 455.86 193.656C455.252 193.288 454.54 193.104 453.724 193.104C452.924 193.104 452.212 193.288 451.588 193.656C450.964 194.008 450.476 194.512 450.124 195.168C449.772 195.808 449.596 196.544 449.596 197.376L449.596 197.76C449.596 198.608 449.788 199.368 450.172 200.04C450.572 200.696 451.124 201.208 451.828 201.576C452.532 201.944 453.34 202.128 454.252 202.128C455.004 202.128 455.684 202 456.292 201.744C456.916 201.488 457.46 201.104 457.924 200.592L459.196 202.08C458.62 202.752 457.9 203.264 457.036 203.616C456.188 203.968 455.236 204.144 454.18 204.144ZM463.211 204L463.211 191.28L465.419 191.28L465.419 194.736L465.203 193.872C465.555 192.992 466.147 192.32 466.979 191.856C467.811 191.392 468.835 191.16 470.051 191.16L470.051 193.392C469.955 193.376 469.859 193.368 469.763 193.368C469.683 193.368 469.603 193.368 469.523 193.368C468.291 193.368 467.315 193.736 466.595 194.472C465.875 195.208 465.515 196.272 465.515 197.664L465.515 204L463.211 204ZM476.743 204L471.175 191.28L473.575 191.28L478.519 202.8L477.367 202.8L482.407 191.28L484.663 191.28L479.095 204L476.743 204ZM486.813 204L486.813 191.28L489.117 191.28L489.117 204L486.813 204ZM487.965 188.832C487.517 188.832 487.141 188.688 486.837 188.4C486.549 188.112 486.405 187.76 486.405 187.344C486.405 186.912 486.549 186.552 486.837 186.264C487.141 185.976 487.517 185.832 487.965 185.832C488.413 185.832 488.781 185.976 489.069 186.264C489.373 186.536 489.525 186.88 489.525 187.296C489.525 187.728 489.381 188.096 489.093 188.4C488.805 188.688 488.429 188.832 487.965 188.832ZM499.06 204.144C497.764 204.144 496.604 203.864 495.58 203.304C494.572 202.744 493.78 201.976 493.204 201C492.628 200.024 492.34 198.904 492.34 197.64C492.34 196.376 492.628 195.256 493.204 194.28C493.78 193.304 494.572 192.544 495.58 192C496.604 191.44 497.764 191.16 499.06 191.16C500.212 191.16 501.236 191.392 502.132 191.856C503.044 192.304 503.748 192.976 504.244 193.872L502.492 195C502.076 194.376 501.564 193.92 500.956 193.632C500.364 193.328 499.724 193.176 499.036 193.176C498.204 193.176 497.46 193.36 496.804 193.728C496.148 194.096 495.628 194.616 495.244 195.288C494.86 195.944 494.668 196.728 494.668 197.64C494.668 198.552 494.86 199.344 495.244 200.016C495.628 200.688 496.148 201.208 496.804 201.576C497.46 201.944 498.204 202.128 499.036 202.128C499.724 202.128 500.364 201.984 500.956 201.696C501.564 201.392 502.076 200.928 502.492 200.304L504.244 201.408C503.748 202.288 503.044 202.968 502.132 203.448C501.236 203.912 500.212 204.144 499.06 204.144ZM512.703 204.144C511.343 204.144 510.143 203.864 509.103 203.304C508.079 202.744 507.279 201.976 506.703 201C506.143 200.024 505.863 198.904 505.863 197.64C505.863 196.376 506.135 195.256 506.679 194.28C507.239 193.304 507.999 192.544 508.959 192C509.935 191.44 511.031 191.16 512.247 191.16C513.479 191.16 514.567 191.432 515.511 191.976C516.455 192.52 517.191 193.288 517.719 194.28C518.263 195.256 518.535 196.4 518.535 197.712C518.535 197.808 518.527 197.92 518.511 198.048C518.511 198.176 518.503 198.296 518.487 198.408L507.663 198.408L507.663 196.752L517.287 196.752L516.351 197.328C516.367 196.512 516.199 195.784 515.847 195.144C515.495 194.504 515.007 194.008 514.383 193.656C513.775 193.288 513.063 193.104 512.247 193.104C511.447 193.104 510.735 193.288 510.111 193.656C509.487 194.008 508.999 194.512 508.647 195.168C508.295 195.808 508.119 196.544 508.119 197.376L508.119 197.76C508.119 198.608 508.311 199.368 508.695 200.04C509.095 200.696 509.647 201.208 510.351 201.576C511.055 201.944 511.863 202.128 512.775 202.128C513.527 202.128 514.207 202 514.815 201.744C515.439 201.488 515.983 201.104 516.447 200.592L517.719 202.08C517.143 202.752 516.423 203.264 515.559 203.616C514.711 203.968 513.759 204.144 512.703 204.144ZM525.383 204.144C524.327 204.144 523.319 204 522.359 203.712C521.415 203.424 520.671 203.072 520.127 202.656L521.087 200.832C521.631 201.2 522.303 201.512 523.103 201.768C523.903 202.024 524.719 202.152 525.551 202.152C526.623 202.152 527.391 202 527.855 201.696C528.335 201.392 528.575 200.968 528.575 200.424C528.575 200.024 528.431 199.712 528.143 199.488C527.855 199.264 527.471 199.096 526.991 198.984C526.527 198.872 526.007 198.776 525.431 198.696C524.855 198.6 524.279 198.488 523.703 198.36C523.127 198.216 522.599 198.024 522.119 197.784C521.639 197.528 521.255 197.184 520.967 196.752C520.679 196.304 520.535 195.712 520.535 194.976C520.535 194.208 520.751 193.536 521.183 192.96C521.615 192.384 522.223 191.944 523.007 191.64C523.807 191.32 524.751 191.16 525.839 191.16C526.671 191.16 527.511 191.264 528.359 191.472C529.223 191.664 529.927 191.944 530.471 192.312L529.487 194.136C528.911 193.752 528.311 193.488 527.687 193.344C527.063 193.2 526.439 193.128 525.815 193.128C524.807 193.128 524.055 193.296 523.559 193.632C523.063 193.952 522.815 194.368 522.815 194.88C522.815 195.312 522.959 195.648 523.247 195.888C523.551 196.112 523.935 196.288 524.399 196.416C524.879 196.544 525.407 196.656 525.983 196.752C526.559 196.832 527.135 196.944 527.711 197.088C528.287 197.216 528.807 197.4 529.271 197.64C529.751 197.88 530.135 198.216 530.423 198.648C530.727 199.08 530.879 199.656 530.879 200.376C530.879 201.144 530.655 201.808 530.207 202.368C529.759 202.928 529.127 203.368 528.311 203.688C527.495 203.992 526.519 204.144 525.383 204.144Z" fill="white"/>
</g>
<defs>
<filter id="filter0_d_743_12098" x="-24" y="0" width="764" height="764" filterUnits="userSpaceOnUse" color-interpolation-filters="sRGB">
<feFlood flood-opacity="0" result="BackgroundImageFix"/>
<feColorMatrix in="SourceAlpha" type="matrix" values="0 0 0 0 0 0 0 0 0 0 0 0 0 0 0 0 0 0 127 0" result="hardAlpha"/>
<feOffset/>
<feGaussianBlur stdDeviation="12"/>
<feComposite in2="hardAlpha" operator="out"/>
<feColorMatrix type="matrix" values="0 0 0 0 0.94902 0 0 0 0 0.639216 0 0 0 0 0.156863 0 0 0 0.2 0"/>
<feBlend mode="normal" in2="BackgroundImageFix" result="effect1_dropShadow_743_12098"/>
<feBlend mode="normal" in="SourceGraphic" in2="effect1_dropShadow_743_12098" result="shape"/>
</filter>
<filter id="filter1_ii_743_12098" x="358" y="24.3848" width="312.322" height="361.249" filterUnits="userSpaceOnUse" color-interpolation-filters="sRGB">
<feFlood flood-opacity="0" result="BackgroundImageFix"/>
<feBlend mode="normal" in="SourceGraphic" in2="BackgroundImageFix" result="shape"/>
<feColorMatrix in="SourceAlpha" type="matrix" values="0 0 0 0 0 0 0 0 0 0 0 0 0 0 0 0 0 0 127 0" result="hardAlpha"/>
<feMorphology radius="8.59104" operator="erode" in="SourceAlpha" result="effect1_innerShadow_743_12098"/>
<feOffset/>
<feGaussianBlur stdDeviation="28.6368"/>
<feComposite in2="hardAlpha" operator="arithmetic" k2="-1" k3="1"/>
<feColorMatrix type="matrix" values="0 0 0 0 0 0 0 0 0 0 0 0 0 0 0 0 0 0 0.25 0"/>
<feBlend mode="normal" in2="shape" result="effect1_innerShadow_743_12098"/>
<feColorMatrix in="SourceAlpha" type="matrix" values="0 0 0 0 0 0 0 0 0 0 0 0 0 0 0 0 0 0 127 0" result="hardAlpha"/>
<feOffset dx="8.59104" dy="8.59104"/>
<feGaussianBlur stdDeviation="21.4776"/>
<feComposite in2="hardAlpha" operator="arithmetic" k2="-1" k3="1"/>
<feColorMatrix type="matrix" values="0 0 0 0 0 0 0 0 0 0 0 0 0 0 0 0 0 0 0.25 0"/>
<feBlend mode="normal" in2="effect1_innerShadow_743_12098" result="effect2_innerShadow_743_12098"/>
</filter>
</defs>
</svg>
